{
.appVersion = "983";
copyright = "Copyright 2011 The Sigmar One Project Authors (contact@sansoxygen.com)";
customParameters = (
{
name = license;
value = "This Font Software is licensed under the SIL Open Font License, Version 1.1. This license is available with a FAQ at: http://scripts.sil.org/OFL";
},
{
name = licenseURL;
value = "http://scripts.sil.org/OFL";
},
{
name = vendorID;
value = NeWT;
},
{
name = panose;
value = (
0,
0,
5,
0,
0,
0,
0,
0,
0,
0
);
},
{
name = unicodeRanges;
value = (
0,
1,
2,
29
);
},
{
name = codePageRanges;
value = (
1252,
1250,
1254,
1257,
1258
);
},
{
name = glyphOrder;
value = (
.notdef,
NULL,
uni000D,
space,
A,
Aacute,
Abreve,
uni1EAE,
uni1EB6,
uni1EB0,
uni1EB2,
uni1EB4,
Acircumflex,
uni1EA4,
uni1EAC,
uni1EA6,
uni1EA8,
uni1EAA,
uni0200,
Adieresis,
uni1EA0,
Agrave,
uni1EA2,
uni0202,
Amacron,
Aogonek,
Aring,
Aringacute,
Atilde,
AE,
AEacute,
B,
C,
Cacute,
Ccaron,
Ccedilla,
Ccircumflex,
Cdotaccent,
D,
uni01C4,
Eth,
Dcaron,
Dcroat,
uni01C5,
E,
Eacute,
Ebreve,
Ecaron,
Ecircumflex,
uni1EBE,
uni1EC6,
uni1EC0,
uni1EC2,
uni1EC4,
uni0204,
Edieresis,
Edotaccent,
uni1EB8,
Egrave,
uni1EBA,
uni0206,
Emacron,
Eogonek,
uni1EBC,
F,
G,
Gbreve,
Gcaron,
Gcircumflex,
Gcommaaccent,
Gdotaccent,
H,
Hbar,
Hcircumflex,
I,
IJ,
Iacute,
Ibreve,
Icircumflex,
uni0208,
Idieresis,
Idotaccent,
uni1ECA,
Igrave,
uni1EC8,
uni020A,
Imacron,
Iogonek,
Itilde,
J,
Jcircumflex,
K,
Kcommaaccent,
L,
uni01C7,
Lacute,
Lcaron,
Lcommaaccent,
Ldot,
uni01C8,
Lslash,
M,
N,
uni01CA,
Nacute,
Ncaron,
Ncommaaccent,
Eng,
uni01CB,
Ntilde,
O,
Oacute,
Obreve,
Ocircumflex,
uni1ED0,
uni1ED8,
uni1ED2,
uni1ED4,
uni1ED6,
uni020C,
Odieresis,
uni022A,
uni0230,
uni1ECC,
Ograve,
uni1ECE,
Ohorn,
uni1EDA,
uni1EE2,
uni1EDC,
uni1EDE,
uni1EE0,
Ohungarumlaut,
uni020E,
Omacron,
uni01EA,
Oslash,
Oslashacute,
Otilde,
uni022C,
OE,
P,
Thorn,
Q,
R,
Racute,
Rcaron,
Rcommaaccent,
uni0210,
uni0212,
S,
Sacute,
Scaron,
Scedilla,
Scircumflex,
Scommaaccent,
uni1E9E,
uni018F,
T,
Tbar,
Tcaron,
uni0162,
uni021A,
U,

glyphs = (
{
glyphname = A;
lastChange = "2017-08-02 15:49:21 +0000";
layers = (
{
layerId = "CBDECE4A-293B-4E5C-B714-A3FD26C7130D";
paths = (
{
closed = 1;
nodes = (
"765 -9 LINE SMOOTH",
"773 -9 OFFCURVE",
"779 -3 OFFCURVE",
"782 11 CURVE",
"786 12 OFFCURVE",
"786 15 OFFCURVE",
"786 20 CURVE SMOOTH",
"786 31 OFFCURVE",
"777 58 OFFCURVE",
"776 67 CURVE SMOOTH",
"775 73 OFFCURVE",
"774 76 OFFCURVE",
"772 90 CURVE",
"752 177 OFFCURVE",
"736 258 OFFCURVE",
"717 322 CURVE",
"650 654 LINE",
"650 655 OFFCURVE",
"645 663 OFFCURVE",
"641 665 CURVE",
"637 665 LINE",
"637 663 OFFCURVE",
"636 663 OFFCURVE",
"633 663 CURVE SMOOTH",
"626 663 OFFCURVE",
"617 663 OFFCURVE",
"607 668 CURVE SMOOTH",
"598 673 OFFCURVE",
"590 670 OFFCURVE",
"582 670 CURVE SMOOTH",
"568 670 OFFCURVE",
"557 669 OFFCURVE",
"543 668 CURVE",
"540 668 OFFCURVE",
"532 668 OFFCURVE",
"525 667 CURVE SMOOTH",
"518 666 OFFCURVE",
"510 665 OFFCURVE",
"504 665 CURVE SMOOTH",
"501 665 OFFCURVE",
"497 667 OFFCURVE",
"495 668 CURVE",
"478 668 LINE",
"454 668 LINE",
"434 668 LINE",
"428 669 OFFCURVE",
"424 669 OFFCURVE",
"418 669 CURVE SMOOTH",
"413 669 OFFCURVE",
"409 669 OFFCURVE",
"409 670 CURVE",
"394 670 LINE",
"363 670 LINE",
"323 670 LINE SMOOTH",
"288 670 OFFCURVE",
"264 669 OFFCURVE",
"252 668 CURVE",
"249 668 OFFCURVE",
"240 668 OFFCURVE",
"240 665 CURVE",
"235 665 OFFCURVE",
"228 665 OFFCURVE",
"225 667 CURVE SMOOTH",
"222 669 OFFCURVE",
"218 668 OFFCURVE",
"215 668 CURVE",
"205 669 OFFCURVE",
"197 670 OFFCURVE",
"188 670 CURVE SMOOTH",
"185 670 OFFCURVE",
"180 669 OFFCURVE",
"176 668 CURVE SMOOTH",
"172 667 OFFCURVE",
"169 663 OFFCURVE",
"163 663 CURVE",
"161 665 LINE",
"157 665 LINE",
"152 662 OFFCURVE",
"148 655 OFFCURVE",
"148 654 CURVE",
"82 322 LINE",
"61 249 OFFCURVE",
"40 161 OFFCURVE",
"25 79 CURVE",
"25 75 OFFCURVE",
"24 71 OFFCURVE",
"22 64 CURVE",
"20 61 OFFCURVE",
"18 55 OFFCURVE",
"17 48 CURVE SMOOTH",
"16 40 OFFCURVE",
"16 34 OFFCURVE",
"16 28 CURVE",
"15 25 OFFCURVE",
"15 24 OFFCURVE",
"15 18 CURVE SMOOTH",
"15 11 OFFCURVE",
"17 3 OFFCURVE",
"22 -4 CURVE",
"24 -7 OFFCURVE",
"30 -9 OFFCURVE",
"33 -9 CURVE SMOOTH",
"43 -9 LINE SMOOTH",
"54 -9 OFFCURVE",
"61 -9 OFFCURVE",
"66 -7 CURVE",
"90 -7 LINE",
"113 -7 LINE",
"134 -7 LINE SMOOTH",
"138 -7 OFFCURVE",
"140 -7 OFFCURVE",
"140 -7 CURVE",
"199 -7 LINE",
"199 -5 LINE",
"202 -4 OFFCURVE",
"206 -4 OFFCURVE",
"210 -4 CURVE",
"210 -4 OFFCURVE",
"210 -4 OFFCURVE",
"210 -4 CURVE",
"212 -4 OFFCURVE",
"212 -4 OFFCURVE",
"213 -5 CURVE",
"213 -6 OFFCURVE",
"213 -7 OFFCURVE",
"214 -7 CURVE SMOOTH",
"216 -7 LINE",
"223 -7 LINE",
"225 -6 OFFCURVE",
"234 -5 OFFCURVE",
"242 -5 CURVE",
"262 -4 OFFCURVE",
"276 -4 OFFCURVE",
"287 -4 CURVE",
"294 7 OFFCURVE",
"304 47 OFFCURVE",
"313 97 CURVE",
"314 109 OFFCURVE",
"316 115 OFFCURVE",
"316 120 CURVE",
"333 116 OFFCURVE",
"348 115 OFFCURVE",
"369 115 CURVE SMOOTH",
"397 115 LINE",
"425 115 LINE",
"433 87 LINE SMOOTH",
"448 34 OFFCURVE",
"449 7 OFFCURVE",
"452 -4 CURVE",
"454 -4 OFFCURVE",
"459 -4 OFFCURVE",
"463 -5 CURVE",
"463 -6 OFFCURVE",
"464 -6 OFFCURVE",
"467 -6 CURVE",
"468 -7 OFFCURVE",
"468 -7 OFFCURVE",
"468 -7 CURVE",
"471 -7 LINE SMOOTH",
"476 -7 OFFCURVE",
"478 -6 OFFCURVE",
"479 -5 CURVE",
"480 -4 OFFCURVE",
"483 -4 OFFCURVE",
"484 -4 CURVE",
"527 -5 LINE",
"542 -5 LINE",
"557 -5 LINE",
"561 -6 OFFCURVE",
"563 -7 OFFCURVE",
"565 -7 CURVE SMOOTH",
"569 -7 LINE",
"655 -7 LINE",
"665 -7 LINE",
"672 -7 OFFCURVE",
"686 -7 OFFCURVE",
"706 -7 CURVE SMOOTH",
"731 -7 LINE",
"737 -9 OFFCURVE",
"743 -9 OFFCURVE",
"753 -9 CURVE SMOOTH"
);
},
{
closed = 1;
nodes = (
"334 264 OFFCURVE",
"335 279 OFFCURVE",
"335 279 CURVE",
"338 297 OFFCURVE",
"342 335 OFFCURVE",
"352 390 CURVE SMOOTH",
"358 422 OFFCURVE",
"361 437 OFFCURVE",
"361 437 CURVE",
"363 448 OFFCURVE",
"364 458 OFFCURVE",
"367 469 CURVE",
"367 481 LINE",
"369 484 OFFCURVE",
"371 487 OFFCURVE",
"371 491 CURVE",
"371 495 LINE",
"372 495 OFFCURVE",
"372 494 OFFCURVE",
"372 491 CURVE SMOOTH",
"372 487 OFFCURVE",
"373 487 OFFCURVE",
"374 486 CURVE",
"374 481 LINE",
"376 469 LINE",
"377 460 OFFCURVE",
"379 449 OFFCURVE",
"383 437 CURVE",
"387 409 LINE SMOOTH",
"392 371 OFFCURVE",
"397 340 OFFCURVE",
"397 333 CURVE SMOOTH",
"397 324 OFFCURVE",
"399 315 OFFCURVE",
"403 300 CURVE SMOOTH",
"404 296 OFFCURVE",
"405 290 OFFCURVE",
"407 281 CURVE",
"414 236 LINE",
"367 236 LINE",
"360 241 LINE",
"359 241 LINE SMOOTH",
"350 241 OFFCURVE",
"343 237 OFFCURVE",
"340 236 CURVE",
"338 236 OFFCURVE",
"337 236 OFFCURVE",
"334 236 CURVE",
"334 235 OFFCURVE",
"332 234 OFFCURVE",
"328 234 CURVE"
);
}
);
width = 801;
}
);
note = A;
unicode = 0041;
},
{
glyphname = Aogonek;
lastChange = "2017-08-01 16:19:10 +0000";
layers = (
{
layerId = "CBDECE4A-293B-4E5C-B714-A3FD26C7130D";
paths = (
{
closed = 1;
nodes = (
"896 -144 OFFCURVE",
"867 -150 OFFCURVE",
"840 -150 CURVE SMOOTH",
"831 -150 OFFCURVE",
"825 -150 OFFCURVE",
"820 -151 CURVE",
"812 -154 OFFCURVE",
"802 -149 OFFCURVE",
"799 -148 CURVE",
"784 -144 OFFCURVE",
"776 -136 OFFCURVE",
"776 -116 CURVE SMOOTH",
"776 -108 OFFCURVE",
"780 -96 OFFCURVE",
"789 -80 CURVE SMOOTH",
"802 -57 OFFCURVE",
"816 -39 OFFCURVE",
"835 -23 CURVE",
"847 -9 LINE",
"853 -7 OFFCURVE",
"857 -1 OFFCURVE",
"860 11 CURVE",
"864 12 OFFCURVE",
"864 15 OFFCURVE",
"864 20 CURVE SMOOTH",
"864 31 OFFCURVE",
"855 58 OFFCURVE",
"854 67 CURVE",
"853 73 OFFCURVE",
"852 76 OFFCURVE",
"850 90 CURVE",
"830 177 OFFCURVE",
"814 258 OFFCURVE",
"795 322 CURVE",
"728 654 LINE",
"728 655 OFFCURVE",
"723 663 OFFCURVE",
"719 665 CURVE",
"715 665 LINE",
"715 663 OFFCURVE",
"714 663 OFFCURVE",
"711 663 CURVE SMOOTH",
"704 663 OFFCURVE",
"695 663 OFFCURVE",
"685 668 CURVE",
"676 673 OFFCURVE",
"668 670 OFFCURVE",
"660 670 CURVE SMOOTH",
"646 670 OFFCURVE",
"635 669 OFFCURVE",
"621 668 CURVE",
"618 668 OFFCURVE",
"610 668 OFFCURVE",
"603 667 CURVE SMOOTH",
"596 666 OFFCURVE",
"588 665 OFFCURVE",
"582 665 CURVE SMOOTH",
"579 665 OFFCURVE",
"575 667 OFFCURVE",
"573 668 CURVE",
"512 668 LINE",
"506 669 OFFCURVE",
"502 669 OFFCURVE",
"496 669 CURVE SMOOTH",
"491 669 OFFCURVE",
"487 669 OFFCURVE",
"487 670 CURVE",
"401 670 LINE SMOOTH",
"366 670 OFFCURVE",
"342 669 OFFCURVE",
"330 668 CURVE",
"327 668 OFFCURVE",
"318 668 OFFCURVE",
"318 665 CURVE",
"313 665 OFFCURVE",
"306 665 OFFCURVE",
"303 667 CURVE SMOOTH",
"300 669 OFFCURVE",
"296 668 OFFCURVE",
"293 668 CURVE",
"283 669 OFFCURVE",
"275 670 OFFCURVE",
"266 670 CURVE SMOOTH",
"263 670 OFFCURVE",
"258 669 OFFCURVE",
"254 668 CURVE SMOOTH",
"250 667 OFFCURVE",
"247 663 OFFCURVE",
"241 663 CURVE",
"239 665 LINE",
"235 665 LINE",
"230 662 OFFCURVE",
"226 655 OFFCURVE",
"226 654 CURVE",
"160 322 LINE",
"139 249 OFFCURVE",
"118 161 OFFCURVE",
"103 79 CURVE",
"103 75 OFFCURVE",
"102 71 OFFCURVE",
"100 64 CURVE",
"98 61 OFFCURVE",
"96 55 OFFCURVE",
"95 48 CURVE SMOOTH",
"94 40 OFFCURVE",
"94 34 OFFCURVE",
"94 28 CURVE",
"93 25 OFFCURVE",
"93 24 OFFCURVE",
"93 18 CURVE SMOOTH",
"93 11 OFFCURVE",
"95 3 OFFCURVE",
"100 -4 CURVE SMOOTH",
"102 -7 OFFCURVE",
"108 -9 OFFCURVE",
"111 -9 CURVE SMOOTH",
"121 -9 LINE SMOOTH",
"132 -9 OFFCURVE",
"139 -9 OFFCURVE",
"144 -7 CURVE",
"212 -7 LINE",
"218 -7 LINE",
"277 -7 LINE",
"277 -5 LINE",
"280 -4 OFFCURVE",
"284 -4 OFFCURVE",
"288 -4 CURVE SMOOTH",
"290 -4 OFFCURVE",
"290 -4 OFFCURVE",
"291 -5 CURVE",
"291 -6 OFFCURVE",
"291 -7 OFFCURVE",
"292 -7 CURVE SMOOTH",
"301 -7 LINE",
"303 -6 OFFCURVE",
"312 -5 OFFCURVE",
"320 -5 CURVE",
"340 -4 OFFCURVE",
"354 -4 OFFCURVE",
"365 -4 CURVE",
"372 7 OFFCURVE",
"382 47 OFFCURVE",
"391 97 CURVE",
"392 109 OFFCURVE",
"394 115 OFFCURVE",
"394 120 CURVE",
"411 116 OFFCURVE",
"426 115 OFFCURVE",
"447 115 CURVE SMOOTH",
"503 115 LINE",
"511 87 LINE SMOOTH",
"526 34 OFFCURVE",
"527 7 OFFCURVE",
"530 -4 CURVE",
"532 -4 OFFCURVE",
"537 -4 OFFCURVE",
"541 -5 CURVE",
"541 -6 OFFCURVE",
"542 -6 OFFCURVE",
"545 -6 CURVE",
"546 -7 LINE",
"549 -7 LINE SMOOTH",
"554 -7 OFFCURVE",
"556 -6 OFFCURVE",
"557 -5 CURVE SMOOTH",
"558 -4 OFFCURVE",
"561 -4 OFFCURVE",
"562 -4 CURVE SMOOTH",
"605 -5 LINE",
"635 -5 LINE",
"639 -6 OFFCURVE",
"641 -7 OFFCURVE",
"643 -7 CURVE SMOOTH",
"677 -7 LINE",
"675 -8 OFFCURVE",
"674 -8 OFFCURVE",
"673 -9 CURVE",
"665 -14 OFFCURVE",
"659 -18 OFFCURVE",
"654 -23 CURVE",
"598 -60 OFFCURVE",
"571 -93 OFFCURVE",
"571 -153 CURVE SMOOTH",
"571 -165 OFFCURVE",
"573 -176 OFFCURVE",
"576 -185 CURVE",
"587 -210 OFFCURVE",
"610 -230 OFFCURVE",
"647 -243 CURVE SMOOTH",
"686 -257 OFFCURVE",
"741 -266 OFFCURVE",
"814 -266 CURVE",
"824 -264 LINE",
"826 -263 OFFCURVE",
"829 -263 OFFCURVE",
"832 -263 CURVE SMOOTH",
"835 -263 OFFCURVE",
"839 -262 OFFCURVE",
"844 -261 CURVE",
"855 -260 OFFCURVE",
"871 -255 OFFCURVE",
"891 -248 CURVE",
"904 -241 OFFCURVE",
"916 -235 OFFCURVE",
"917 -230 CURVE SMOOTH",
"934 -148 LINE",
"934 -143 LINE SMOOTH",
"934 -138 OFFCURVE",
"932 -135 OFFCURVE",
"927 -133 CURVE"
);
},
{
closed = 1;
nodes = (
"438 241 LINE",
"437 241 LINE SMOOTH",
"428 241 OFFCURVE",
"421 237 OFFCURVE",
"418 236 CURVE",
"412 236 LINE",
"412 235 OFFCURVE",
"410 234 OFFCURVE",
"406 234 CURVE",
"412 264 OFFCURVE",
"413 279 OFFCURVE",
"413 279 CURVE",
"416 297 OFFCURVE",
"420 335 OFFCURVE",
"430 390 CURVE SMOOTH",
"439 437 LINE SMOOTH",
"441 448 OFFCURVE",
"442 458 OFFCURVE",
"445 469 CURVE",
"445 481 LINE",
"447 484 OFFCURVE",
"449 487 OFFCURVE",
"449 491 CURVE SMOOTH",
"449 495 LINE",
"450 495 OFFCURVE",
"450 494 OFFCURVE",
"450 491 CURVE SMOOTH",
"450 487 OFFCURVE",
"451 487 OFFCURVE",
"452 486 CURVE",
"452 481 LINE",
"454 469 LINE",
"455 460 OFFCURVE",
"457 449 OFFCURVE",
"461 437 CURVE",
"465 409 LINE SMOOTH",
"470 371 OFFCURVE",
"475 340 OFFCURVE",
"475 333 CURVE SMOOTH",
"475 324 OFFCURVE",
"477 315 OFFCURVE",
"481 300 CURVE",
"485 281 LINE",
"492 236 LINE",
"445 236 LINE"
);
},
{
closed = 1;
nodes = (
"662 3 LINE",
"689 2 LINE",
"690 2 OFFCURVE",
"690 1 OFFCURVE",
"688 0 CURVE",
"658 -1 LINE"
);
},
{
closed = 1;
nodes = (
"658 -1 LINE",
"655 -1 LINE SMOOTH",
"655 -1 OFFCURVE",
"656 0 OFFCURVE",
"656 1 CURVE"
);
}
);
width = 918;
}
);
note = Aogonek;
unicode = 0104;
},
{
glyphname = Aringacute;
lastChange = "2017-06-18 19:14:15 +0000";
layers = (
{
layerId = "CBDECE4A-293B-4E5C-B714-A3FD26C7130D";
paths = (
{
closed = 1;
nodes = (
"734 904 OFFCURVE",
"740 904 OFFCURVE",
"743 905 CURVE SMOOTH",
"746 906 OFFCURVE",
"750 906 OFFCURVE",
"753 906 CURVE",
"756 905 OFFCURVE",
"758 905 OFFCURVE",
"760 905 CURVE SMOOTH",
"778 905 LINE",
"780 906 LINE",
"784 904 LINE",
"787 905 OFFCURVE",
"791 905 OFFCURVE",
"796 905 CURVE SMOOTH",
"808 905 LINE SMOOTH",
"810 905 OFFCURVE",
"813 908 OFFCURVE",
"818 914 CURVE",
"827 936 OFFCURVE",
"834 953 OFFCURVE",
"838 964 CURVE",
"839 969 OFFCURVE",
"840 973 OFFCURVE",
"842 978 CURVE",
"844 982 OFFCURVE",
"845 985 OFFCURVE",
"846 987 CURVE SMOOTH",
"849 993 OFFCURVE",
"854 1006 OFFCURVE",
"863 1026 CURVE",
"866 1034 OFFCURVE",
"871 1052 OFFCURVE",
"879 1064 CURVE SMOOTH",
"881 1067 OFFCURVE",
"883 1069 OFFCURVE",
"884 1072 CURVE",
"885 1074 OFFCURVE",
"886 1076 OFFCURVE",
"888 1079 CURVE",
"889 1082 OFFCURVE",
"891 1084 OFFCURVE",
"892 1087 CURVE SMOOTH",
"893 1090 OFFCURVE",
"894 1092 OFFCURVE",
"895 1095 CURVE",
"900 1104 OFFCURVE",
"902 1110 OFFCURVE",
"903 1112 CURVE",
"908 1123 OFFCURVE",
"912 1132 OFFCURVE",
"916 1139 CURVE SMOOTH",
"923 1151 OFFCURVE",
"912 1153 OFFCURVE",
"905 1154 CURVE",
"901 1155 OFFCURVE",
"898 1155 OFFCURVE",
"895 1156 CURVE",
"893 1156 LINE",
"893 1155 OFFCURVE",
"892 1155 OFFCURVE",
"890 1155 CURVE",
"886 1157 LINE",
"859 1159 LINE",
"855 1159 LINE",
"853 1160 LINE",
"845 1160 LINE SMOOTH",
"842 1160 OFFCURVE",
"840 1160 OFFCURVE",
"839 1159 CURVE",
"835 1161 LINE",
"801 1160 LINE",
"761 1159 LINE",
"734 1155 LINE",
"730 1150 LINE",
"725 1125 OFFCURVE",
"720 1093 OFFCURVE",
"715 1054 CURVE",
"715 1021 LINE SMOOTH",
"715 1016 OFFCURVE",
"715 1010 OFFCURVE",
"714 1005 CURVE SMOOTH",
"713 999 OFFCURVE",
"713 994 OFFCURVE",
"713 989 CURVE SMOOTH",
"712 945 LINE SMOOTH",
"712 936 OFFCURVE",
"712 929 OFFCURVE",
"713 924 CURVE",
"714 911 OFFCURVE",
"717 904 OFFCURVE",
"726 904 CURVE SMOOTH"
);
},
{
closed = 1;
nodes = (
"492 713 OFFCURVE",
"513 713 OFFCURVE",
"545 721 CURVE SMOOTH",
"580 730 OFFCURVE",
"606 748 OFFCURVE",
"623 773 CURVE",
"628 774 LINE",
"652 807 OFFCURVE",
"664 852 OFFCURVE",
"664 895 CURVE SMOOTH",
"664 975 OFFCURVE",
"643 1014 OFFCURVE",
"574 1063 CURVE",
"542 1079 OFFCURVE",
"495 1083 OFFCURVE",
"448 1083 CURVE SMOOTH",
"445 1083 OFFCURVE",
"444 1082 OFFCURVE",
"444 1081 CURVE",
"440 1082 OFFCURVE",
"433 1083 OFFCURVE",
"423 1083 CURVE SMOOTH",
"377 1083 OFFCURVE",
"339 1062 OFFCURVE",
"309 1020 CURVE SMOOTH",
"282 983 OFFCURVE",
"268 935 OFFCURVE",
"268 890 CURVE SMOOTH",
"268 859 OFFCURVE",
"273 831 OFFCURVE",
"283 808 CURVE SMOOTH",
"312 740 OFFCURVE",
"371 713 OFFCURVE",
"440 713 CURVE SMOOTH"
);
},
{
closed = 1;
nodes = (
"443 828 OFFCURVE",
"433 830 OFFCURVE",
"424 835 CURVE SMOOTH",
"408 844 OFFCURVE",
"398 857 OFFCURVE",
"398 868 CURVE SMOOTH",
"398 870 OFFCURVE",
"398 872 OFFCURVE",
"397 873 CURVE SMOOTH",
"396 874 OFFCURVE",
"396 875 OFFCURVE",
"395 875 CURVE",
"395 881 LINE",
"395 886 LINE SMOOTH",
"395 921 OFFCURVE",
"403 946 OFFCURVE",
"418 960 CURVE",
"428 972 OFFCURVE",
"441 978 OFFCURVE",
"456 978 CURVE SMOOTH",
"470 978 OFFCURVE",
"483 976 OFFCURVE",
"495 973 CURVE SMOOTH",
"530 965 OFFCURVE",
"545 932 OFFCURVE",
"545 919 CURVE SMOOTH",
"545 915 LINE SMOOTH",
"545 907 OFFCURVE",
"543 898 OFFCURVE",
"540 888 CURVE SMOOTH",
"536 873 OFFCURVE",
"527 859 OFFCURVE",
"514 848 CURVE",
"502 835 OFFCURVE",
"483 828 OFFCURVE",
"456 828 CURVE SMOOTH"
);
},
{
closed = 1;
nodes = (
"845 -1 LINE SMOOTH",
"854 -1 OFFCURVE",
"860 6 OFFCURVE",
"863 19 CURVE",
"864 21 OFFCURVE",
"864 24 OFFCURVE",
"864 29 CURVE SMOOTH",
"864 42 OFFCURVE",
"858 70 OFFCURVE",
"856 80 CURVE SMOOTH",
"855 85 OFFCURVE",
"855 88 OFFCURVE",
"854 91 CURVE",
"834 185 OFFCURVE",
"814 268 OFFCURVE",
"795 339 CURVE",
"725 655 LINE",
"725 658 OFFCURVE",
"720 665 OFFCURVE",
"715 666 CURVE",
"710 666 LINE",
"710 665 OFFCURVE",
"709 665 OFFCURVE",
"707 665 CURVE SMOOTH",
"699 665 OFFCURVE",
"690 666 OFFCURVE",
"680 668 CURVE SMOOTH",
"670 670 OFFCURVE",
"661 671 OFFCURVE",
"653 671 CURVE SMOOTH",
"638 671 OFFCURVE",
"625 670 OFFCURVE",
"612 668 CURVE",
"606 668 OFFCURVE",
"599 668 OFFCURVE",
"592 667 CURVE SMOOTH",
"585 666 OFFCURVE",
"577 666 OFFCURVE",
"569 666 CURVE SMOOTH",
"566 666 OFFCURVE",
"563 667 OFFCURVE",
"560 668 CURVE",
"542 668 LINE",
"519 668 LINE",
"495 669 LINE",
"490 670 OFFCURVE",
"485 670 OFFCURVE",
"478 670 CURVE SMOOTH",
"473 670 OFFCURVE",
"470 670 OFFCURVE",
"470 671 CURVE",
"454 671 LINE",
"420 671 LINE",
"378 671 LINE SMOOTH",
"341 671 OFFCURVE",
"316 670 OFFCURVE",
"304 669 CURVE",
"300 669 OFFCURVE",
"290 669 OFFCURVE",
"289 666 CURVE",
"284 666 OFFCURVE",
"280 666 OFFCURVE",
"275 667 CURVE SMOOTH",
"270 668 OFFCURVE",
"266 668 OFFCURVE",
"262 668 CURVE",
"253 670 OFFCURVE",
"244 671 OFFCURVE",
"235 671 CURVE SMOOTH",
"231 671 OFFCURVE",
"227 670 OFFCURVE",
"223 668 CURVE SMOOTH",
"219 666 OFFCURVE",
"215 665 OFFCURVE",
"210 665 CURVE",
"205 666 LINE",
"202 666 LINE",
"198 663 OFFCURVE",
"192 658 OFFCURVE",
"192 655 CURVE",
"122 339 LINE",
"101 261 OFFCURVE",
"81 178 OFFCURVE",
"64 91 CURVE",
"64 87 OFFCURVE",
"63 83 OFFCURVE",
"60 78 CURVE",
"59 73 OFFCURVE",
"58 67 OFFCURVE",
"57 59 CURVE SMOOTH",
"56 51 OFFCURVE",
"55 44 OFFCURVE",
"55 39 CURVE",
"54 36 OFFCURVE",
"54 33 OFFCURVE",
"54 28 CURVE SMOOTH",
"54 19 OFFCURVE",
"56 11 OFFCURVE",
"60 5 CURVE",
"63 1 OFFCURVE",
"67 -1 OFFCURVE",
"72 -1 CURVE SMOOTH",
"85 -1 LINE SMOOTH",
"95 -1 OFFCURVE",
"103 -1 OFFCURVE",
"108 0 CURVE",
"134 0 LINE",
"159 0 LINE",
"179 0 LINE SMOOTH",
"184 0 OFFCURVE",
"187 0 OFFCURVE",
"187 1 CURVE",
"250 1 LINE",
"250 3 LINE",
"253 4 OFFCURVE",
"256 5 OFFCURVE",
"260 5 CURVE",
"260 5 OFFCURVE",
"260 5 OFFCURVE",
"260 5 CURVE",
"261 4 OFFCURVE",
"261 4 OFFCURVE",
"262 3 CURVE",
"262 2 OFFCURVE",
"263 1 OFFCURVE",
"264 1 CURVE SMOOTH",
"267 1 LINE",
"275 1 LINE",
"278 2 OFFCURVE",
"285 3 OFFCURVE",
"295 3 CURVE",
"315 4 OFFCURVE",
"331 5 OFFCURVE",
"342 5 CURVE",
"350 17 OFFCURVE",
"359 57 OFFCURVE",
"368 101 CURVE",
"369 112 OFFCURVE",
"371 119 OFFCURVE",
"372 123 CURVE",
"386 120 OFFCURVE",
"404 119 OFFCURVE",
"427 119 CURVE SMOOTH",
"458 119 LINE",
"487 119 LINE",
"494 87 LINE SMOOTH",
"503 43 OFFCURVE",
"510 16 OFFCURVE",
"515 5 CURVE",
"518 5 OFFCURVE",
"521 4 OFFCURVE",
"525 3 CURVE",
"526 2 OFFCURVE",
"527 2 OFFCURVE",
"528 2 CURVE",
"529 1 OFFCURVE",
"530 1 OFFCURVE",
"530 1 CURVE",
"534 1 LINE SMOOTH",
"538 1 OFFCURVE",
"541 2 OFFCURVE",
"543 3 CURVE",
"544 4 OFFCURVE",
"546 5 OFFCURVE",
"548 5 CURVE",
"593 3 LINE",
"609 3 LINE",
"624 3 LINE",
"627 2 OFFCURVE",
"630 1 OFFCURVE",
"634 1 CURVE SMOOTH",
"638 1 LINE",
"730 1 LINE",
"739 1 LINE",
"746 0 OFFCURVE",
"761 0 OFFCURVE",
"784 0 CURVE SMOOTH",
"810 0 LINE",
"815 -1 OFFCURVE",
"823 -1 OFFCURVE",
"833 -1 CURVE SMOOTH"
);
},
{
closed = 1;
nodes = (
"388 277 OFFCURVE",
"390 293 OFFCURVE",
"390 293 CURVE",
"394 312 OFFCURVE",
"399 341 OFFCURVE",
"410 400 CURVE SMOOTH",
"415 432 OFFCURVE",
"418 448 OFFCURVE",
"418 448 CURVE",
"420 461 OFFCURVE",
"422 473 OFFCURVE",
"424 483 CURVE",
"425 496 LINE",
"427 499 OFFCURVE",
"428 502 OFFCURVE",
"428 505 CURVE",
"429 511 LINE",
"430 510 OFFCURVE",
"430 508 OFFCURVE",
"430 505 CURVE SMOOTH",
"430 502 OFFCURVE",
"431 501 OFFCURVE",
"432 500 CURVE",
"432 496 LINE",
"434 483 LINE",
"435 474 OFFCURVE",
"437 462 OFFCURVE",
"440 449 CURVE",
"445 421 LINE SMOOTH",
"452 379 OFFCURVE",
"457 355 OFFCURVE",
"458 348 CURVE SMOOTH",
"459 341 OFFCURVE",
"460 330 OFFCURVE",
"463 315 CURVE SMOOTH",
"464 310 OFFCURVE",
"466 303 OFFCURVE",
"467 294 CURVE",
"475 248 LINE",
"424 248 LINE",
"417 250 LINE",
"415 250 LINE SMOOTH",
"407 250 OFFCURVE",
"401 249 OFFCURVE",
"397 248 CURVE",
"394 248 OFFCURVE",
"392 248 OFFCURVE",
"389 247 CURVE",
"387 246 OFFCURVE",
"385 245 OFFCURVE",
"383 244 CURVE"
);
}
);
width = 918;
}
);
note = Aringacute;
unicode = 01FA;
},
{
glyphname = AE;
lastChange = "2017-07-05 12:38:55 +0000";
layers = (
{
layerId = "CBDECE4A-293B-4E5C-B714-A3FD26C7130D";
paths = (
{
closed = 1;
nodes = (
"167 -1 OFFCURVE",
"174 -1 OFFCURVE",
"179 0 CURVE",
"205 0 LINE SMOOTH",
"228 0 OFFCURVE",
"243 0 OFFCURVE",
"250 1 CURVE",
"259 1 LINE",
"311 1 LINE",
"315 1 LINE SMOOTH",
"319 1 OFFCURVE",
"323 2 OFFCURVE",
"326 3 CURVE",
"340 3 LINE",
"358 3 LINE",
"403 5 LINE",
"408 3 LINE",
"409 2 OFFCURVE",
"411 1 OFFCURVE",
"415 1 CURVE SMOOTH",
"418 1 LINE SMOOTH",
"420 1 OFFCURVE",
"422 2 OFFCURVE",
"425 3 CURVE",
"434 5 LINE",
"440 12 OFFCURVE",
"447 25 OFFCURVE",
"455 42 CURVE SMOOTH",
"463 59 OFFCURVE",
"474 84 OFFCURVE",
"489 119 CURVE",
"544 119 LINE",
"561 118 OFFCURVE",
"578 120 OFFCURVE",
"595 123 CURVE",
"594 104 OFFCURVE",
"594 79 OFFCURVE",
"594 48 CURVE SMOOTH",
"594 27 OFFCURVE",
"595 12 OFFCURVE",
"598 5 CURVE",
"609 5 OFFCURVE",
"625 4 OFFCURVE",
"645 3 CURVE",
"654 3 OFFCURVE",
"661 2 OFFCURVE",
"665 1 CURVE",
"673 1 LINE",
"676 1 LINE SMOOTH",
"677 1 OFFCURVE",
"677 1 OFFCURVE",
"678 2 CURVE",
"678 3 OFFCURVE",
"678 3 OFFCURVE",
"679 3 CURVE SMOOTH",
"690 3 LINE",
"690 1 LINE",
"698 1 LINE",
"702 0 OFFCURVE",
"706 0 OFFCURVE",
"711 0 CURVE SMOOTH",
"738 0 LINE",
"791 0 LINE",
"796 -1 OFFCURVE",
"804 -1 OFFCURVE",
"813 -1 CURVE SMOOTH",
"828 -1 LINE",
"834 0 LINE",
"869 0 OFFCURVE",
"895 0 OFFCURVE",
"913 1 CURVE",
"1018 1 LINE SMOOTH",
"1046 1 OFFCURVE",
"1066 2 OFFCURVE",
"1079 3 CURVE",
"1104 4 OFFCURVE",
"1125 5 OFFCURVE",
"1140 5 CURVE SMOOTH",
"1153 5 OFFCURVE",
"1160 12 OFFCURVE",
"1160 26 CURVE",
"1159 41 LINE",
"1156 69 LINE",
"1153 91 LINE SMOOTH",
"1150 110 OFFCURVE",
"1148 125 OFFCURVE",
"1145 136 CURVE SMOOTH",
"1143 143 LINE",
"1046 143 LINE",
"919 143 LINE",
"919 160 OFFCURVE",
"919 171 OFFCURVE",
"920 178 CURVE",
"922 185 OFFCURVE",
"923 197 OFFCURVE",
"923 213 CURVE SMOOTH",
"923 228 OFFCURVE",
"924 238 OFFCURVE",
"926 243 CURVE",
"927 248 OFFCURVE",
"931 251 OFFCURVE",
"938 253 CURVE",
"943 254 OFFCURVE",
"955 254 OFFCURVE",
"974 254 CURVE",
"985 253 OFFCURVE",
"1007 253 OFFCURVE",
"1041 253 CURVE SMOOTH",
"1080 253 OFFCURVE",
"1106 255 OFFCURVE",
"1121 258 CURVE",
"1146 260 OFFCURVE",
"1158 267 OFFCURVE",
"1158 278 CURVE SMOOTH",
"1158 281 LINE",
"1153 370 LINE",
"1148 383 LINE",
"1145 387 OFFCURVE",
"1140 390 OFFCURVE",
"1133 393 CURVE",
"1119 393 LINE",
"1086 396 OFFCURVE",
"1056 398 OFFCURVE",
"1031 398 CURVE SMOOTH",
"941 398 LINE SMOOTH",
"929 398 OFFCURVE",
"926 401 OFFCURVE",
"926 418 CURVE SMOOTH",
"926 427 OFFCURVE",
"927 435 OFFCURVE",
"928 443 CURVE",
"929 466 OFFCURVE",
"933 486 OFFCURVE",
"938 503 CURVE",
"939 510 OFFCURVE",
"942 515 OFFCURVE",
"945 515 CURVE SMOOTH",
"988 515 OFFCURVE",
"1021 515 OFFCURVE",
"1043 516 CURVE",
"1138 516 LINE",
"1145 516 LINE",
"1148 515 OFFCURVE",
"1150 518 OFFCURVE",
"1151 525 CURVE",
"1151 543 LINE",
"1150 548 OFFCURVE",
"1149 555 OFFCURVE",
"1148 564 CURVE SMOOTH",
"1147 572 OFFCURVE",
"1146 579 OFFCURVE",
"1145 585 CURVE",
"1143 616 OFFCURVE",
"1139 640 OFFCURVE",
"1134 658 CURVE",
"1131 665 OFFCURVE",
"1127 669 OFFCURVE",
"1123 669 CURVE",
"1090 672 OFFCURVE",
"1054 674 OFFCURVE",
"1015 674 CURVE",
"1001 675 OFFCURVE",
"981 675 OFFCURVE",
"954 675 CURVE",
"728 670 LINE",
"751 671 OFFCURVE",
"721 671 OFFCURVE",
"678 671 CURVE SMOOTH",
"640 671 LINE",
"620 671 LINE",
"620 670 OFFCURVE",
"618 670 OFFCURVE",
"615 670 CURVE SMOOTH",
"538 668 LINE",
"525 670 OFFCURVE",
"511 671 OFFCURVE",
"498 671 CURVE SMOOTH",
"488 671 OFFCURVE",
"478 670 OFFCURVE",
"469 668 CURVE SMOOTH",
"459 666 OFFCURVE",
"450 665 OFFCURVE",
"443 665 CURVE SMOOTH",
"440 665 OFFCURVE",
"438 665 OFFCURVE",
"438 666 CURVE",
"434 666 LINE",
"429 665 OFFCURVE",
"421 658 OFFCURVE",
"421 655 CURVE",
"270 339 LINE SMOOTH",
"230 256 OFFCURVE",
"192 173 OFFCURVE",
"156 91 CURVE",
"155 86 OFFCURVE",
"153 82 OFFCURVE",
"150 78 CURVE",
"147 69 OFFCURVE",
"144 62 OFFCURVE",
"143 59 CURVE SMOOTH",
"137 40 OFFCURVE",
"132 27 OFFCURVE",
"131 19 CURVE",
"130 6 OFFCURVE",
"134 -1 OFFCURVE",
"143 -1 CURVE SMOOTH",
"158 -1 LINE SMOOTH"
);
},
{
closed = 1;
nodes = (
"604 247 OFFCURVE",
"591 248 OFFCURVE",
"571 248 CURVE SMOOTH",
"530 248 LINE",
"541 275 OFFCURVE",
"547 291 OFFCURVE",
"548 294 CURVE",
"550 303 OFFCURVE",
"553 312 OFFCURVE",
"557 323 CURVE SMOOTH",
"561 334 OFFCURVE",
"564 342 OFFCURVE",
"566 348 CURVE",
"575 372 OFFCURVE",
"582 390 OFFCURVE",
"586 403 CURVE",
"588 408 OFFCURVE",
"594 423 OFFCURVE",
"603 449 CURVE",
"605 454 OFFCURVE",
"607 460 OFFCURVE",
"609 466 CURVE",
"610 471 OFFCURVE",
"612 477 OFFCURVE",
"615 483 CURVE",
"616 486 OFFCURVE",
"617 489 OFFCURVE",
"618 492 CURVE",
"619 494 OFFCURVE",
"619 495 OFFCURVE",
"619 496 CURVE",
"621 500 LINE SMOOTH",
"622 502 OFFCURVE",
"623 504 OFFCURVE",
"624 506 CURVE",
"624 507 OFFCURVE",
"624 509 OFFCURVE",
"625 511 CURVE",
"625 505 LINE",
"625 500 LINE",
"625 496 LINE",
"624 483 LINE",
"623 448 LINE SMOOTH",
"623 443 OFFCURVE",
"622 433 OFFCURVE",
"621 420 CURVE SMOOTH",
"620 400 LINE SMOOTH",
"619 377 OFFCURVE",
"618 359 OFFCURVE",
"618 346 CURVE",
"611 244 LINE"
);
}
);
width = 1210;
}
);
note = AE;
unicode = 00C6;
},
{
glyphname = B;
lastChange = "2017-06-26 18:01:08 +0000";
layers = (
{
layerId = "CBDECE4A-293B-4E5C-B714-A3FD26C7130D";
paths = (
{
closed = 1;
nodes = (
"292 -24 OFFCURVE",
"330 -23 OFFCURVE",
"365 -19 CURVE SMOOTH",
"458 -8 OFFCURVE",
"642 0 OFFCURVE",
"730 69 CURVE SMOOTH",
"776 105 OFFCURVE",
"797 163 OFFCURVE",
"797 200 CURVE SMOOTH",
"797 226 OFFCURVE",
"786 251 OFFCURVE",
"765 275 CURVE",
"736 302 OFFCURVE",
"699 325 OFFCURVE",
"653 344 CURVE",
"652 345 OFFCURVE",
"651 346 OFFCURVE",
"651 346 CURVE",
"651 347 OFFCURVE",
"651 347 OFFCURVE",
"651 348 CURVE",
"650 348 OFFCURVE",
"650 348 OFFCURVE",
"650 348 CURVE",
"653 353 OFFCURVE",
"657 357 OFFCURVE",
"660 358 CURVE",
"669 363 OFFCURVE",
"679 368 OFFCURVE",
"691 371 CURVE",
"694 372 OFFCURVE",
"696 374 OFFCURVE",
"699 375 CURVE SMOOTH",
"702 376 OFFCURVE",
"705 377 OFFCURVE",
"708 379 CURVE SMOOTH",
"753 409 OFFCURVE",
"777 450 OFFCURVE",
"777 506 CURVE SMOOTH",
"777 549 OFFCURVE",
"761 585 OFFCURVE",
"728 613 CURVE",
"677 652 OFFCURVE",
"540 689 OFFCURVE",
"437 690 CURVE SMOOTH",
"363 691 OFFCURVE",
"300 695 OFFCURVE",
"245 695 CURVE SMOOTH",
"236 695 OFFCURVE",
"184 691 OFFCURVE",
"170 690 CURVE",
"147 689 OFFCURVE",
"131 688 OFFCURVE",
"120 688 CURVE SMOOTH",
"112 688 OFFCURVE",
"105 688 OFFCURVE",
"98 687 CURVE SMOOTH",
"91 686 OFFCURVE",
"84 686 OFFCURVE",
"78 686 CURVE SMOOTH",
"69 686 OFFCURVE",
"61 685 OFFCURVE",
"56 683 CURVE",
"47 677 OFFCURVE",
"42 668 OFFCURVE",
"41 656 CURVE",
"41 653 OFFCURVE",
"41 648 OFFCURVE",
"38 641 CURVE",
"36 630 OFFCURVE",
"35 613 OFFCURVE",
"35 590 CURVE SMOOTH",
"35 559 LINE",
"35 525 LINE SMOOTH",
"35 458 OFFCURVE",
"37 400 OFFCURVE",
"40 353 CURVE",
"41 293 LINE SMOOTH",
"42 242 OFFCURVE",
"43 204 OFFCURVE",
"43 179 CURVE SMOOTH",
"43 172 OFFCURVE",
"43 165 OFFCURVE",
"42 158 CURVE",
"42 131 OFFCURVE",
"41 111 OFFCURVE",
"40 98 CURVE",
"40 73 LINE SMOOTH",
"40 30 OFFCURVE",
"55 7 OFFCURVE",
"90 -8 CURVE",
"123 -20 OFFCURVE",
"156 -24 OFFCURVE",
"251 -24 CURVE SMOOTH"
);
},
{
closed = 1;
nodes = (
"373 399 OFFCURVE",
"371 400 OFFCURVE",
"371 403 CURVE SMOOTH",
"371 409 LINE SMOOTH",
"371 416 OFFCURVE",
"371 422 OFFCURVE",
"371 436 CURVE SMOOTH",
"371 462 OFFCURVE",
"373 513 OFFCURVE",
"411 513 CURVE SMOOTH",
"457 513 OFFCURVE",
"500 507 OFFCURVE",
"500 464 CURVE SMOOTH",
"500 460 OFFCURVE",
"499 458 OFFCURVE",
"496 458 CURVE",
"489 454 LINE",
"479 449 LINE",
"476 448 OFFCURVE",
"471 442 OFFCURVE",
"463 437 CURVE",
"454 430 OFFCURVE",
"445 425 OFFCURVE",
"436 422 CURVE",
"423 414 OFFCURVE",
"405 409 OFFCURVE",
"390 402 CURVE",
"385 400 OFFCURVE",
"381 399 OFFCURVE",
"379 399 CURVE SMOOTH"
);
},
{
closed = 1;
nodes = (
"343 153 OFFCURVE",
"365 222 OFFCURVE",
"367 243 CURVE SMOOTH",
"368 252 OFFCURVE",
"369 256 OFFCURVE",
"375 256 CURVE SMOOTH",
"393 256 OFFCURVE",
"405 255 OFFCURVE",
"434 254 CURVE",
"454 252 OFFCURVE",
"454 252 OFFCURVE",
"474 252 CURVE",
"485 251 OFFCURVE",
"490 249 OFFCURVE",
"489 234 CURVE",
"489 175 OFFCURVE",
"449 153 OFFCURVE",
"395 153 CURVE SMOOTH",
"392 153 LINE SMOOTH"
);
}
);
width = 817;
}
);
note = B;
unicode = 0042;
},
{
glyphname = C;
lastChange = "2017-08-01 16:21:56 +0000";
layers = (
{
background = {
paths = (
{
closed = 0;
nodes = (
"1376 328 LINE SMOOTH",
"1376 451 OFFCURVE",
"1427 493 OFFCURVE",
"1511 493 CURVE SMOOTH",
"1521 493 OFFCURVE",
"1534 492 OFFCURVE",
"1550 489 CURVE SMOOTH",
"1567 486 OFFCURVE",
"1594 480 OFFCURVE",
"1631 471 CURVE",
"1662 462 LINE",
"1666 461 OFFCURVE",
"1670 462 OFFCURVE",
"1671 467 CURVE SMOOTH",
"1706 623 LINE SMOOTH",
"1707 627 OFFCURVE",
"1706 631 OFFCURVE",
"1702 633 CURVE SMOOTH",
"1613 674 OFFCURVE",
"1527 695 OFFCURVE",
"1444 695 CURVE SMOOTH",
"1328 695 OFFCURVE",
"1227 662 OFFCURVE",
"1154 601 CURVE SMOOTH",
"1079 538 OFFCURVE",
"1038 446 OFFCURVE",
"1038 333 CURVE SMOOTH"
);
},
{
closed = 0;
nodes = (
"1038 332 LINE SMOOTH",
"1038 219 OFFCURVE",
"1079 119 OFFCURVE",
"1154 56 CURVE SMOOTH",
"1227 -5 OFFCURVE",
"1328 -38 OFFCURVE",
"1444 -38 CURVE SMOOTH",
"1527 -38 OFFCURVE",
"1614 -20 OFFCURVE",
"1702 24 CURVE SMOOTH",
"1706 26 OFFCURVE",
"1707 30 OFFCURVE",
"1706 34 CURVE SMOOTH",
"1671 190 LINE SMOOTH",
"1670 195 OFFCURVE",
"1666 196 OFFCURVE",
"1662 195 CURVE",
"1631 186 LINE",
"1594 177 OFFCURVE",
"1567 171 OFFCURVE",
"1550 168 CURVE SMOOTH",
"1534 165 OFFCURVE",
"1521 164 OFFCURVE",
"1511 164 CURVE SMOOTH",
"1427 164 OFFCURVE",
"1376 206 OFFCURVE",
"1376 329 CURVE SMOOTH"
);
},
{
closed = 1;
nodes = (
"630 -24 OFFCURVE",
"735 6 OFFCURVE",
"787 58 CURVE SMOOTH",
"788 59 OFFCURVE",
"789 61 OFFCURVE",
"789 64 CURVE",
"779 213 LINE",
"779 219 OFFCURVE",
"773 221 OFFCURVE",
"769 218 CURVE",
"708 186 OFFCURVE",
"685 154 OFFCURVE",
"604 154 CURVE SMOOTH",
"533 154 OFFCURVE",
"443 162 OFFCURVE",
"443 337 CURVE SMOOTH",
"443 471 OFFCURVE",
"537 503 OFFCURVE",
"615 499 CURVE SMOOTH",
"636 498 OFFCURVE",
"677 491 OFFCURVE",
"706 481 CURVE SMOOTH",
"740 469 LINE",
"745 467 OFFCURVE",
"750 472 OFFCURVE",
"750 476 CURVE",
"797 625 LINE",
"797 629 OFFCURVE",
"796 631 OFFCURVE",
"793 633 CURVE SMOOTH",
"779 642 OFFCURVE",
"762 655 OFFCURVE",
"745 662 CURVE SMOOTH",
"726 670 OFFCURVE",
"714 670 OFFCURVE",
"708 673 CURVE",
"635 694 OFFCURVE",
"577 699 OFFCURVE",
"522 695 CURVE SMOOTH",
"508 694 LINE",
"496 694 LINE SMOOTH",
"374 694 OFFCURVE",
"226 621 OFFCURVE",
"168 513 CURVE SMOOTH",
"137 455 OFFCURVE",
"118 389 OFFCURVE",
"118 313 CURVE SMOOTH",
"118 248 OFFCURVE",
"128 193 OFFCURVE",
"147 146 CURVE SMOOTH",
"156 125 OFFCURVE",
"161 108 OFFCURVE",
"172 96 CURVE",
"187 73 OFFCURVE",
"213 52 OFFCURVE",
"236 33 CURVE",
"247 25 OFFCURVE",
"266 14 OFFCURVE",
"275 11 CURVE SMOOTH",
"398 -30 OFFCURVE",
"466 -24 OFFCURVE",
"558 -24 CURVE SMOOTH"
);
}
);
};
layerId = "CBDECE4A-293B-4E5C-B714-A3FD26C7130D";
paths = (
{
closed = 1;
nodes = (
"523 2 OFFCURVE",
"523 2 OFFCURVE",
"524 2 CURVE",
"523 2 LINE SMOOTH"
);
},
{
closed = 1;
nodes = (
"524 2 OFFCURVE",
"524 2 OFFCURVE",
"524 2 CURVE SMOOTH"
);
},
{
closed = 1;
nodes = (
"598 184 OFFCURVE",
"574 183 OFFCURVE",
"549 180 CURVE SMOOTH",
"506 175 LINE SMOOTH",
"424 165 OFFCURVE",
"354 213 OFFCURVE",
"354 320 CURVE SMOOTH",
"354 437 OFFCURVE",
"434 484 OFFCURVE",
"519 484 CURVE",
"519 484 OFFCURVE",
"520 484 OFFCURVE",
"520 485 CURVE",
"544 486 OFFCURVE",
"532 484 OFFCURVE",
"553 484 CURVE SMOOTH",
"567 484 LINE",
"651 472 LINE",
"668 484 OFFCURVE",
"672 501 OFFCURVE",
"672 534 CURVE SMOOTH",
"672 552 OFFCURVE",
"672 582 OFFCURVE",
"669 598 CURVE",
"668 608 OFFCURVE",
"667 619 OFFCURVE",
"667 630 CURVE",
"665 650 LINE",
"662 650 LINE SMOOTH",
"660 650 OFFCURVE",
"657 651 OFFCURVE",
"654 654 CURVE",
"652 655 OFFCURVE",
"651 658 OFFCURVE",
"650 660 CURVE",
"647 661 OFFCURVE",
"646 662 OFFCURVE",
"645 662 CURVE SMOOTH",
"636 662 OFFCURVE",
"619 667 OFFCURVE",
"608 669 CURVE SMOOTH",
"575 674 LINE",
"566 675 OFFCURVE",
"558 678 OFFCURVE",
"550 678 CURVE",
"491 685 OFFCURVE",
"484 689 OFFCURVE",
"452 689 CURVE SMOOTH",
"335 689 OFFCURVE",
"204 657 OFFCURVE",
"130 600 CURVE SMOOTH",
"53 540 OFFCURVE",
"15 460 OFFCURVE",
"15 322 CURVE SMOOTH",
"15 198 OFFCURVE",
"56 110 OFFCURVE",
"130 50 CURVE SMOOTH",
"203 -9 OFFCURVE",
"293 -41 OFFCURVE",
"411 -41 CURVE SMOOTH",
"506 -41 OFFCURVE",
"616 -35 OFFCURVE",
"687 39 CURVE",
"687 86 OFFCURVE",
"682 138 OFFCURVE",
"662 194 CURVE",
"662 197 LINE",
"661 206 OFFCURVE",
"657 211 OFFCURVE",
"649 214 CURVE"
);
}
);
width = 702;
}
);
note = C;
unicode = 0043;
},
{
glyphname = Ccedilla;
lastChange = "2017-07-18 17:32:00 +0000";
layers = (
{
layerId = "CBDECE4A-293B-4E5C-B714-A3FD26C7130D";
paths = (
{
closed = 1;
nodes = (
"329 -2 LINE",
"318 -68 LINE",
"316 -108 LINE",
"329 -102 OFFCURVE",
"343 -99 OFFCURVE",
"358 -99 CURVE SMOOTH",
"397 -99 OFFCURVE",
"421 -118 OFFCURVE",
"421 -153 CURVE SMOOTH",
"421 -186 OFFCURVE",
"401 -219 OFFCURVE",
"356 -219 CURVE SMOOTH",
"331 -219 OFFCURVE",
"308 -214 OFFCURVE",
"287 -205 CURVE",
"286 -206 OFFCURVE",
"285 -209 OFFCURVE",
"283 -214 CURVE SMOOTH",
"281 -219 OFFCURVE",
"279 -226 OFFCURVE",
"276 -233 CURVE",
"266 -288 LINE",
"272 -295 OFFCURVE",
"281 -301 OFFCURVE",
"292 -305 CURVE SMOOTH",
"315 -313 OFFCURVE",
"336 -318 OFFCURVE",
"356 -318 CURVE SMOOTH",
"373 -318 LINE SMOOTH",
"542 -318 OFFCURVE",
"596 -251 OFFCURVE",
"596 -164 CURVE SMOOTH",
"596 -105 OFFCURVE",
"544 -55 OFFCURVE",
"431 -38 CURVE",
"436 -14 LINE"
);
},
{
closed = 1;
nodes = (
"420 -20 OFFCURVE",
"420 -20 OFFCURVE",
"421 -20 CURVE",
"420 -20 LINE SMOOTH"
);
},
{
closed = 1;
nodes = (
"421 -20 OFFCURVE",
"421 -20 OFFCURVE",
"421 -20 CURVE SMOOTH"
);
},
{
closed = 1;
nodes = (
"608 203 OFFCURVE",
"584 200 OFFCURVE",
"559 197 CURVE SMOOTH",
"505 190 LINE",
"489 189 LINE",
"489 189 LINE",
"478 189 LINE SMOOTH",
"405 189 OFFCURVE",
"363 230 OFFCURVE",
"363 338 CURVE SMOOTH",
"363 455 OFFCURVE",
"444 501 OFFCURVE",
"528 501 CURVE",
"528 501 OFFCURVE",
"529 501 OFFCURVE",
"529 502 CURVE",
"555 505 OFFCURVE",
"542 501 OFFCURVE",
"564 501 CURVE SMOOTH",
"578 501 LINE",
"661 490 LINE",
"678 501 OFFCURVE",
"682 520 OFFCURVE",
"682 552 CURVE SMOOTH",
"682 570 OFFCURVE",
"681 600 OFFCURVE",
"679 616 CURVE",
"677 627 OFFCURVE",
"676 637 OFFCURVE",
"676 647 CURVE",
"674 667 LINE",
"672 667 LINE SMOOTH",
"669 667 OFFCURVE",
"667 668 OFFCURVE",
"664 673 CURVE",
"663 674 OFFCURVE",
"661 676 OFFCURVE",
"660 678 CURVE",
"658 680 OFFCURVE",
"657 681 OFFCURVE",
"656 681 CURVE SMOOTH",
"645 681 OFFCURVE",
"629 685 OFFCURVE",
"616 687 CURVE SMOOTH",
"586 692 LINE",
"575 693 OFFCURVE",
"567 695 OFFCURVE",
"561 696 CURVE",
"502 703 OFFCURVE",
"494 707 OFFCURVE",
"461 707 CURVE SMOOTH",
"345 707 OFFCURVE",
"214 675 OFFCURVE",
"141 617 CURVE SMOOTH",
"66 557 OFFCURVE",
"25 469 OFFCURVE",
"25 332 CURVE SMOOTH",
"25 341 LINE SMOOTH",
"25 223 OFFCURVE",
"66 128 OFFCURVE",
"141 68 CURVE SMOOTH",
"214 10 OFFCURVE",
"304 -22 OFFCURVE",
"420 -22 CURVE SMOOTH",
"515 -22 OFFCURVE",
"626 -17 OFFCURVE",
"697 58 CURVE",
"696 104 OFFCURVE",
"692 156 OFFCURVE",
"672 212 CURVE",
"672 215 LINE",
"671 223 OFFCURVE",
"666 228 OFFCURVE",
"659 232 CURVE"
);
}
);
width = 717;
}
);
note = Ccedilla;
unicode = 00C7;
},
{
glyphname = D;
lastChange = "2017-06-26 18:01:42 +0000";
layers = (
{
layerId = "CBDECE4A-293B-4E5C-B714-A3FD26C7130D";
paths = (
{
closed = 1;
nodes = (
"517 -2 OFFCURVE",
"624 24 OFFCURVE",
"692 83 CURVE SMOOTH",
"760 142 OFFCURVE",
"790 233 OFFCURVE",
"790 373 CURVE SMOOTH",
"790 447 OFFCURVE",
"774 509 OFFCURVE",
"741 560 CURVE SMOOTH",
"686 644 OFFCURVE",
"595 673 OFFCURVE",
"512 673 CURVE SMOOTH",
"488 673 OFFCURVE",
"455 672 OFFCURVE",
"414 671 CURVE SMOOTH",
"377 670 LINE SMOOTH",
"349 669 OFFCURVE",
"310 669 OFFCURVE",
"260 669 CURVE SMOOTH",
"227 669 OFFCURVE",
"199 669 OFFCURVE",
"177 670 CURVE",
"61 671 LINE SMOOTH",
"49 671 OFFCURVE",
"35 657 OFFCURVE",
"35 645 CURVE SMOOTH",
"35 425 LINE SMOOTH",
"35 352 OFFCURVE",
"37 283 OFFCURVE",
"38 218 CURVE SMOOTH",
"39 173 OFFCURVE",
"40 121 OFFCURVE",
"40 63 CURVE SMOOTH",
"40 46 OFFCURVE",
"42 32 OFFCURVE",
"45 23 CURVE",
"48 8 OFFCURVE",
"56 1 OFFCURVE",
"67 1 CURVE SMOOTH",
"220 0 LINE",
"352 -1 LINE SMOOTH"
);
},
{
closed = 1;
nodes = (
"377 300 OFFCURVE",
"378 324 OFFCURVE",
"379 357 CURVE SMOOTH",
"380 381 LINE SMOOTH",
"381 402 OFFCURVE",
"382 418 OFFCURVE",
"382 429 CURVE SMOOTH",
"383 549 LINE",
"390 552 OFFCURVE",
"393 553 OFFCURVE",
"394 554 CURVE",
"398 555 OFFCURVE",
"410 559 OFFCURVE",
"425 559 CURVE SMOOTH",
"432 559 OFFCURVE",
"441 554 OFFCURVE",
"449 545 CURVE",
"470 517 OFFCURVE",
"479 429 OFFCURVE",
"479 394 CURVE SMOOTH",
"479 375 LINE SMOOTH",
"479 347 OFFCURVE",
"477 314 OFFCURVE",
"473 275 CURVE",
"458 184 OFFCURVE",
"444 139 OFFCURVE",
"425 120 CURVE",
"424 119 OFFCURVE",
"421 119 OFFCURVE",
"420 118 CURVE",
"417 117 OFFCURVE",
"414 116 OFFCURVE",
"410 115 CURVE",
"399 114 OFFCURVE",
"390 113 OFFCURVE",
"383 113 CURVE SMOOTH",
"377 113 OFFCURVE",
"374 113 OFFCURVE",
"370 114 CURVE",
"376 285 LINE SMOOTH"
);
}
);
width = 815;
}
);
note = D;
unicode = 0044;
},
{
glyphname = Eth;
lastChange = "2017-08-01 16:28:02 +0000";
layers = (
{
layerId = "CBDECE4A-293B-4E5C-B714-A3FD26C7130D";
paths = (
{
closed = 1;
nodes = (
"547 1 OFFCURVE",
"651 27 OFFCURVE",
"721 82 CURVE SMOOTH",
"793 139 OFFCURVE",
"820 232 OFFCURVE",
"820 373 CURVE SMOOTH",
"820 446 OFFCURVE",
"804 509 OFFCURVE",
"772 562 CURVE SMOOTH",
"721 646 OFFCURVE",
"623 673 OFFCURVE",
"543 673 CURVE SMOOTH",
"518 673 OFFCURVE",
"484 672 OFFCURVE",
"444 671 CURVE SMOOTH",
"407 670 LINE SMOOTH",
"379 669 OFFCURVE",
"340 670 OFFCURVE",
"290 670 CURVE SMOOTH",
"257 670 OFFCURVE",
"228 670 OFFCURVE",
"208 670 CURVE",
"91 671 LINE SMOOTH",
"79 671 OFFCURVE",
"63 658 OFFCURVE",
"63 645 CURVE SMOOTH",
"63 424 LINE SMOOTH",
"63 354 OFFCURVE",
"69 283 OFFCURVE",
"70 218 CURVE SMOOTH",
"71 174 OFFCURVE",
"70 121 OFFCURVE",
"70 63 CURVE SMOOTH",
"70 46 OFFCURVE",
"71 31 OFFCURVE",
"74 21 CURVE",
"79 7 OFFCURVE",
"87 2 OFFCURVE",
"97 2 CURVE SMOOTH",
"249 1 LINE",
"379 1 LINE SMOOTH"
);
},
{
closed = 1;
nodes = (
"407 301 OFFCURVE",
"408 323 OFFCURVE",
"409 356 CURVE SMOOTH",
"410 381 LINE SMOOTH",
"411 402 OFFCURVE",
"412 418 OFFCURVE",
"412 429 CURVE SMOOTH",
"412 549 LINE",
"420 553 OFFCURVE",
"422 553 OFFCURVE",
"424 554 CURVE",
"426 555 OFFCURVE",
"438 561 OFFCURVE",
"455 561 CURVE SMOOTH",
"464 561 OFFCURVE",
"471 554 OFFCURVE",
"479 544 CURVE",
"499 517 OFFCURVE",
"509 429 OFFCURVE",
"509 394 CURVE SMOOTH",
"509 375 LINE SMOOTH",
"509 349 OFFCURVE",
"505 313 OFFCURVE",
"503 275 CURVE",
"489 185 OFFCURVE",
"473 140 OFFCURVE",
"455 121 CURVE",
"453 120 OFFCURVE",
"450 120 OFFCURVE",
"449 118 CURVE",
"447 118 OFFCURVE",
"444 116 OFFCURVE",
"438 116 CURVE",
"428 114 OFFCURVE",
"420 113 OFFCURVE",
"412 113 CURVE SMOOTH",
"407 113 OFFCURVE",
"404 113 OFFCURVE",
"399 114 CURVE",
"406 284 LINE SMOOTH"
);
},
{
closed = 1;
nodes = (
"56 408 LINE",
"32 408 LINE SMOOTH",
"19 408 OFFCURVE",
"5 398 OFFCURVE",
"5 394 CURVE SMOOTH",
"5 368 OFFCURVE",
"5 354 OFFCURVE",
"6 340 CURVE",
"6 284 LINE SMOOTH",
"6 279 OFFCURVE",
"15 274 OFFCURVE",
"29 271 CURVE",
"36 271 OFFCURVE",
"56 269 OFFCURVE",
"79 269 CURVE",
"79 408 LINE"
);
},
{
closed = 1;
nodes = (
"401 271 LINE",
"413 271 OFFCURVE",
"425 272 OFFCURVE",
"434 274 CURVE",
"448 275 OFFCURVE",
"460 283 OFFCURVE",
"460 300 CURVE SMOOTH",
"460 323 LINE",
"460 328 OFFCURVE",
"461 335 OFFCURVE",
"461 342 CURVE SMOOTH",
"464 394 LINE SMOOTH",
"464 397 OFFCURVE",
"455 406 OFFCURVE",
"443 406 CURVE",
"425 407 OFFCURVE",
"412 408 OFFCURVE",
"402 408 CURVE",
"401 408 LINE"
);
}
);
width = 835;
}
);
note = Eth;
unicode = 00D0;
},
{
glyphname = E;
lastChange = "2017-08-01 16:28:43 +0000";
layers = (
{
layerId = "CBDECE4A-293B-4E5C-B714-A3FD26C7130D";
paths = (
{
closed = 1;
nodes = (
"295 -5 OFFCURVE",
"398 -4 OFFCURVE",
"469 -4 CURVE SMOOTH",
"500 -4 OFFCURVE",
"525 -4 OFFCURVE",
"540 -3 CURVE SMOOTH",
"568 -1 OFFCURVE",
"593 0 OFFCURVE",
"611 0 CURVE SMOOTH",
"622 0 OFFCURVE",
"630 7 OFFCURVE",
"630 21 CURVE SMOOTH",
"630 26 OFFCURVE",
"629 31 OFFCURVE",
"628 36 CURVE SMOOTH",
"620 76 OFFCURVE",
"607 138 OFFCURVE",
"600 151 CURVE",
"596 157 OFFCURVE",
"595 158 OFFCURVE",
"592 158 CURVE SMOOTH",
"552 158 OFFCURVE",
"519 157 OFFCURVE",
"497 156 CURVE",
"475 154 OFFCURVE",
"443 153 OFFCURVE",
"350 153 CURVE",
"350 170 OFFCURVE",
"350 184 OFFCURVE",
"352 192 CURVE",
"354 247 OFFCURVE",
"349 243 OFFCURVE",
"370 248 CURVE SMOOTH",
"374 249 OFFCURVE",
"386 249 OFFCURVE",
"405 249 CURVE",
"415 248 OFFCURVE",
"437 248 OFFCURVE",
"470 248 CURVE SMOOTH",
"510 248 OFFCURVE",
"537 249 OFFCURVE",
"552 253 CURVE",
"575 254 OFFCURVE",
"586 262 OFFCURVE",
"586 273 CURVE SMOOTH",
"586 276 LINE",
"584 375 LINE",
"582 384 OFFCURVE",
"579 395 OFFCURVE",
"561 397 CURVE",
"551 397 LINE",
"517 401 OFFCURVE",
"487 403 OFFCURVE",
"462 403 CURVE SMOOTH",
"373 403 LINE SMOOTH",
"359 403 OFFCURVE",
"355 406 OFFCURVE",
"355 424 CURVE",
"357 458 LINE SMOOTH",
"358 470 OFFCURVE",
"363 470 OFFCURVE",
"367 479 CURVE",
"370 486 OFFCURVE",
"373 490 OFFCURVE",
"375 490 CURVE",
"388 491 OFFCURVE",
"405 492 OFFCURVE",
"427 495 CURVE",
"479 499 LINE",
"521 505 OFFCURVE",
"555 506 OFFCURVE",
"584 506 CURVE SMOOTH",
"587 506 OFFCURVE",
"592 506 OFFCURVE",
"595 505 CURVE",
"602 505 OFFCURVE",
"605 508 OFFCURVE",
"606 514 CURVE",
"606 515 OFFCURVE",
"606 518 OFFCURVE",
"607 522 CURVE",
"607 525 OFFCURVE",
"607 529 OFFCURVE",
"606 533 CURVE",
"603 548 OFFCURVE",
"600 560 OFFCURVE",
"598 590 CURVE",
"595 609 OFFCURVE",
"593 621 OFFCURVE",
"591 627 CURVE",
"586 651 OFFCURVE",
"579 664 OFFCURVE",
"568 664 CURVE",
"539 666 OFFCURVE",
"498 670 OFFCURVE",
"442 670 CURVE SMOOTH",
"398 670 LINE SMOOTH",
"357 670 OFFCURVE",
"299 669 OFFCURVE",
"220 668 CURVE",
"195 665 OFFCURVE",
"155 665 OFFCURVE",
"101 665 CURVE SMOOTH",
"79 665 OFFCURVE",
"61 664 OFFCURVE",
"52 663 CURVE",
"34 657 OFFCURVE",
"27 652 OFFCURVE",
"27 645 CURVE",
"20 566 OFFCURVE",
"20 472 OFFCURVE",
"20 389 CURVE SMOOTH",
"20 343 OFFCURVE",
"20 314 OFFCURVE",
"21 300 CURVE SMOOTH",
"22 286 OFFCURVE",
"20 266 OFFCURVE",
"22 241 CURVE SMOOTH",
"24 211 LINE SMOOTH",
"25 192 OFFCURVE",
"25 178 OFFCURVE",
"25 166 CURVE",
"27 124 LINE",
"28 112 OFFCURVE",
"31 98 OFFCURVE",
"31 77 CURVE",
"33 49 OFFCURVE",
"34 26 OFFCURVE",
"34 9 CURVE",
"33 8 OFFCURVE",
"34 8 OFFCURVE",
"34 7 CURVE",
"35 6 OFFCURVE",
"39 4 OFFCURVE",
"42 4 CURVE",
"63 -1 LINE",
"72 -3 OFFCURVE",
"80 -3 OFFCURVE",
"87 -4 CURVE SMOOTH",
"94 -5 OFFCURVE",
"99 -5 OFFCURVE",
"102 -5 CURVE SMOOTH",
"260 -5 LINE SMOOTH"
);
}
);
width = 650;
}
);
note = E;
unicode = 0045;
},
{
glyphname = Eogonek;
lastChange = "2017-07-18 18:36:35 +0000";
layers = (
{
layerId = "CBDECE4A-293B-4E5C-B714-A3FD26C7130D";
paths = (
{
closed = 1;
nodes = (
"575 -151 OFFCURVE",
"546 -157 OFFCURVE",
"519 -157 CURVE SMOOTH",
"510 -157 OFFCURVE",
"504 -157 OFFCURVE",
"499 -158 CURVE",
"491 -161 OFFCURVE",
"481 -156 OFFCURVE",
"478 -155 CURVE",
"463 -151 OFFCURVE",
"455 -143 OFFCURVE",
"455 -123 CURVE SMOOTH",
"455 -115 OFFCURVE",
"459 -103 OFFCURVE",
"468 -87 CURVE SMOOTH",
"481 -64 OFFCURVE",
"495 -46 OFFCURVE",
"514 -30 CURVE",
"551 8 LINE",
"564 8 OFFCURVE",
"325 4 OFFCURVE",
"385 4 CURVE",
"368 -7 LINE SMOOTH",
"365 -9 OFFCURVE",
"359 -12 OFFCURVE",
"352 -16 CURVE",
"344 -21 OFFCURVE",
"338 -25 OFFCURVE",
"333 -30 CURVE",
"277 -67 OFFCURVE",
"250 -100 OFFCURVE",
"250 -160 CURVE SMOOTH",
"250 -172 OFFCURVE",
"252 -183 OFFCURVE",
"255 -192 CURVE",
"266 -217 OFFCURVE",
"289 -237 OFFCURVE",
"326 -250 CURVE SMOOTH",
"365 -264 OFFCURVE",
"420 -273 OFFCURVE",
"493 -273 CURVE",
"503 -271 LINE",
"505 -270 OFFCURVE",
"508 -270 OFFCURVE",
"511 -270 CURVE SMOOTH",
"514 -270 OFFCURVE",
"518 -269 OFFCURVE",
"523 -268 CURVE",
"534 -267 OFFCURVE",
"550 -262 OFFCURVE",
"570 -255 CURVE",
"583 -248 OFFCURVE",
"595 -242 OFFCURVE",
"596 -237 CURVE SMOOTH",
"613 -155 LINE",
"613 -150 LINE SMOOTH",
"613 -145 OFFCURVE",
"611 -142 OFFCURVE",
"606 -140 CURVE"
);
},
{
closed = 1;
nodes = (
"310 1 OFFCURVE",
"413 1 OFFCURVE",
"483 1 CURVE SMOOTH",
"516 1 OFFCURVE",
"540 2 OFFCURVE",
"555 3 CURVE SMOOTH",
"584 5 OFFCURVE",
"608 5 OFFCURVE",
"625 5 CURVE SMOOTH",
"638 5 OFFCURVE",
"645 12 OFFCURVE",
"645 26 CURVE SMOOTH",
"645 31 OFFCURVE",
"644 36 OFFCURVE",
"643 41 CURVE SMOOTH",
"635 81 OFFCURVE",
"622 143 OFFCURVE",
"615 156 CURVE",
"612 161 OFFCURVE",
"610 163 OFFCURVE",
"607 163 CURVE SMOOTH",
"566 163 OFFCURVE",
"534 162 OFFCURVE",
"511 160 CURVE",
"490 159 OFFCURVE",
"458 158 OFFCURVE",
"365 158 CURVE",
"365 175 OFFCURVE",
"365 188 OFFCURVE",
"366 196 CURVE",
"370 252 OFFCURVE",
"364 248 OFFCURVE",
"385 253 CURVE SMOOTH",
"389 254 OFFCURVE",
"401 254 OFFCURVE",
"420 254 CURVE",
"430 253 OFFCURVE",
"452 253 OFFCURVE",
"486 253 CURVE SMOOTH",
"525 253 OFFCURVE",
"552 255 OFFCURVE",
"566 258 CURVE",
"590 260 OFFCURVE",
"602 267 OFFCURVE",
"602 278 CURVE SMOOTH",
"602 281 LINE",
"598 380 LINE",
"597 389 OFFCURVE",
"594 399 OFFCURVE",
"577 403 CURVE",
"565 403 LINE",
"532 406 OFFCURVE",
"502 408 OFFCURVE",
"476 408 CURVE SMOOTH",
"387 408 LINE SMOOTH",
"374 408 OFFCURVE",
"371 411 OFFCURVE",
"371 428 CURVE",
"373 463 LINE SMOOTH",
"374 474 OFFCURVE",
"379 474 OFFCURVE",
"382 483 CURVE",
"385 491 OFFCURVE",
"388 495 OFFCURVE",
"390 495 CURVE",
"403 496 OFFCURVE",
"420 497 OFFCURVE",
"442 500 CURVE",
"495 504 LINE",
"536 509 OFFCURVE",
"570 511 OFFCURVE",
"598 511 CURVE SMOOTH",
"603 511 OFFCURVE",
"607 511 OFFCURVE",
"610 510 CURVE",
"617 510 OFFCURVE",
"620 513 OFFCURVE",
"621 520 CURVE",
"621 521 OFFCURVE",
"621 523 OFFCURVE",
"622 527 CURVE",
"622 530 OFFCURVE",
"622 534 OFFCURVE",
"621 538 CURVE",
"618 553 OFFCURVE",
"615 565 OFFCURVE",
"613 595 CURVE",
"610 614 OFFCURVE",
"608 626 OFFCURVE",
"606 631 CURVE",
"601 656 OFFCURVE",
"594 669 OFFCURVE",
"583 669 CURVE",
"554 672 OFFCURVE",
"512 674 OFFCURVE",
"457 675 CURVE SMOOTH",
"413 675 LINE SMOOTH",
"373 675 OFFCURVE",
"314 674 OFFCURVE",
"235 673 CURVE",
"210 671 OFFCURVE",
"170 670 OFFCURVE",
"116 670 CURVE SMOOTH",
"93 670 OFFCURVE",
"76 669 OFFCURVE",
"66 668 CURVE",
"50 663 OFFCURVE",
"42 657 OFFCURVE",
"42 650 CURVE",
"35 570 OFFCURVE",
"35 477 OFFCURVE",
"35 393 CURVE SMOOTH",
"35 348 OFFCURVE",
"35 319 OFFCURVE",
"36 305 CURVE SMOOTH",
"37 291 OFFCURVE",
"37 271 OFFCURVE",
"37 246 CURVE SMOOTH",
"38 215 LINE SMOOTH",
"39 198 OFFCURVE",
"40 183 OFFCURVE",
"40 172 CURVE",
"42 129 LINE",
"43 118 OFFCURVE",
"45 103 OFFCURVE",
"45 83 CURVE",
"47 54 OFFCURVE",
"48 31 OFFCURVE",
"48 14 CURVE",
"47 13 OFFCURVE",
"48 13 OFFCURVE",
"50 12 CURVE",
"51 11 OFFCURVE",
"54 10 OFFCURVE",
"57 9 CURVE",
"78 4 LINE",
"87 3 OFFCURVE",
"95 3 OFFCURVE",
"102 2 CURVE SMOOTH",
"109 1 OFFCURVE",
"114 0 OFFCURVE",
"117 0 CURVE SMOOTH",
"275 0 LINE SMOOTH"
);
}
);
width = 693;
}
);
note = Eogonek;
unicode = 0118;
},
{
glyphname = F;
lastChange = "2017-06-28 15:06:02 +0000";
layers = (
{
layerId = "CBDECE4A-293B-4E5C-B714-A3FD26C7130D";
paths = (
{
closed = 1;
nodes = (
"161 -3 LINE",
"165 -2 OFFCURVE",
"168 -1 OFFCURVE",
"171 0 CURVE",
"173 0 OFFCURVE",
"174 0 OFFCURVE",
"175 1 CURVE",
"258 -9 LINE",
"261 -6 OFFCURVE",
"265 -5 OFFCURVE",
"266 -5 CURVE SMOOTH",
"269 -5 OFFCURVE",
"270 -5 OFFCURVE",
"270 -6 CURVE",
"273 -7 LINE",
"274 -7 OFFCURVE",
"276 -7 OFFCURVE",
"277 -8 CURVE SMOOTH",
"278 -9 OFFCURVE",
"280 -9 OFFCURVE",
"283 -9 CURVE SMOOTH",
"285 -9 LINE",
"295 -9 LINE",
"298 -8 OFFCURVE",
"305 -7 OFFCURVE",
"316 -7 CURVE",
"339 -6 OFFCURVE",
"356 -5 OFFCURVE",
"368 -5 CURVE",
"374 10 OFFCURVE",
"377 33 OFFCURVE",
"378 65 CURVE SMOOTH",
"379 87 OFFCURVE",
"380 128 OFFCURVE",
"380 189 CURVE",
"383 195 OFFCURVE",
"387 198 OFFCURVE",
"390 199 CURVE",
"394 202 OFFCURVE",
"401 203 OFFCURVE",
"412 203 CURVE SMOOTH",
"426 203 LINE",
"434 204 OFFCURVE",
"440 205 OFFCURVE",
"445 206 CURVE",
"448 207 OFFCURVE",
"455 208 OFFCURVE",
"465 208 CURVE SMOOTH",
"485 208 LINE",
"530 211 LINE",
"535 212 OFFCURVE",
"540 213 OFFCURVE",
"545 213 CURVE SMOOTH",
"553 213 OFFCURVE",
"557 216 OFFCURVE",
"560 228 CURVE",
"560 255 LINE",
"560 313 LINE SMOOTH",
"560 346 OFFCURVE",
"559 367 OFFCURVE",
"556 375 CURVE SMOOTH",
"552 386 OFFCURVE",
"546 389 OFFCURVE",
"530 389 CURVE SMOOTH",
"410 389 LINE",
"407 392 OFFCURVE",
"406 395 OFFCURVE",
"406 398 CURVE",
"407 400 LINE",
"407 444 OFFCURVE",
"412 511 OFFCURVE",
"413 520 CURVE",
"413 523 OFFCURVE",
"413 525 OFFCURVE",
"414 526 CURVE SMOOTH",
"415 527 OFFCURVE",
"415 529 OFFCURVE",
"415 530 CURVE",
"416 530 OFFCURVE",
"417 530 OFFCURVE",
"418 531 CURVE SMOOTH",
"419 532 OFFCURVE",
"420 532 OFFCURVE",
"422 533 CURVE",
"424 532 OFFCURVE",
"432 532 OFFCURVE",
"446 532 CURVE SMOOTH",
"460 532 OFFCURVE",
"470 533 OFFCURVE",
"477 535 CURVE",
"507 536 LINE",
"552 536 LINE",
"566 536 LINE SMOOTH",
"582 536 OFFCURVE",
"602 535 OFFCURVE",
"602 550 CURVE SMOOTH",
"602 573 OFFCURVE",
"602 590 OFFCURVE",
"603 601 CURVE SMOOTH",
"604 613 OFFCURVE",
"605 631 OFFCURVE",
"605 635 CURVE SMOOTH",
"605 640 OFFCURVE",
"604 647 OFFCURVE",
"603 656 CURVE",
"602 684 OFFCURVE",
"593 698 OFFCURVE",
"578 698 CURVE",
"575 696 OFFCURVE",
"573 695 OFFCURVE",
"570 695 CURVE SMOOTH",
"563 695 OFFCURVE",
"557 696 OFFCURVE",
"552 697 CURVE",
"549 698 OFFCURVE",
"545 698 OFFCURVE",
"540 698 CURVE SMOOTH",
"511 698 OFFCURVE",
"491 699 OFFCURVE",
"478 700 CURVE",
"375 700 LINE",
"364 701 OFFCURVE",
"348 701 OFFCURVE",
"328 701 CURVE SMOOTH",
"318 701 LINE",
"300 701 LINE SMOOTH",
"291 701 OFFCURVE",
"284 701 OFFCURVE",
"280 702 CURVE",
"270 702 LINE SMOOTH",
"236 702 OFFCURVE",
"194 701 OFFCURVE",
"143 700 CURVE SMOOTH",
"105 699 OFFCURVE",
"74 697 OFFCURVE",
"51 697 CURVE",
"48 698 LINE",
"42 698 LINE",
"37 697 OFFCURVE",
"35 693 OFFCURVE",
"35 687 CURVE SMOOTH",
"35 339 LINE",
"36 328 OFFCURVE",
"40 298 OFFCURVE",
"40 275 CURVE",
"42 250 OFFCURVE",
"44 206 OFFCURVE",
"47 145 CURVE",
"47 124 OFFCURVE",
"48 93 OFFCURVE",
"50 71 CURVE",
"50 49 LINE SMOOTH",
"50 30 OFFCURVE",
"52 -11 OFFCURVE",
"80 -11 CURVE",
"100 -10 LINE"
);
}
);
width = 600;
}
);
note = F;
unicode = 0046;
},
{
glyphname = G;
lastChange = "2017-07-31 16:45:52 +0000";
layers = (
{
layerId = "CBDECE4A-293B-4E5C-B714-A3FD26C7130D";
paths = (
{
closed = 1;
nodes = (
"718 313 OFFCURVE",
"714 319 OFFCURVE",
"699 322 CURVE SMOOTH",
"694 323 OFFCURVE",
"684 323 OFFCURVE",
"668 323 CURVE",
"660 322 OFFCURVE",
"641 322 OFFCURVE",
"614 322 CURVE SMOOTH",
"522 322 LINE SMOOTH",
"514 322 OFFCURVE",
"509 322 OFFCURVE",
"507 323 CURVE",
"498 323 OFFCURVE",
"495 320 OFFCURVE",
"495 310 CURVE SMOOTH",
"495 287 LINE SMOOTH",
"495 263 OFFCURVE",
"495 226 OFFCURVE",
"496 214 CURVE SMOOTH",
"497 195 LINE SMOOTH",
"498 178 OFFCURVE",
"499 173 OFFCURVE",
"499 164 CURVE",
"478 148 OFFCURVE",
"479 143 OFFCURVE",
"465 143 CURVE SMOOTH",
"441 143 OFFCURVE",
"415 155 OFFCURVE",
"403 175 CURVE",
"388 192 OFFCURVE",
"379 225 OFFCURVE",
"379 306 CURVE SMOOTH",
"379 407 OFFCURVE",
"424 436 OFFCURVE",
"497 436 CURVE SMOOTH",
"498 436 OFFCURVE",
"498 437 OFFCURVE",
"499 437 CURVE",
"499 436 LINE",
"499 436 OFFCURVE",
"499 436 OFFCURVE",
"499 437 CURVE",
"522 439 OFFCURVE",
"536 435 OFFCURVE",
"555 435 CURVE SMOOTH",
"567 435 LINE",
"667 417 LINE",
"681 428 OFFCURVE",
"685 444 OFFCURVE",
"685 471 CURVE SMOOTH",
"685 487 OFFCURVE",
"684 502 OFFCURVE",
"682 530 CURVE",
"680 539 OFFCURVE",
"680 548 OFFCURVE",
"680 557 CURVE",
"678 574 LINE",
"676 574 LINE SMOOTH",
"673 574 OFFCURVE",
"672 576 OFFCURVE",
"669 580 CURVE",
"668 581 OFFCURVE",
"667 582 OFFCURVE",
"666 584 CURVE",
"664 585 OFFCURVE",
"663 586 OFFCURVE",
"662 586 CURVE SMOOTH",
"653 586 OFFCURVE",
"639 588 OFFCURVE",
"619 592 CURVE SMOOTH",
"593 597 LINE",
"583 598 OFFCURVE",
"576 599 OFFCURVE",
"571 599 CURVE",
"519 606 OFFCURVE",
"486 609 OFFCURVE",
"458 609 CURVE",
"350 609 OFFCURVE",
"247 580 OFFCURVE",
"186 531 CURVE SMOOTH",
"121 479 OFFCURVE",
"85 404 OFFCURVE",
"85 310 CURVE SMOOTH",
"85 143 OFFCURVE",
"148 47 OFFCURVE",
"229 10 CURVE",
"264 -9 OFFCURVE",
"305 -20 OFFCURVE",
"351 -20 CURVE SMOOTH",
"437 -20 OFFCURVE",
"493 12 OFFCURVE",
"504 68 CURVE",
"505 56 OFFCURVE",
"506 46 OFFCURVE",
"507 40 CURVE",
"508 26 OFFCURVE",
"510 14 OFFCURVE",
"514 4 CURVE",
"516 0 OFFCURVE",
"518 -1 OFFCURVE",
"520 -1 CURVE SMOOTH",
"523 -1 OFFCURVE",
"526 -1 OFFCURVE",
"527 0 CURVE",
"638 0 LINE",
"639 0 LINE",
"639 1 OFFCURVE",
"639 1 OFFCURVE",
"640 2 CURVE",
"643 2 LINE",
"643 1 OFFCURVE",
"643 1 OFFCURVE",
"644 0 CURVE SMOOTH",
"645 -1 OFFCURVE",
"647 0 OFFCURVE",
"653 0 CURVE SMOOTH",
"655 0 LINE",
"674 0 LINE",
"682 1 OFFCURVE",
"694 2 OFFCURVE",
"708 2 CURVE",
"714 14 OFFCURVE",
"716 48 OFFCURVE",
"716 118 CURVE SMOOTH",
"716 122 LINE SMOOTH",
"716 129 OFFCURVE",
"718 135 OFFCURVE",
"719 139 CURVE",
"719 290 LINE",
"718 292 OFFCURVE",
"718 295 OFFCURVE",
"718 297 CURVE SMOOTH"
);
}
);
width = 679;
}
);
note = G;
unicode = 0047;
},
{
glyphname = H;
lastChange = "2017-07-31 16:36:41 +0000";
layers = (
{
layerId = "CBDECE4A-293B-4E5C-B714-A3FD26C7130D";
paths = (
{
closed = 1;
nodes = (
"308 -9 OFFCURVE",
"340 -9 OFFCURVE",
"386 -6 CURVE SMOOTH",
"400 -5 LINE",
"418 1 OFFCURVE",
"418 44 OFFCURVE",
"418 54 CURVE",
"418 74 OFFCURVE",
"418 120 OFFCURVE",
"418 194 CURVE SMOOTH",
"418 204 OFFCURVE",
"421 209 OFFCURVE",
"426 209 CURVE SMOOTH",
"434 209 LINE SMOOTH",
"439 209 OFFCURVE",
"453 208 OFFCURVE",
"475 207 CURVE",
"485 206 OFFCURVE",
"497 206 OFFCURVE",
"513 206 CURVE SMOOTH",
"520 206 LINE",
"529 42 LINE",
"530 34 OFFCURVE",
"531 28 OFFCURVE",
"532 23 CURVE SMOOTH",
"534 13 OFFCURVE",
"535 6 OFFCURVE",
"538 -1 CURVE",
"540 -3 OFFCURVE",
"542 -5 OFFCURVE",
"544 -5 CURVE SMOOTH",
"788 -5 LINE SMOOTH",
"796 -5 OFFCURVE",
"808 9 OFFCURVE",
"808 15 CURVE",
"830 343 LINE",
"830 344 OFFCURVE",
"830 345 OFFCURVE",
"830 346 CURVE",
"829 349 OFFCURVE",
"827 354 OFFCURVE",
"827 361 CURVE SMOOTH",
"827 384 OFFCURVE",
"828 414 OFFCURVE",
"830 452 CURVE",
"831 491 OFFCURVE",
"832 522 OFFCURVE",
"832 545 CURVE SMOOTH",
"832 562 OFFCURVE",
"830 570 OFFCURVE",
"823 575 CURVE",
"819 578 OFFCURVE",
"809 580 OFFCURVE",
"795 580 CURVE SMOOTH",
"771 580 LINE",
"756 579 OFFCURVE",
"724 578 OFFCURVE",
"677 578 CURVE SMOOTH",
"626 578 LINE",
"615 577 OFFCURVE",
"600 576 OFFCURVE",
"584 576 CURVE",
"560 576 LINE",
"546 576 OFFCURVE",
"538 575 OFFCURVE",
"535 574 CURVE",
"530 574 OFFCURVE",
"526 571 OFFCURVE",
"522 567 CURVE",
"519 560 OFFCURVE",
"518 544 OFFCURVE",
"518 526 CURVE SMOOTH",
"518 519 LINE",
"517 482 LINE SMOOTH",
"517 473 OFFCURVE",
"517 465 OFFCURVE",
"516 459 CURVE",
"515 399 LINE",
"505 399 OFFCURVE",
"497 400 OFFCURVE",
"491 401 CURVE",
"481 401 OFFCURVE",
"457 402 OFFCURVE",
"442 405 CURVE",
"418 405 LINE",
"419 441 LINE",
"420 449 OFFCURVE",
"420 460 OFFCURVE",
"420 476 CURVE SMOOTH",
"420 480 OFFCURVE",
"420 482 OFFCURVE",
"419 485 CURVE SMOOTH",
"418 488 OFFCURVE",
"418 489 OFFCURVE",
"418 492 CURVE",
"418 503 LINE",
"420 517 LINE",
"420 520 OFFCURVE",
"420 521 OFFCURVE",
"421 524 CURVE SMOOTH",
"422 527 OFFCURVE",
"422 528 OFFCURVE",
"422 531 CURVE SMOOTH",
"422 540 LINE SMOOTH",
"422 571 OFFCURVE",
"411 578 OFFCURVE",
"380 578 CURVE SMOOTH",
"367 578 LINE",
"334 578 LINE",
"293 578 LINE",
"283 579 OFFCURVE",
"268 579 OFFCURVE",
"252 579 CURVE SMOOTH",
"236 579 OFFCURVE",
"225 579 OFFCURVE",
"219 580 CURVE",
"204 580 LINE",
"153 580 LINE SMOOTH",
"141 580 OFFCURVE",
"133 577 OFFCURVE",
"127 572 CURVE",
"125 570 OFFCURVE",
"122 568 OFFCURVE",
"119 566 CURVE",
"116 563 OFFCURVE",
"113 561 OFFCURVE",
"112 560 CURVE",
"112 560 OFFCURVE",
"112 559 OFFCURVE",
"112 557 CURVE",
"111 554 OFFCURVE",
"111 551 OFFCURVE",
"111 545 CURVE",
"110 528 OFFCURVE",
"109 512 OFFCURVE",
"109 494 CURVE",
"109 488 OFFCURVE",
"109 479 OFFCURVE",
"109 467 CURVE",
"107 421 LINE",
"107 403 OFFCURVE",
"107 389 OFFCURVE",
"106 378 CURVE SMOOTH",
"105 368 OFFCURVE",
"105 361 OFFCURVE",
"105 356 CURVE SMOOTH",
"105 338 LINE",
"122 25 LINE",
"122 19 OFFCURVE",
"127 2 OFFCURVE",
"132 2 CURVE",
"174 -9 OFFCURVE",
"215 -10 OFFCURVE",
"290 -10 CURVE"
);
}
);
width = 889;
}
);
note = H;
unicode = 0048;
},
{
glyphname = Hbar;
lastChange = "2017-06-13 13:46:05 +0000";
layers = (
{
layerId = "CBDECE4A-293B-4E5C-B714-A3FD26C7130D";
paths = (
{
closed = 1;
nodes = (
"285 -5 OFFCURVE",
"321 -4 OFFCURVE",
"373 -1 CURVE SMOOTH",
"388 0 LINE",
"408 7 OFFCURVE",
"408 55 OFFCURVE",
"408 66 CURVE",
"409 89 OFFCURVE",
"409 71 OFFCURVE",
"409 154 CURVE SMOOTH",
"409 165 OFFCURVE",
"412 171 OFFCURVE",
"418 171 CURVE SMOOTH",
"426 171 LINE SMOOTH",
"432 171 OFFCURVE",
"448 170 OFFCURVE",
"473 169 CURVE",
"484 168 OFFCURVE",
"498 168 OFFCURVE",
"516 168 CURVE SMOOTH",
"523 168 LINE",
"534 53 LINE",
"535 44 OFFCURVE",
"536 37 OFFCURVE",
"537 32 CURVE SMOOTH",
"539 20 OFFCURVE",
"540 12 OFFCURVE",
"544 5 CURVE",
"546 2 OFFCURVE",
"548 0 OFFCURVE",
"550 0 CURVE SMOOTH",
"825 0 LINE SMOOTH",
"834 0 OFFCURVE",
"848 16 OFFCURVE",
"848 23 CURVE",
"873 333 LINE",
"873 334 OFFCURVE",
"873 335 OFFCURVE",
"872 337 CURVE",
"871 340 OFFCURVE",
"869 345 OFFCURVE",
"869 353 CURVE SMOOTH",
"870 408 LINE",
"871 415 OFFCURVE",
"871 477 OFFCURVE",
"871 493 CURVE",
"884 493 LINE SMOOTH",
"905 493 OFFCURVE",
"921 496 OFFCURVE",
"930 503 CURVE",
"935 506 OFFCURVE",
"938 512 OFFCURVE",
"938 521 CURVE SMOOTH",
"938 533 LINE SMOOTH",
"938 534 OFFCURVE",
"938 536 OFFCURVE",
"937 537 CURVE SMOOTH",
"936 538 OFFCURVE",
"936 540 OFFCURVE",
"936 541 CURVE SMOOTH",
"936 544 OFFCURVE",
"936 545 OFFCURVE",
"935 546 CURVE",
"934 553 LINE",
"934 556 OFFCURVE",
"934 559 OFFCURVE",
"933 560 CURVE",
"933 573 LINE SMOOTH",
"933 574 OFFCURVE",
"932 576 OFFCURVE",
"930 577 CURVE",
"927 578 OFFCURVE",
"924 578 OFFCURVE",
"920 579 CURVE",
"918 579 OFFCURVE",
"914 580 OFFCURVE",
"908 581 CURVE SMOOTH",
"902 582 OFFCURVE",
"896 583 OFFCURVE",
"890 583 CURVE SMOOTH",
"883 583 OFFCURVE",
"878 583 OFFCURVE",
"875 584 CURVE",
"875 631 LINE SMOOTH",
"875 650 OFFCURVE",
"873 659 OFFCURVE",
"865 664 CURVE",
"860 668 OFFCURVE",
"849 670 OFFCURVE",
"833 670 CURVE SMOOTH",
"806 670 LINE",
"789 669 OFFCURVE",
"753 668 OFFCURVE",
"700 668 CURVE SMOOTH",
"643 668 LINE",
"630 667 OFFCURVE",
"614 666 OFFCURVE",
"595 666 CURVE",
"568 665 LINE",
"553 665 OFFCURVE",
"544 664 OFFCURVE",
"540 663 CURVE",
"535 663 OFFCURVE",
"530 660 OFFCURVE",
"526 655 CURVE",
"522 648 OFFCURVE",
"521 610 OFFCURVE",
"521 589 CURVE SMOOTH",
"521 586 LINE",
"443 586 LINE",
"411 586 LINE",
"411 591 OFFCURVE",
"412 594 OFFCURVE",
"413 595 CURVE",
"413 605 LINE SMOOTH",
"413 640 OFFCURVE",
"401 668 OFFCURVE",
"366 668 CURVE SMOOTH",
"351 668 LINE",
"314 668 LINE",
"268 668 LINE",
"256 669 OFFCURVE",
"240 669 OFFCURVE",
"221 669 CURVE SMOOTH",
"203 669 OFFCURVE",
"191 669 OFFCURVE",
"184 670 CURVE",
"168 670 LINE",
"110 670 LINE SMOOTH",
"97 670 OFFCURVE",
"88 667 OFFCURVE",
"81 661 CURVE",
"78 659 OFFCURVE",
"75 657 OFFCURVE",
"72 654 CURVE",
"68 651 OFFCURVE",
"65 649 OFFCURVE",
"64 648 CURVE",
"63 645 OFFCURVE",
"63 640 OFFCURVE",
"63 633 CURVE",
"62 606 OFFCURVE",
"62 597 OFFCURVE",
"61 588 CURVE",
"53 588 LINE SMOOTH",
"50 588 OFFCURVE",
"47 588 OFFCURVE",
"44 587 CURVE SMOOTH",
"41 586 OFFCURVE",
"38 586 OFFCURVE",
"35 586 CURVE",
"19 583 OFFCURVE",
"9 581 OFFCURVE",
"5 579 CURVE",
"4 579 OFFCURVE",
"0 578 OFFCURVE",
"0 575 CURVE SMOOTH",
"0 567 OFFCURVE",
"0 561 OFFCURVE",
"1 558 CURVE",
"1 543 LINE SMOOTH",
"1 536 OFFCURVE",
"2 531 OFFCURVE",
"3 526 CURVE",
"3 508 LINE SMOOTH",
"3 504 OFFCURVE",
"8 501 OFFCURVE",
"18 499 CURVE",
"45 496 OFFCURVE",
"58 495 OFFCURVE",
"58 495 CURVE",
"59 495 LINE",
"58 490 OFFCURVE",
"58 482 OFFCURVE",
"58 471 CURVE SMOOTH",
"58 375 LINE",
"57 367 OFFCURVE",
"56 358 OFFCURVE",
"56 348 CURVE SMOOTH",
"56 328 LINE",
"75 34 LINE",
"75 27 OFFCURVE",
"81 8 OFFCURVE",
"86 8 CURVE",
"134 -5 OFFCURVE",
"180 -6 OFFCURVE",
"264 -6 CURVE"
);
},
{
closed = 1;
nodes = (
"506 396 OFFCURVE",
"497 397 OFFCURVE",
"491 398 CURVE",
"480 398 OFFCURVE",
"452 399 OFFCURVE",
"435 403 CURVE",
"409 403 LINE",
"410 494 LINE",
"410 495 LINE",
"419 495 LINE",
"464 495 LINE SMOOTH",
"487 495 OFFCURVE",
"505 495 OFFCURVE",
"518 494 CURVE",
"518 396 LINE"
);
}
);
width = 930;
}
);
note = Hbar;
unicode = 0126;
},
{
glyphname = I;
lastChange = "2017-07-31 16:38:03 +0000";
layers = (
{
layerId = "CBDECE4A-293B-4E5C-B714-A3FD26C7130D";
paths = (
{
closed = 1;
nodes = (
"163 -18 LINE",
"189 -13 LINE",
"203 -13 LINE",
"278 -13 LINE",
"279 -10 OFFCURVE",
"281 -9 OFFCURVE",
"284 -9 CURVE",
"298 -10 LINE",
"310 -12 OFFCURVE",
"318 -13 OFFCURVE",
"321 -13 CURVE",
"322 -12 OFFCURVE",
"324 -11 OFFCURVE",
"328 -10 CURVE",
"333 -10 LINE",
"333 -9 OFFCURVE",
"334 -9 OFFCURVE",
"335 -9 CURVE",
"338 -10 LINE",
"339 -11 LINE",
"348 -11 OFFCURVE",
"354 -9 OFFCURVE",
"358 -4 CURVE SMOOTH",
"365 5 OFFCURVE",
"366 21 OFFCURVE",
"366 49 CURVE",
"365 60 OFFCURVE",
"366 73 OFFCURVE",
"368 90 CURVE",
"371 128 LINE",
"371 323 LINE SMOOTH",
"371 337 OFFCURVE",
"372 356 OFFCURVE",
"374 380 CURVE",
"375 386 OFFCURVE",
"376 391 OFFCURVE",
"377 395 CURVE",
"378 398 OFFCURVE",
"378 400 OFFCURVE",
"378 401 CURVE",
"375 558 LINE",
"375 563 OFFCURVE",
"370 574 OFFCURVE",
"355 573 CURVE",
"301 573 LINE SMOOTH",
"300 573 OFFCURVE",
"298 574 OFFCURVE",
"295 575 CURVE SMOOTH",
"292 576 OFFCURVE",
"290 576 OFFCURVE",
"288 576 CURVE SMOOTH",
"288 576 OFFCURVE",
"288 576 OFFCURVE",
"287 576 CURVE SMOOTH",
"286 576 OFFCURVE",
"286 576 OFFCURVE",
"285 575 CURVE",
"280 575 OFFCURVE",
"275 574 OFFCURVE",
"274 573 CURVE",
"270 573 LINE SMOOTH",
"267 573 OFFCURVE",
"265 574 OFFCURVE",
"263 576 CURVE",
"219 576 LINE",
"215 573 LINE",
"194 573 OFFCURVE",
"178 574 OFFCURVE",
"168 575 CURVE",
"163 575 OFFCURVE",
"156 576 OFFCURVE",
"147 577 CURVE SMOOTH",
"138 578 OFFCURVE",
"129 578 OFFCURVE",
"121 578 CURVE SMOOTH",
"97 578 OFFCURVE",
"75 574 OFFCURVE",
"75 563 CURVE SMOOTH",
"75 320 LINE SMOOTH",
"75 292 OFFCURVE",
"76 249 OFFCURVE",
"81 190 CURVE SMOOTH",
"84 152 LINE SMOOTH",
"87 110 OFFCURVE",
"88 79 OFFCURVE",
"89 60 CURVE",
"90 57 OFFCURVE",
"90 51 OFFCURVE",
"90 40 CURVE SMOOTH",
"90 24 OFFCURVE",
"92 -23 OFFCURVE",
"116 -23 CURVE",
"139 -21 LINE"
);
}
);
width = 435;
}
);
note = I;
unicode = 0049;
},
{
glyphname = IJ;
lastChange = "2017-06-18 16:42:20 +0000";
layers = (
{
layerId = "CBDECE4A-293B-4E5C-B714-A3FD26C7130D";
paths = (
{
closed = 1;
nodes = (
"150 280 LINE",
"188 280 LINE SMOOTH",
"198 280 OFFCURVE",
"203 280 OFFCURVE",
"204 281 CURVE",
"296 281 LINE SMOOTH",
"297 281 OFFCURVE",
"301 283 OFFCURVE",
"304 284 CURVE",
"313 283 LINE",
"313 282 OFFCURVE",
"315 281 OFFCURVE",
"320 281 CURVE SMOOTH",
"323 281 LINE",
"333 281 LINE SMOOTH",
"342 281 OFFCURVE",
"349 282 OFFCURVE",
"354 283 CURVE",
"406 284 LINE",
"411 290 OFFCURVE",
"413 297 OFFCURVE",
"413 304 CURVE",
"416 323 OFFCURVE",
"418 346 OFFCURVE",
"418 375 CURVE SMOOTH",
"418 420 LINE",
"419 431 LINE",
"419 441 OFFCURVE",
"419 450 OFFCURVE",
"420 458 CURVE",
"421 490 LINE",
"422 497 OFFCURVE",
"423 508 OFFCURVE",
"423 523 CURVE SMOOTH",
"423 535 OFFCURVE",
"423 543 OFFCURVE",
"424 548 CURVE",
"424 559 LINE",
"424 625 LINE SMOOTH",
"424 640 OFFCURVE",
"424 650 OFFCURVE",
"423 655 CURVE",
"420 663 OFFCURVE",
"413 675 OFFCURVE",
"403 677 CURVE SMOOTH",
"398 678 OFFCURVE",
"389 678 OFFCURVE",
"378 678 CURVE SMOOTH",
"377 678 OFFCURVE",
"375 678 OFFCURVE",
"374 677 CURVE SMOOTH",
"373 676 OFFCURVE",
"371 676 OFFCURVE",
"370 676 CURVE SMOOTH",
"366 676 OFFCURVE",
"363 677 OFFCURVE",
"361 678 CURVE",
"344 681 OFFCURVE",
"306 682 OFFCURVE",
"289 679 CURVE",
"279 678 LINE",
"179 678 LINE",
"80 678 LINE SMOOTH",
"68 678 OFFCURVE",
"63 677 OFFCURVE",
"63 670 CURVE SMOOTH",
"63 519 LINE",
"61 490 OFFCURVE",
"60 461 OFFCURVE",
"60 431 CURVE SMOOTH",
"59 344 LINE",
"59 335 LINE SMOOTH",
"59 329 OFFCURVE",
"59 324 OFFCURVE",
"60 321 CURVE",
"63 298 OFFCURVE",
"68 279 OFFCURVE",
"88 279 CURVE",
"113 280 LINE"
);
},
{
closed = 1;
nodes = (
"602 -29 OFFCURVE",
"647 -25 OFFCURVE",
"704 -8 CURVE",
"811 29 OFFCURVE",
"870 80 OFFCURVE",
"890 173 CURVE SMOOTH",
"898 209 OFFCURVE",
"899 241 OFFCURVE",
"899 294 CURVE",
"900 303 LINE",
"900 323 LINE SMOOTH",
"900 333 OFFCURVE",
"900 341 OFFCURVE",
"901 346 CURVE",
"902 349 OFFCURVE",
"902 353 OFFCURVE",
"902 358 CURVE SMOOTH",
"902 364 OFFCURVE",
"902 368 OFFCURVE",
"903 370 CURVE",
"903 388 LINE",
"903 396 LINE",
"903 591 LINE SMOOTH",
"903 612 OFFCURVE",
"902 626 OFFCURVE",
"901 633 CURVE",
"900 644 OFFCURVE",
"897 651 OFFCURVE",
"893 655 CURVE",
"886 664 OFFCURVE",
"876 666 OFFCURVE",
"856 666 CURVE SMOOTH",
"758 666 LINE",
"658 666 LINE",
"554 665 LINE SMOOTH",
"545 665 OFFCURVE",
"541 662 OFFCURVE",
"541 655 CURVE SMOOTH",
"543 449 LINE",
"543 406 LINE SMOOTH",
"543 400 OFFCURVE",
"543 393 OFFCURVE",
"542 386 CURVE SMOOTH",
"541 378 OFFCURVE",
"537 297 OFFCURVE",
"537 278 CURVE SMOOTH",
"537 261 OFFCURVE",
"537 249 OFFCURVE",
"536 243 CURVE SMOOTH",
"535 238 OFFCURVE",
"533 231 OFFCURVE",
"530 223 CURVE",
"529 216 OFFCURVE",
"526 209 OFFCURVE",
"521 200 CURVE",
"512 181 OFFCURVE",
"498 171 OFFCURVE",
"463 171 CURVE SMOOTH",
"414 171 OFFCURVE",
"377 175 OFFCURVE",
"289 200 CURVE",
"289 200 OFFCURVE",
"282 205 OFFCURVE",
"281 196 CURVE SMOOTH",
"280 190 OFFCURVE",
"278 185 OFFCURVE",
"278 181 CURVE",
"276 169 OFFCURVE",
"275 157 OFFCURVE",
"275 146 CURVE",
"274 137 OFFCURVE",
"273 130 OFFCURVE",
"273 125 CURVE",
"270 117 OFFCURVE",
"267 41 OFFCURVE",
"267 33 CURVE SMOOTH",
"267 30 OFFCURVE",
"267 29 OFFCURVE",
"268 28 CURVE",
"323 8 LINE SMOOTH",
"392 -17 OFFCURVE",
"470 -29 OFFCURVE",
"557 -29 CURVE SMOOTH"
);
}
);
width = 951;
}
);
note = IJ;
unicode = 0132;
},
{
glyphname = Iogonek;
lastChange = "2017-06-11 23:28:21 +0000";
layers = (
{
layerId = "CBDECE4A-293B-4E5C-B714-A3FD26C7130D";
paths = (
{
closed = 1;
nodes = (
"421 642 OFFCURVE",
"418 649 OFFCURVE",
"415 655 CURVE",
"408 664 OFFCURVE",
"398 666 OFFCURVE",
"378 666 CURVE",
"374 665 OFFCURVE",
"371 664 OFFCURVE",
"370 664 CURVE",
"368 663 OFFCURVE",
"365 663 OFFCURVE",
"361 666 CURVE",
"336 670 OFFCURVE",
"306 671 OFFCURVE",
"289 668 CURVE",
"287 668 OFFCURVE",
"285 668 OFFCURVE",
"284 667 CURVE SMOOTH",
"283 666 OFFCURVE",
"281 666 OFFCURVE",
"279 666 CURVE SMOOTH",
"179 666 LINE",
"156 665 OFFCURVE",
"122 665 OFFCURVE",
"76 665 CURVE SMOOTH",
"67 665 OFFCURVE",
"63 662 OFFCURVE",
"63 655 CURVE SMOOTH",
"63 339 LINE",
"61 298 OFFCURVE",
"60 257 OFFCURVE",
"60 215 CURVE SMOOTH",
"59 91 LINE",
"59 78 LINE SMOOTH",
"59 70 OFFCURVE",
"59 64 OFFCURVE",
"60 59 CURVE",
"61 44 OFFCURVE",
"63 31 OFFCURVE",
"66 19 CURVE",
"70 7 OFFCURVE",
"79 -1 OFFCURVE",
"88 -1 CURVE",
"113 0 LINE",
"150 0 LINE",
"181 0 LINE",
"166 -10 LINE SMOOTH",
"163 -12 OFFCURVE",
"157 -15 OFFCURVE",
"150 -19 CURVE",
"142 -24 OFFCURVE",
"136 -28 OFFCURVE",
"131 -33 CURVE",
"75 -70 OFFCURVE",
"48 -103 OFFCURVE",
"48 -163 CURVE SMOOTH",
"48 -175 OFFCURVE",
"50 -186 OFFCURVE",
"53 -195 CURVE",
"64 -220 OFFCURVE",
"87 -240 OFFCURVE",
"124 -253 CURVE SMOOTH",
"163 -268 OFFCURVE",
"218 -276 OFFCURVE",
"291 -276 CURVE",
"301 -274 LINE",
"303 -273 OFFCURVE",
"306 -273 OFFCURVE",
"309 -273 CURVE SMOOTH",
"312 -273 OFFCURVE",
"316 -272 OFFCURVE",
"321 -271 CURVE",
"332 -270 OFFCURVE",
"348 -265 OFFCURVE",
"368 -258 CURVE",
"381 -251 OFFCURVE",
"393 -245 OFFCURVE",
"394 -240 CURVE SMOOTH",
"411 -158 LINE",
"411 -153 LINE SMOOTH",
"411 -148 OFFCURVE",
"409 -145 OFFCURVE",
"404 -143 CURVE",
"373 -154 OFFCURVE",
"344 -160 OFFCURVE",
"317 -160 CURVE SMOOTH",
"308 -160 OFFCURVE",
"302 -160 OFFCURVE",
"297 -161 CURVE",
"289 -164 OFFCURVE",
"279 -159 OFFCURVE",
"276 -158 CURVE",
"261 -154 OFFCURVE",
"253 -146 OFFCURVE",
"253 -126 CURVE SMOOTH",
"253 -118 OFFCURVE",
"257 -106 OFFCURVE",
"266 -90 CURVE SMOOTH",
"279 -67 OFFCURVE",
"293 -49 OFFCURVE",
"312 -33 CURVE",
"347 3 LINE",
"354 3 LINE",
"377 4 OFFCURVE",
"394 5 OFFCURVE",
"406 5 CURVE",
"411 14 OFFCURVE",
"413 24 OFFCURVE",
"413 33 CURVE",
"416 61 OFFCURVE",
"418 95 OFFCURVE",
"418 135 CURVE SMOOTH",
"418 199 LINE",
"419 215 LINE",
"419 230 OFFCURVE",
"419 243 OFFCURVE",
"420 253 CURVE",
"421 298 LINE",
"422 309 OFFCURVE",
"423 325 OFFCURVE",
"423 345 CURVE SMOOTH",
"423 364 OFFCURVE",
"423 376 OFFCURVE",
"424 381 CURVE",
"424 396 LINE",
"424 591 LINE SMOOTH",
"424 612 OFFCURVE",
"424 626 OFFCURVE",
"423 633 CURVE"
);
}
);
width = 480;
}
);
note = Iogonek;
unicode = 012E;
},
{
glyphname = J;
lastChange = "2017-07-31 17:08:54 +0000";
layers = (
{
layerId = "CBDECE4A-293B-4E5C-B714-A3FD26C7130D";
paths = (
{
closed = 1;
nodes = (
"285 -24 OFFCURVE",
"365 39 OFFCURVE",
"385 145 CURVE SMOOTH",
"391 176 OFFCURVE",
"392 203 OFFCURVE",
"392 249 CURVE",
"393 256 LINE",
"393 272 LINE SMOOTH",
"393 282 OFFCURVE",
"393 290 OFFCURVE",
"394 294 CURVE",
"395 297 OFFCURVE",
"395 300 OFFCURVE",
"395 303 CURVE",
"394 307 OFFCURVE",
"394 310 OFFCURVE",
"395 313 CURVE",
"395 315 OFFCURVE",
"395 318 OFFCURVE",
"395 321 CURVE SMOOTH",
"395 324 OFFCURVE",
"395 328 OFFCURVE",
"396 328 CURVE",
"396 337 LINE",
"396 513 LINE SMOOTH",
"396 519 OFFCURVE",
"394 530 OFFCURVE",
"394 546 CURVE SMOOTH",
"394 556 OFFCURVE",
"391 562 OFFCURVE",
"388 567 CURVE",
"381 574 OFFCURVE",
"372 576 OFFCURVE",
"355 576 CURVE SMOOTH",
"273 576 LINE",
"187 576 LINE",
"117 575 LINE SMOOTH",
"110 575 OFFCURVE",
"86 574 OFFCURVE",
"86 547 CURVE SMOOTH",
"87 450 LINE",
"87 412 LINE",
"85 334 OFFCURVE",
"84 286 OFFCURVE",
"84 259 CURVE SMOOTH",
"84 244 OFFCURVE",
"84 233 OFFCURVE",
"83 228 CURVE",
"83 228 OFFCURVE",
"81 221 OFFCURVE",
"79 210 CURVE SMOOTH",
"77 200 OFFCURVE",
"75 194 OFFCURVE",
"73 191 CURVE",
"68 174 OFFCURVE",
"56 165 OFFCURVE",
"45 165 CURVE SMOOTH",
"21 165 OFFCURVE",
"15 169 OFFCURVE",
"-48 191 CURVE",
"-56 197 OFFCURVE",
"-59 192 OFFCURVE",
"-59 191 CURVE",
"-60 190 OFFCURVE",
"-60 190 OFFCURVE",
"-60 188 CURVE SMOOTH",
"-60 186 OFFCURVE",
"-61 181 OFFCURVE",
"-61 174 CURVE",
"-65 156 OFFCURVE",
"-65 78 OFFCURVE",
"-65 62 CURVE",
"-66 57 OFFCURVE",
"-67 52 OFFCURVE",
"-68 45 CURVE SMOOTH",
"-70 26 LINE",
"-70 23 OFFCURVE",
"-70 23 OFFCURVE",
"-69 22 CURVE",
"-30 4 LINE SMOOTH",
"19 -19 OFFCURVE",
"39 -27 OFFCURVE",
"98 -27 CURVE SMOOTH",
"120 -27 OFFCURVE",
"141 -29 OFFCURVE",
"166 -26 CURVE"
);
}
);
width = 421;
}
);
note = J;
unicode = 004A;
},
{
glyphname = K;
lastChange = "2017-07-31 16:44:34 +0000";
layers = (
{
layerId = "CBDECE4A-293B-4E5C-B714-A3FD26C7130D";
paths = (
{
closed = 1;
nodes = (
"598 8 OFFCURVE",
"632 -33 OFFCURVE",
"635 -36 CURVE SMOOTH",
"648 -49 OFFCURVE",
"663 -50 OFFCURVE",
"677 -40 CURVE",
"700 -31 OFFCURVE",
"698 -25 OFFCURVE",
"710 -16 CURVE",
"736 9 LINE",
"747 16 OFFCURVE",
"744 21 OFFCURVE",
"755 28 CURVE SMOOTH",
"773 40 OFFCURVE",
"774 57 OFFCURVE",
"795 60 CURVE",
"806 65 OFFCURVE",
"809 76 OFFCURVE",
"820 87 CURVE",
"827 94 OFFCURVE",
"828 97 OFFCURVE",
"828 104 CURVE SMOOTH",
"828 109 OFFCURVE",
"824 115 OFFCURVE",
"817 124 CURVE",
"786 160 OFFCURVE",
"737 212 OFFCURVE",
"709 241 CURVE",
"681 267 OFFCURVE",
"676 279 OFFCURVE",
"654 296 CURVE",
"650 299 OFFCURVE",
"650 302 OFFCURVE",
"646 306 CURVE",
"671 326 LINE",
"684 338 LINE",
"687 341 OFFCURVE",
"689 344 OFFCURVE",
"690 344 CURVE",
"699 355 LINE",
"723 375 LINE",
"724 377 OFFCURVE",
"726 379 OFFCURVE",
"727 379 CURVE SMOOTH",
"728 379 OFFCURVE",
"729 381 OFFCURVE",
"730 381 CURVE",
"733 387 OFFCURVE",
"738 393 OFFCURVE",
"746 401 CURVE",
"779 432 LINE SMOOTH",
"799 451 OFFCURVE",
"822 473 OFFCURVE",
"818 481 CURVE SMOOTH",
"817 483 LINE",
"810 496 OFFCURVE",
"778 521 OFFCURVE",
"764 535 CURVE",
"748 552 OFFCURVE",
"732 559 OFFCURVE",
"716 571 CURVE",
"696 583 OFFCURVE",
"696 601 OFFCURVE",
"672 611 CURVE",
"681 600 OFFCURVE",
"655 618 OFFCURVE",
"659 618 CURVE",
"656 617 OFFCURVE",
"644 616 OFFCURVE",
"631 608 CURVE",
"596 575 OFFCURVE",
"549 529 OFFCURVE",
"519 498 CURVE SMOOTH",
"493 471 OFFCURVE",
"431 412 OFFCURVE",
"448 429 CURVE SMOOTH",
"450 431 OFFCURVE",
"444 426 OFFCURVE",
"444 425 CURVE",
"444 425 OFFCURVE",
"409 385 OFFCURVE",
"403 381 CURVE",
"396 378 OFFCURVE",
"407 411 OFFCURVE",
"398 411 CURVE",
"401 493 LINE",
"401 523 OFFCURVE",
"403 547 OFFCURVE",
"403 563 CURVE SMOOTH",
"403 576 LINE SMOOTH",
"403 583 OFFCURVE",
"403 586 OFFCURVE",
"401 588 CURVE",
"400 599 OFFCURVE",
"395 604 OFFCURVE",
"386 604 CURVE SMOOTH",
"357 604 LINE",
"307 604 LINE",
"242 604 LINE",
"138 604 LINE",
"118 604 LINE SMOOTH",
"109 604 OFFCURVE",
"101 603 OFFCURVE",
"96 601 CURVE",
"79 599 OFFCURVE",
"72 590 OFFCURVE",
"74 576 CURVE",
"74 567 LINE SMOOTH",
"74 559 OFFCURVE",
"74 554 OFFCURVE",
"75 549 CURVE",
"75 529 OFFCURVE",
"75 513 OFFCURVE",
"76 503 CURVE",
"76 484 LINE",
"76 470 LINE SMOOTH",
"76 449 OFFCURVE",
"75 435 OFFCURVE",
"74 424 CURVE",
"74 417 OFFCURVE",
"74 414 OFFCURVE",
"74 413 CURVE SMOOTH",
"74 412 OFFCURVE",
"74 410 OFFCURVE",
"74 408 CURVE SMOOTH",
"74 404 OFFCURVE",
"75 401 OFFCURVE",
"75 397 CURVE",
"76 378 LINE",
"76 357 OFFCURVE",
"76 341 OFFCURVE",
"74 333 CURVE",
"74 324 LINE SMOOTH",
"74 314 OFFCURVE",
"74 300 OFFCURVE",
"75 278 CURVE SMOOTH",
"76 255 LINE",
"79 224 OFFCURVE",
"81 201 OFFCURVE",
"81 187 CURVE SMOOTH",
"82 115 LINE SMOOTH",
"82 96 OFFCURVE",
"83 83 OFFCURVE",
"84 72 CURVE",
"84 37 LINE",
"85 29 OFFCURVE",
"87 19 OFFCURVE",
"85 9 CURVE SMOOTH",
"84 3 OFFCURVE",
"85 -1 OFFCURVE",
"86 -1 CURVE",
"90 -8 LINE",
"132 -12 LINE",
"138 -12 LINE",
"142 -13 OFFCURVE",
"147 -13 OFFCURVE",
"156 -13 CURVE SMOOTH",
"175 -13 LINE",
"190 -13 LINE",
"296 -13 LINE SMOOTH",
"312 -13 OFFCURVE",
"335 -13 OFFCURVE",
"368 -12 CURVE",
"374 -13 OFFCURVE",
"379 -13 OFFCURVE",
"382 -10 CURVE",
"386 -9 OFFCURVE",
"388 -6 OFFCURVE",
"388 0 CURVE SMOOTH",
"388 4 LINE",
"388 17 LINE",
"388 29 LINE",
"391 93 LINE",
"391 96 OFFCURVE",
"436 137 OFFCURVE",
"453 154 CURVE",
"474 137 LINE",
"478 134 OFFCURVE",
"482 128 OFFCURVE",
"487 123 CURVE SMOOTH",
"493 117 OFFCURVE",
"495 115 OFFCURVE",
"496 113 CURVE",
"571 26 LINE",
"571 25 OFFCURVE",
"574 23 OFFCURVE",
"578 20 CURVE",
"591 9 LINE"
);
}
);
width = 854;
}
);
note = K;
unicode = 004B;
},
{
glyphname = L;
lastChange = "2017-08-01 13:54:21 +0000";
layers = (
{
layerId = "CBDECE4A-293B-4E5C-B714-A3FD26C7130D";
paths = (
{
closed = 1;
nodes = (
"507 -7 OFFCURVE",
"519 -6 OFFCURVE",
"527 -4 CURVE",
"541 -3 OFFCURVE",
"553 3 OFFCURVE",
"553 12 CURVE SMOOTH",
"553 14 LINE",
"553 187 LINE SMOOTH",
"553 195 OFFCURVE",
"544 205 OFFCURVE",
"531 205 CURVE SMOOTH",
"497 205 OFFCURVE",
"473 205 OFFCURVE",
"456 204 CURVE",
"390 204 LINE SMOOTH",
"378 204 OFFCURVE",
"370 204 OFFCURVE",
"370 214 CURVE SMOOTH",
"370 225 LINE",
"370 281 LINE",
"370 345 LINE",
"370 442 LINE",
"369 448 LINE",
"369 450 OFFCURVE",
"368 455 OFFCURVE",
"368 462 CURVE",
"366 472 OFFCURVE",
"365 481 OFFCURVE",
"365 487 CURVE SMOOTH",
"365 492 OFFCURVE",
"366 498 OFFCURVE",
"368 507 CURVE",
"368 515 OFFCURVE",
"369 519 OFFCURVE",
"369 521 CURVE",
"370 528 LINE",
"370 572 OFFCURVE",
"350 574 OFFCURVE",
"327 574 CURVE SMOOTH",
"315 574 OFFCURVE",
"308 574 OFFCURVE",
"305 574 CURVE SMOOTH",
"256 574 LINE",
"246 575 OFFCURVE",
"232 575 OFFCURVE",
"212 575 CURVE SMOOTH",
"203 575 OFFCURVE",
"195 575 OFFCURVE",
"191 576 CURVE",
"156 577 OFFCURVE",
"124 578 OFFCURVE",
"94 578 CURVE SMOOTH",
"88 578 OFFCURVE",
"82 575 OFFCURVE",
"79 570 CURVE",
"73 560 OFFCURVE",
"70 546 OFFCURVE",
"70 529 CURVE SMOOTH",
"70 508 LINE",
"66 443 OFFCURVE",
"64 404 OFFCURVE",
"65 354 CURVE SMOOTH",
"66 305 LINE",
"66 218 LINE",
"66 19 LINE SMOOTH",
"66 8 OFFCURVE",
"78 -4 OFFCURVE",
"89 -4 CURVE SMOOTH",
"163 -5 LINE",
"176 -6 OFFCURVE",
"196 -6 OFFCURVE",
"223 -6 CURVE SMOOTH",
"251 -6 OFFCURVE",
"296 -7 OFFCURVE",
"358 -7 CURVE SMOOTH",
"490 -7 LINE SMOOTH"
);
}
);
width = 589;
}
);
note = L;
unicode = 004C;
},
{
glyphname = Ldot;
lastChange = "2017-06-11 23:28:21 +0000";
layers = (
{
layerId = "CBDECE4A-293B-4E5C-B714-A3FD26C7130D";
paths = (
{
closed = 1;
nodes = (
"547 0 OFFCURVE",
"560 1 OFFCURVE",
"569 3 CURVE",
"585 4 OFFCURVE",
"598 10 OFFCURVE",
"598 21 CURVE SMOOTH",
"598 23 LINE",
"598 214 LINE SMOOTH",
"598 223 OFFCURVE",
"588 234 OFFCURVE",
"573 234 CURVE SMOOTH",
"536 234 OFFCURVE",
"509 234 OFFCURVE",
"491 233 CURVE",
"418 233 LINE SMOOTH",
"405 233 OFFCURVE",
"396 233 OFFCURVE",
"396 244 CURVE SMOOTH",
"396 256 LINE",
"396 318 LINE",
"396 383 LINE",
"396 523 LINE",
"395 529 LINE",
"395 532 OFFCURVE",
"394 537 OFFCURVE",
"393 545 CURVE",
"391 556 OFFCURVE",
"390 566 OFFCURVE",
"390 573 CURVE SMOOTH",
"390 578 OFFCURVE",
"391 585 OFFCURVE",
"393 595 CURVE",
"394 603 OFFCURVE",
"395 608 OFFCURVE",
"395 610 CURVE",
"396 618 LINE",
"396 666 OFFCURVE",
"374 669 OFFCURVE",
"348 669 CURVE SMOOTH",
"335 669 OFFCURVE",
"327 669 OFFCURVE",
"324 669 CURVE SMOOTH",
"270 669 LINE",
"259 670 OFFCURVE",
"243 670 OFFCURVE",
"221 670 CURVE SMOOTH",
"211 670 OFFCURVE",
"203 670 OFFCURVE",
"198 671 CURVE",
"159 672 OFFCURVE",
"124 673 OFFCURVE",
"91 673 CURVE SMOOTH",
"84 673 OFFCURVE",
"78 670 OFFCURVE",
"75 664 CURVE",
"68 653 OFFCURVE",
"64 638 OFFCURVE",
"64 619 CURVE SMOOTH",
"64 596 LINE",
"60 524 OFFCURVE",
"59 481 OFFCURVE",
"59 426 CURVE SMOOTH",
"60 344 LINE",
"60 248 LINE",
"60 28 LINE SMOOTH",
"60 16 OFFCURVE",
"73 3 OFFCURVE",
"85 3 CURVE SMOOTH",
"167 2 LINE",
"182 1 OFFCURVE",
"204 1 OFFCURVE",
"233 1 CURVE SMOOTH",
"264 0 OFFCURVE",
"314 0 OFFCURVE",
"383 0 CURVE SMOOTH",
"528 0 LINE SMOOTH"
);
},
{
closed = 1;
nodes = (
"523 351 LINE",
"527 353 LINE",
"527 354 OFFCURVE",
"527 354 OFFCURVE",
"528 354 CURVE",
"533 353 LINE",
"534 352 OFFCURVE",
"536 351 OFFCURVE",
"539 351 CURVE",
"543 353 LINE",
"548 354 LINE",
"563 355 LINE",
"568 357 LINE",
"568 357 LINE",
"571 357 LINE",
"571 356 OFFCURVE",
"571 356 OFFCURVE",
"572 356 CURVE",
"572 356 OFFCURVE",
"572 356 OFFCURVE",
"572 356 CURVE",
"581 357 LINE",
"585 359 OFFCURVE",
"587 362 OFFCURVE",
"588 367 CURVE",
"591 375 LINE",
"591 441 LINE SMOOTH",
"591 448 OFFCURVE",
"591 454 OFFCURVE",
"591 457 CURVE",
"590 460 OFFCURVE",
"590 463 OFFCURVE",
"590 464 CURVE SMOOTH",
"590 473 LINE",
"590 479 LINE SMOOTH",
"590 484 OFFCURVE",
"590 487 OFFCURVE",
"591 490 CURVE",
"591 491 LINE SMOOTH",
"591 496 OFFCURVE",
"586 499 OFFCURVE",
"575 499 CURVE SMOOTH",
"566 499 LINE",
"557 499 LINE",
"552 499 LINE",
"545 499 LINE",
"537 499 LINE",
"530 499 LINE",
"510 499 LINE",
"507 498 OFFCURVE",
"501 497 OFFCURVE",
"494 497 CURVE SMOOTH",
"489 497 OFFCURVE",
"485 497 OFFCURVE",
"482 498 CURVE",
"478 499 OFFCURVE",
"474 499 OFFCURVE",
"470 499 CURVE SMOOTH",
"446 499 LINE SMOOTH",
"436 499 OFFCURVE",
"430 496 OFFCURVE",
"428 490 CURVE",
"428 471 LINE",
"427 460 OFFCURVE",
"426 452 OFFCURVE",
"426 446 CURVE",
"425 434 OFFCURVE",
"424 416 OFFCURVE",
"424 393 CURVE SMOOTH",
"424 376 OFFCURVE",
"424 366 OFFCURVE",
"425 362 CURVE",
"430 357 LINE",
"484 353 LINE",
"488 353 OFFCURVE",
"492 352 OFFCURVE",
"496 351 CURVE",
"507 351 LINE"
);
}
);
width = 625;
}
);
note = Ldot;
unicode = 013F;
},
{
glyphname = Lslash;
lastChange = "2017-06-13 13:43:49 +0000";
layers = (
{
layerId = "CBDECE4A-293B-4E5C-B714-A3FD26C7130D";
paths = (
{
closed = 1;
nodes = (
"588 0 OFFCURVE",
"601 1 OFFCURVE",
"610 3 CURVE",
"626 4 OFFCURVE",
"639 10 OFFCURVE",
"639 21 CURVE SMOOTH",
"639 23 LINE",
"639 214 LINE SMOOTH",
"639 223 OFFCURVE",
"627 234 OFFCURVE",
"614 234 CURVE SMOOTH",
"577 234 OFFCURVE",
"550 234 OFFCURVE",
"533 233 CURVE",
"458 233 LINE SMOOTH",
"445 233 OFFCURVE",
"438 232 OFFCURVE",
"438 244 CURVE SMOOTH",
"438 256 LINE",
"438 386 LINE",
"445 388 LINE",
"495 401 LINE",
"499 403 LINE",
"501 403 OFFCURVE",
"503 404 OFFCURVE",
"504 405 CURVE",
"508 407 OFFCURVE",
"510 408 OFFCURVE",
"511 408 CURVE",
"555 419 OFFCURVE",
"563 440 OFFCURVE",
"563 476 CURVE",
"564 552 OFFCURVE",
"565 543 OFFCURVE",
"565 564 CURVE SMOOTH",
"565 575 OFFCURVE",
"558 581 OFFCURVE",
"544 583 CURVE",
"536 583 OFFCURVE",
"523 580 OFFCURVE",
"504 575 CURVE",
"498 574 OFFCURVE",
"492 573 OFFCURVE",
"486 572 CURVE",
"480 570 OFFCURVE",
"474 569 OFFCURVE",
"468 568 CURVE",
"465 567 OFFCURVE",
"453 564 OFFCURVE",
"433 561 CURVE",
"432 562 OFFCURVE",
"431 565 OFFCURVE",
"431 568 CURVE SMOOTH",
"431 573 LINE",
"434 595 LINE SMOOTH",
"435 603 OFFCURVE",
"436 608 OFFCURVE",
"436 610 CURVE",
"437 614 OFFCURVE",
"438 617 OFFCURVE",
"438 618 CURVE SMOOTH",
"438 642 OFFCURVE",
"431 657 OFFCURVE",
"418 664 CURVE SMOOTH",
"410 668 OFFCURVE",
"399 669 OFFCURVE",
"382 669 CURVE SMOOTH",
"373 669 OFFCURVE",
"368 669 OFFCURVE",
"365 669 CURVE SMOOTH",
"311 669 LINE",
"300 670 OFFCURVE",
"284 670 OFFCURVE",
"263 670 CURVE",
"236 671 LINE SMOOTH",
"197 672 OFFCURVE",
"163 673 OFFCURVE",
"133 673 CURVE SMOOTH",
"125 673 OFFCURVE",
"119 670 OFFCURVE",
"116 664 CURVE",
"109 654 OFFCURVE",
"105 639 OFFCURVE",
"105 619 CURVE SMOOTH",
"105 596 LINE",
"102 558 OFFCURVE",
"101 515 OFFCURVE",
"100 468 CURVE",
"97 468 OFFCURVE",
"95 468 OFFCURVE",
"93 467 CURVE",
"90 466 OFFCURVE",
"88 465 OFFCURVE",
"86 464 CURVE",
"46 454 LINE",
"35 450 OFFCURVE",
"20 433 OFFCURVE",
"20 422 CURVE SMOOTH",
"20 398 OFFCURVE",
"21 329 OFFCURVE",
"21 305 CURVE SMOOTH",
"21 291 OFFCURVE",
"30 284 OFFCURVE",
"47 284 CURVE SMOOTH",
"53 284 OFFCURVE",
"88 292 OFFCURVE",
"101 295 CURVE",
"101 28 LINE SMOOTH",
"101 16 OFFCURVE",
"114 3 OFFCURVE",
"126 3 CURVE SMOOTH",
"208 2 LINE",
"223 1 OFFCURVE",
"245 1 OFFCURVE",
"274 1 CURVE SMOOTH",
"305 0 OFFCURVE",
"355 0 OFFCURVE",
"423 0 CURVE SMOOTH",
"569 0 LINE SMOOTH"
);
}
);
width = 676;
}
);
note = Lslash;
unicode = 0141;
},
{
glyphname = M;
lastChange = "2017-06-26 18:06:54 +0000";
layers = (
{
layerId = "CBDECE4A-293B-4E5C-B714-A3FD26C7130D";
paths = (
{
closed = 1;
nodes = (
"186 -3 OFFCURVE",
"203 1 OFFCURVE",
"219 2 CURVE SMOOTH",
"232 3 OFFCURVE",
"250 5 OFFCURVE",
"273 6 CURVE",
"278 5 LINE",
"285 5 LINE SMOOTH",
"288 5 OFFCURVE",
"290 9 OFFCURVE",
"291 18 CURVE",
"298 45 OFFCURVE",
"300 100 OFFCURVE",
"300 193 CURVE SMOOTH",
"300 240 LINE SMOOTH",
"300 245 OFFCURVE",
"302 248 OFFCURVE",
"307 248 CURVE SMOOTH",
"308 248 OFFCURVE",
"309 243 OFFCURVE",
"315 235 CURVE SMOOTH",
"340 198 LINE",
"363 147 OFFCURVE",
"408 101 OFFCURVE",
"435 58 CURVE",
"455 58 LINE",
"477 58 LINE",
"482 57 OFFCURVE",
"489 56 OFFCURVE",
"497 56 CURVE SMOOTH",
"512 56 LINE SMOOTH",
"518 56 OFFCURVE",
"525 58 OFFCURVE",
"533 63 CURVE",
"562 84 OFFCURVE",
"581 124 OFFCURVE",
"593 151 CURVE SMOOTH",
"598 163 LINE",
"602 170 OFFCURVE",
"604 178 OFFCURVE",
"607 186 CURVE SMOOTH",
"616 211 LINE",
"627 238 LINE SMOOTH",
"630 245 OFFCURVE",
"632 248 OFFCURVE",
"635 248 CURVE SMOOTH",
"640 248 OFFCURVE",
"642 245 OFFCURVE",
"642 240 CURVE SMOOTH",
"642 217 OFFCURVE",
"642 200 OFFCURVE",
"643 188 CURVE",
"644 134 LINE",
"645 122 OFFCURVE",
"645 105 OFFCURVE",
"645 84 CURVE SMOOTH",
"645 52 OFFCURVE",
"647 29 OFFCURVE",
"651 16 CURVE",
"652 9 OFFCURVE",
"654 5 OFFCURVE",
"657 5 CURVE SMOOTH",
"665 5 LINE",
"666 6 OFFCURVE",
"667 6 OFFCURVE",
"668 6 CURVE",
"707 3 LINE",
"724 3 OFFCURVE",
"736 1 OFFCURVE",
"745 0 CURVE",
"770 -1 LINE SMOOTH",
"791 -2 OFFCURVE",
"808 -3 OFFCURVE",
"820 -3 CURVE SMOOTH",
"827 -3 OFFCURVE",
"832 -2 OFFCURVE",
"837 -1 CURVE",
"857 -1 LINE",
"875 -1 LINE",
"882 -1 LINE",
"927 10 LINE",
"930 18 LINE",
"930 29 LINE",
"930 58 LINE",
"927 73 OFFCURVE",
"927 103 OFFCURVE",
"927 143 CURVE SMOOTH",
"927 162 OFFCURVE",
"927 176 OFFCURVE",
"926 185 CURVE",
"926 220 LINE",
"928 240 LINE",
"929 256 OFFCURVE",
"935 325 OFFCURVE",
"935 370 CURVE SMOOTH",
"935 428 LINE SMOOTH",
"935 488 OFFCURVE",
"934 532 OFFCURVE",
"933 560 CURVE SMOOTH",
"930 658 LINE",
"928 668 OFFCURVE",
"926 673 OFFCURVE",
"925 673 CURVE SMOOTH",
"903 673 LINE",
"890 673 LINE",
"880 673 LINE",
"865 673 LINE",
"696 673 LINE",
"618 673 LINE SMOOTH",
"617 673 OFFCURVE",
"616 672 OFFCURVE",
"615 671 CURVE SMOOTH",
"614 670 OFFCURVE",
"613 669 OFFCURVE",
"611 668 CURVE",
"608 665 OFFCURVE",
"605 661 OFFCURVE",
"602 656 CURVE",
"592 641 OFFCURVE",
"586 631 OFFCURVE",
"583 625 CURVE",
"582 624 OFFCURVE",
"581 621 OFFCURVE",
"580 618 CURVE",
"579 614 OFFCURVE",
"577 609 OFFCURVE",
"575 604 CURVE",
"558 568 LINE",
"518 483 LINE",
"503 450 LINE",
"500 445 OFFCURVE",
"499 441 OFFCURVE",
"498 439 CURVE",
"497 436 OFFCURVE",
"497 435 OFFCURVE",
"496 434 CURVE",
"492 423 OFFCURVE",
"487 398 OFFCURVE",
"480 398 CURVE SMOOTH",
"475 398 OFFCURVE",
"452 423 OFFCURVE",
"447 434 CURVE",
"447 435 OFFCURVE",
"446 436 OFFCURVE",
"445 439 CURVE",
"443 441 OFFCURVE",
"441 444 OFFCURVE",
"440 449 CURVE",
"438 454 OFFCURVE",
"436 460 OFFCURVE",
"434 465 CURVE",
"431 470 OFFCURVE",
"429 476 OFFCURVE",
"427 481 CURVE SMOOTH",
"419 500 OFFCURVE",
"414 514 OFFCURVE",
"409 524 CURVE",
"385 555 LINE SMOOTH",
"371 574 OFFCURVE",
"371 593 OFFCURVE",
"366 604 CURVE",
"348 625 OFFCURVE",
"344 633 OFFCURVE",
"340 641 CURVE",
"332 654 OFFCURVE",
"325 663 OFFCURVE",
"320 668 CURVE SMOOTH",
"319 669 OFFCURVE",
"317 670 OFFCURVE",
"316 671 CURVE SMOOTH",
"315 672 OFFCURVE",
"314 673 OFFCURVE",
"313 673 CURVE SMOOTH",
"235 673 LINE",
"106 673 LINE SMOOTH",
"89 673 OFFCURVE",
"76 671 OFFCURVE",
"65 668 CURVE SMOOTH",
"49 664 OFFCURVE",
"37 654 OFFCURVE",
"37 641 CURVE SMOOTH",
"37 640 OFFCURVE",
"38 638 OFFCURVE",
"39 637 CURVE SMOOTH",
"40 636 OFFCURVE",
"40 635 OFFCURVE",
"40 634 CURVE SMOOTH",
"40 624 OFFCURVE",
"40 615 OFFCURVE",
"41 608 CURVE",
"42 580 LINE",
"42 561 OFFCURVE",
"41 541 OFFCURVE",
"40 518 CURVE",
"38 500 OFFCURVE",
"37 483 OFFCURVE",
"37 466 CURVE",
"38 459 LINE",
"38 454 OFFCURVE",
"39 450 OFFCURVE",
"40 448 CURVE",
"40 435 LINE",
"40 428 LINE SMOOTH",
"40 379 OFFCURVE",
"39 344 OFFCURVE",
"38 323 CURVE SMOOTH",
"37 289 LINE SMOOTH",
"36 260 OFFCURVE",
"35 237 OFFCURVE",
"35 220 CURVE SMOOTH",
"37 143 LINE SMOOTH",
"37 123 OFFCURVE",
"37 108 OFFCURVE",
"38 98 CURVE",
"39 52 LINE",
"40 46 OFFCURVE",
"40 38 OFFCURVE",
"40 29 CURVE SMOOTH",
"40 22 OFFCURVE",
"40 18 OFFCURVE",
"41 18 CURVE",
"45 10 LINE",
"90 -1 LINE",
"97 -1 LINE",
"115 -1 LINE",
"135 -1 LINE",
"139 -2 OFFCURVE",
"144 -3 OFFCURVE",
"151 -3 CURVE SMOOTH"
);
}
);
width = 970;
}
);
note = M;
unicode = 004D;
},
{
glyphname = N;
lastChange = "2017-07-31 17:08:42 +0000";
layers = (
{
layerId = "CBDECE4A-293B-4E5C-B714-A3FD26C7130D";
paths = (
{
closed = 1;
nodes = (
"167 -4 OFFCURVE",
"207 -2 OFFCURVE",
"222 0 CURVE SMOOTH",
"232 1 OFFCURVE",
"248 3 OFFCURVE",
"269 4 CURVE",
"275 3 OFFCURVE",
"280 3 OFFCURVE",
"282 5 CURVE",
"286 6 OFFCURVE",
"289 10 OFFCURVE",
"289 14 CURVE",
"288 18 LINE",
"288 31 LINE",
"288 49 LINE SMOOTH",
"288 59 OFFCURVE",
"289 67 OFFCURVE",
"290 74 CURVE",
"290 108 LINE",
"290 142 LINE SMOOTH",
"290 155 OFFCURVE",
"290 165 OFFCURVE",
"291 170 CURVE",
"291 190 LINE SMOOTH",
"291 194 OFFCURVE",
"293 197 OFFCURVE",
"299 197 CURVE SMOOTH",
"300 197 OFFCURVE",
"300 196 OFFCURVE",
"302 195 CURVE",
"303 193 OFFCURVE",
"305 191 OFFCURVE",
"306 189 CURVE",
"314 178 OFFCURVE",
"338 157 OFFCURVE",
"338 156 CURVE",
"487 14 LINE",
"501 4 OFFCURVE",
"516 -4 OFFCURVE",
"539 -2 CURVE",
"552 -2 LINE",
"605 -2 LINE",
"622 -2 LINE",
"661 -2 LINE",
"676 -3 LINE",
"690 -2 LINE",
"697 1 OFFCURVE",
"702 10 OFFCURVE",
"704 22 CURVE",
"708 56 LINE",
"708 193 LINE",
"708 222 LINE",
"708 273 LINE SMOOTH",
"708 300 OFFCURVE",
"708 322 OFFCURVE",
"709 337 CURVE",
"709 401 LINE SMOOTH",
"709 424 OFFCURVE",
"709 442 OFFCURVE",
"710 452 CURVE",
"710 479 LINE",
"708 488 LINE",
"708 495 LINE",
"708 506 LINE SMOOTH",
"708 512 OFFCURVE",
"708 516 OFFCURVE",
"709 519 CURVE",
"710 533 LINE",
"711 542 LINE",
"711 573 OFFCURVE",
"701 579 OFFCURVE",
"671 579 CURVE SMOOTH",
"660 579 LINE",
"635 579 LINE",
"606 579 LINE",
"598 580 OFFCURVE",
"624 580 OFFCURVE",
"611 580 CURVE SMOOTH",
"599 580 OFFCURVE",
"590 580 OFFCURVE",
"586 581 CURVE",
"576 581 LINE",
"526 581 LINE SMOOTH",
"523 581 OFFCURVE",
"518 580 OFFCURVE",
"512 579 CURVE",
"505 577 OFFCURVE",
"498 572 OFFCURVE",
"491 566 CURVE",
"490 566 OFFCURVE",
"489 566 OFFCURVE",
"488 565 CURVE SMOOTH",
"487 564 OFFCURVE",
"486 563 OFFCURVE",
"486 561 CURVE SMOOTH",
"486 559 OFFCURVE",
"485 556 OFFCURVE",
"484 551 CURVE",
"481 489 LINE",
"481 409 LINE",
"480 400 OFFCURVE",
"480 387 OFFCURVE",
"480 372 CURVE",
"452 397 LINE",
"333 511 LINE SMOOTH",
"326 518 OFFCURVE",
"319 532 OFFCURVE",
"308 548 CURVE SMOOTH",
"301 558 OFFCURVE",
"303 553 OFFCURVE",
"296 563 CURVE",
"293 566 OFFCURVE",
"280 583 OFFCURVE",
"274 587 CURVE SMOOTH",
"268 591 OFFCURVE",
"256 591 OFFCURVE",
"239 591 CURVE SMOOTH",
"230 591 OFFCURVE",
"209 589 OFFCURVE",
"175 587 CURVE SMOOTH",
"155 586 LINE",
"121 585 OFFCURVE",
"121 584 OFFCURVE",
"98 584 CURVE SMOOTH",
"70 584 OFFCURVE",
"53 577 OFFCURVE",
"57 550 CURVE",
"58 540 OFFCURVE",
"58 525 OFFCURVE",
"58 505 CURVE SMOOTH",
"58 485 OFFCURVE",
"58 469 OFFCURVE",
"57 460 CURVE",
"55 370 LINE SMOOTH",
"54 311 OFFCURVE",
"55 243 OFFCURVE",
"61 190 CURVE",
"61 160 LINE",
"62 152 OFFCURVE",
"62 139 OFFCURVE",
"62 122 CURVE",
"63 114 OFFCURVE",
"64 100 OFFCURVE",
"64 83 CURVE SMOOTH",
"64 61 OFFCURVE",
"65 41 OFFCURVE",
"66 23 CURVE",
"66 17 OFFCURVE",
"66 14 OFFCURVE",
"67 14 CURVE",
"69 7 LINE",
"108 -3 LINE",
"116 -3 LINE",
"130 -3 LINE",
"147 -3 LINE",
"152 -3 OFFCURVE",
"156 -4 OFFCURVE",
"162 -4 CURVE SMOOTH"
);
}
);
width = 823;
}
);
note = N;
unicode = 004E;
},
{
glyphname = Eng;
lastChange = "2017-08-01 14:13:53 +0000";
layers = (
{
layerId = "CBDECE4A-293B-4E5C-B714-A3FD26C7130D";
paths = (
{
closed = 1;
nodes = (
"813 590 OFFCURVE",
"813 595 OFFCURVE",
"814 599 CURVE",
"815 615 LINE",
"816 625 LINE",
"816 661 OFFCURVE",
"805 668 OFFCURVE",
"770 668 CURVE SMOOTH",
"696 668 LINE",
"687 669 OFFCURVE",
"676 669 OFFCURVE",
"661 669 CURVE SMOOTH",
"648 669 OFFCURVE",
"638 669 OFFCURVE",
"633 670 CURVE",
"564 670 LINE SMOOTH",
"560 670 OFFCURVE",
"555 669 OFFCURVE",
"548 668 CURVE",
"540 665 OFFCURVE",
"532 660 OFFCURVE",
"524 653 CURVE",
"521 651 LINE",
"520 650 OFFCURVE",
"519 648 OFFCURVE",
"518 646 CURVE SMOOTH",
"517 644 OFFCURVE",
"517 640 OFFCURVE",
"516 635 CURVE",
"513 564 LINE",
"513 471 LINE",
"512 461 OFFCURVE",
"511 447 OFFCURVE",
"511 430 CURVE",
"479 478 LINE",
"413 579 LINE SMOOTH",
"406 589 OFFCURVE",
"396 603 OFFCURVE",
"384 621 CURVE SMOOTH",
"376 633 OFFCURVE",
"368 644 OFFCURVE",
"360 655 CURVE",
"357 660 OFFCURVE",
"351 672 OFFCURVE",
"344 676 CURVE SMOOTH",
"337 680 OFFCURVE",
"324 681 OFFCURVE",
"305 681 CURVE SMOOTH",
"295 681 OFFCURVE",
"270 680 OFFCURVE",
"230 677 CURVE SMOOTH",
"208 675 LINE",
"169 674 OFFCURVE",
"138 673 OFFCURVE",
"113 673 CURVE SMOOTH",
"80 673 OFFCURVE",
"61 665 OFFCURVE",
"65 634 CURVE",
"66 623 OFFCURVE",
"66 605 OFFCURVE",
"66 582 CURVE SMOOTH",
"66 559 OFFCURVE",
"66 541 OFFCURVE",
"65 530 CURVE",
"63 428 LINE SMOOTH",
"63 359 OFFCURVE",
"63 281 OFFCURVE",
"70 220 CURVE",
"70 185 LINE",
"71 176 OFFCURVE",
"71 162 OFFCURVE",
"71 143 CURVE",
"72 132 OFFCURVE",
"73 117 OFFCURVE",
"73 98 CURVE SMOOTH",
"73 72 OFFCURVE",
"74 49 OFFCURVE",
"75 29 CURVE",
"75 22 OFFCURVE",
"75 18 OFFCURVE",
"76 18 CURVE",
"79 10 LINE",
"124 -1 LINE",
"169 -1 LINE",
"174 -2 OFFCURVE",
"179 -3 OFFCURVE",
"186 -3 CURVE SMOOTH",
"221 -3 OFFCURVE",
"268 1 OFFCURVE",
"284 2 CURVE SMOOTH",
"297 3 OFFCURVE",
"315 5 OFFCURVE",
"338 6 CURVE",
"345 5 OFFCURVE",
"351 5 OFFCURVE",
"354 8 CURVE",
"359 9 OFFCURVE",
"362 13 OFFCURVE",
"362 18 CURVE",
"361 23 LINE",
"361 58 LINE SMOOTH",
"361 70 OFFCURVE",
"362 80 OFFCURVE",
"363 88 CURVE",
"363 165 LINE SMOOTH",
"363 180 OFFCURVE",
"363 191 OFFCURVE",
"364 198 CURVE",
"364 220 LINE SMOOTH",
"364 225 OFFCURVE",
"367 228 OFFCURVE",
"373 228 CURVE SMOOTH",
"374 228 OFFCURVE",
"375 227 OFFCURVE",
"377 226 CURVE",
"378 224 OFFCURVE",
"380 222 OFFCURVE",
"381 219 CURVE",
"390 207 OFFCURVE",
"418 162 OFFCURVE",
"418 161 CURVE",
"508 34 LINE",
"507 -1 OFFCURVE",
"507 -25 OFFCURVE",
"507 -42 CURVE SMOOTH",
"507 -57 OFFCURVE",
"507 -58 OFFCURVE",
"506 -63 CURVE",
"506 -63 OFFCURVE",
"504 -70 OFFCURVE",
"502 -81 CURVE SMOOTH",
"500 -91 OFFCURVE",
"498 -97 OFFCURVE",
"496 -100 CURVE",
"491 -117 OFFCURVE",
"480 -126 OFFCURVE",
"469 -126 CURVE SMOOTH",
"445 -126 OFFCURVE",
"439 -122 OFFCURVE",
"378 -100 CURVE",
"370 -94 OFFCURVE",
"367 -99 OFFCURVE",
"367 -100 CURVE",
"366 -101 OFFCURVE",
"366 -101 OFFCURVE",
"366 -103 CURVE SMOOTH",
"366 -105 OFFCURVE",
"365 -110 OFFCURVE",
"365 -117 CURVE",
"361 -135 OFFCURVE",
"361 -213 OFFCURVE",
"361 -229 CURVE",
"358 -246 LINE",
"356 -265 LINE",
"356 -268 OFFCURVE",
"356 -268 OFFCURVE",
"357 -269 CURVE",
"395 -287 LINE SMOOTH",
"443 -310 OFFCURVE",
"463 -318 OFFCURVE",
"521 -318 CURVE SMOOTH",
"542 -318 OFFCURVE",
"563 -320 OFFCURVE",
"587 -317 CURVE",
"704 -315 OFFCURVE",
"782 -252 OFFCURVE",
"802 -146 CURVE SMOOTH",
"808 -115 OFFCURVE",
"809 -88 OFFCURVE",
"809 -52 CURVE",
"810 -45 LINE",
"810 -29 LINE SMOOTH",
"810 -19 OFFCURVE",
"810 -11 OFFCURVE",
"811 -7 CURVE",
"812 -4 OFFCURVE",
"812 -1 OFFCURVE",
"812 2 CURVE",
"811 6 OFFCURVE",
"811 9 OFFCURVE",
"812 12 CURVE",
"812 20 LINE SMOOTH",
"812 23 OFFCURVE",
"812 27 OFFCURVE",
"813 27 CURVE",
"813 316 LINE SMOOTH",
"813 347 OFFCURVE",
"813 372 OFFCURVE",
"814 389 CURVE",
"814 463 LINE SMOOTH",
"814 490 OFFCURVE",
"814 510 OFFCURVE",
"815 521 CURVE",
"815 553 LINE",
"813 563 LINE",
"813 583 LINE SMOOTH"
);
}
);
width = 873;
}
);
note = Eng;
unicode = 014A;
},
{
glyphname = O;
lastChange = "2017-07-31 17:14:22 +0000";
layers = (
{
layerId = "CBDECE4A-293B-4E5C-B714-A3FD26C7130D";
paths = (
{
closed = 1;
nodes = (
"551 -19 OFFCURVE",
"650 14 OFFCURVE",
"700 105 CURVE SMOOTH",
"727 154 OFFCURVE",
"738 224 OFFCURVE",
"738 313 CURVE SMOOTH",
"738 387 OFFCURVE",
"721 449 OFFCURVE",
"686 495 CURVE SMOOTH",
"628 572 OFFCURVE",
"514 608 OFFCURVE",
"421 608 CURVE SMOOTH",
"302 608 OFFCURVE",
"205 581 OFFCURVE",
"152 528 CURVE SMOOTH",
"100 476 OFFCURVE",
"75 394 OFFCURVE",
"75 277 CURVE SMOOTH",
"75 193 OFFCURVE",
"91 129 OFFCURVE",
"123 81 CURVE SMOOTH",
"175 3 OFFCURVE",
"283 -19 OFFCURVE",
"413 -19 CURVE SMOOTH"
);
},
{
closed = 1;
nodes = (
"402 93 OFFCURVE",
"389 106 OFFCURVE",
"381 130 CURVE SMOOTH",
"372 158 OFFCURVE",
"368 192 OFFCURVE",
"368 214 CURVE",
"365 231 OFFCURVE",
"365 254 OFFCURVE",
"365 281 CURVE SMOOTH",
"365 321 OFFCURVE",
"365 350 OFFCURVE",
"368 370 CURVE",
"368 391 OFFCURVE",
"371 423 OFFCURVE",
"381 450 CURVE",
"389 470 OFFCURVE",
"402 481 OFFCURVE",
"421 481 CURVE SMOOTH",
"430 481 OFFCURVE",
"430 475 OFFCURVE",
"440 469 CURVE SMOOTH",
"494 437 OFFCURVE",
"480 355 OFFCURVE",
"480 313 CURVE SMOOTH",
"480 295 LINE",
"480 267 LINE SMOOTH",
"480 213 OFFCURVE",
"474 144 OFFCURVE",
"454 124 CURVE SMOOTH",
"438 108 OFFCURVE",
"432 93 OFFCURVE",
"421 93 CURVE SMOOTH"
);
}
);
width = 807;
}
);
note = O;
unicode = 004F;
},
{
glyphname = uni0230;
lastChange = "2017-07-18 20:09:46 +0000";
layers = (
{
layerId = "CBDECE4A-293B-4E5C-B714-A3FD26C7130D";
paths = (
{
closed = 1;
nodes = (
"616 981 OFFCURVE",
"623 988 OFFCURVE",
"625 1001 CURVE",
"628 1010 OFFCURVE",
"629 1021 OFFCURVE",
"629 1036 CURVE SMOOTH",
"629 1059 LINE",
"628 1067 OFFCURVE",
"628 1076 OFFCURVE",
"628 1086 CURVE SMOOTH",
"628 1096 LINE SMOOTH",
"628 1100 OFFCURVE",
"628 1105 OFFCURVE",
"627 1112 CURVE SMOOTH",
"626 1118 OFFCURVE",
"626 1126 OFFCURVE",
"626 1136 CURVE SMOOTH",
"626 1156 OFFCURVE",
"598 1161 OFFCURVE",
"571 1161 CURVE SMOOTH",
"548 1161 LINE SMOOTH",
"535 1161 OFFCURVE",
"505 1162 OFFCURVE",
"458 1163 CURVE SMOOTH",
"418 1164 LINE SMOOTH",
"391 1165 OFFCURVE",
"374 1166 OFFCURVE",
"365 1166 CURVE SMOOTH",
"343 1166 LINE",
"233 1166 LINE SMOOTH",
"225 1166 OFFCURVE",
"217 1158 OFFCURVE",
"216 1157 CURVE",
"211 1153 OFFCURVE",
"208 1148 OFFCURVE",
"208 1141 CURVE SMOOTH",
"208 1124 OFFCURVE",
"208 1113 OFFCURVE",
"209 1106 CURVE",
"209 1077 LINE",
"209 1047 LINE",
"209 1011 LINE SMOOTH",
"209 1004 OFFCURVE",
"211 999 OFFCURVE",
"216 996 CURVE",
"224 988 OFFCURVE",
"237 986 OFFCURVE",
"258 986 CURVE SMOOTH",
"286 986 LINE",
"386 986 LINE",
"396 986 LINE",
"418 986 LINE SMOOTH",
"428 986 OFFCURVE",
"436 985 OFFCURVE",
"443 984 CURVE",
"446 983 OFFCURVE",
"451 983 OFFCURVE",
"456 984 CURVE",
"461 984 OFFCURVE",
"465 984 OFFCURVE",
"468 984 CURVE SMOOTH",
"488 984 LINE",
"498 983 LINE",
"523 983 LINE",
"545 982 LINE",
"556 982 OFFCURVE",
"564 982 OFFCURVE",
"571 981 CURVE",
"605 981 LINE SMOOTH"
);
},
{
closed = 1;
nodes = (
"516 760 LINE",
"527 761 OFFCURVE",
"533 770 OFFCURVE",
"533 788 CURVE SMOOTH",
"533 798 OFFCURVE",
"532 805 OFFCURVE",
"531 810 CURVE",
"530 813 OFFCURVE",
"530 816 OFFCURVE",
"531 821 CURVE",
"531 826 OFFCURVE",
"531 829 OFFCURVE",
"531 831 CURVE SMOOTH",
"531 841 LINE",
"531 854 LINE",
"531 864 LINE",
"530 865 OFFCURVE",
"530 867 OFFCURVE",
"530 868 CURVE SMOOTH",
"530 869 OFFCURVE",
"530 869 OFFCURVE",
"530 870 CURVE SMOOTH",
"530 879 OFFCURVE",
"530 885 OFFCURVE",
"531 890 CURVE",
"532 893 OFFCURVE",
"532 897 OFFCURVE",
"532 901 CURVE",
"531 905 OFFCURVE",
"531 908 OFFCURVE",
"531 910 CURVE SMOOTH",
"531 919 OFFCURVE",
"530 925 OFFCURVE",
"529 929 CURVE SMOOTH",
"528 933 OFFCURVE",
"525 935 OFFCURVE",
"520 935 CURVE SMOOTH",
"516 935 LINE",
"510 934 LINE",
"503 934 LINE SMOOTH",
"500 934 OFFCURVE",
"497 934 OFFCURVE",
"495 935 CURVE",
"493 935 OFFCURVE",
"491 935 OFFCURVE",
"490 935 CURVE",
"476 936 LINE",
"441 934 LINE",
"338 934 LINE SMOOTH",
"321 934 OFFCURVE",
"318 930 OFFCURVE",
"309 905 CURVE",
"309 904 OFFCURVE",
"309 904 OFFCURVE",
"310 903 CURVE",
"310 902 OFFCURVE",
"310 901 OFFCURVE",
"310 900 CURVE SMOOTH",
"310 898 LINE",
"306 866 LINE",
"304 862 OFFCURVE",
"303 858 OFFCURVE",
"303 855 CURVE",
"304 848 LINE",
"305 828 LINE",
"305 799 LINE",
"311 766 LINE",
"318 760 LINE"
);
},
{
closed = 1;
nodes = (
"572 -46 OFFCURVE",
"688 -6 OFFCURVE",
"747 105 CURVE SMOOTH",
"779 164 OFFCURVE",
"792 250 OFFCURVE",
"792 358 CURVE SMOOTH",
"792 449 OFFCURVE",
"771 524 OFFCURVE",
"731 580 CURVE SMOOTH",
"663 674 OFFCURVE",
"529 718 OFFCURVE",
"421 718 CURVE SMOOTH",
"281 718 OFFCURVE",
"167 685 OFFCURVE",
"105 621 CURVE SMOOTH",
"44 557 OFFCURVE",
"15 457 OFFCURVE",
"15 314 CURVE SMOOTH",
"15 212 OFFCURVE",
"33 134 OFFCURVE",
"71 76 CURVE SMOOTH",
"133 -20 OFFCURVE",
"258 -46 OFFCURVE",
"411 -46 CURVE SMOOTH"
);
},
{
closed = 1;
nodes = (
"399 90 OFFCURVE",
"383 106 OFFCURVE",
"374 135 CURVE SMOOTH",
"362 170 OFFCURVE",
"358 211 OFFCURVE",
"358 238 CURVE",
"355 259 OFFCURVE",
"354 287 OFFCURVE",
"354 319 CURVE SMOOTH",
"354 368 OFFCURVE",
"355 404 OFFCURVE",
"358 428 CURVE",
"358 453 OFFCURVE",
"362 492 OFFCURVE",
"374 526 CURVE",
"383 550 OFFCURVE",
"399 563 OFFCURVE",
"421 563 CURVE SMOOTH",
"431 563 OFFCURVE",
"431 556 OFFCURVE",
"443 548 CURVE SMOOTH",
"503 506 OFFCURVE",
"490 409 OFFCURVE",
"490 358 CURVE SMOOTH",
"490 336 LINE",
"490 302 LINE SMOOTH",
"490 237 OFFCURVE",
"482 152 OFFCURVE",
"459 128 CURVE SMOOTH",
"441 109 OFFCURVE",
"433 90 OFFCURVE",
"421 90 CURVE SMOOTH"
);
}
);
width = 859;
}
);
note = uni0230;
unicode = 0230;
},
{
glyphname = Ohorn;
lastChange = "2017-07-31 17:15:54 +0000";
layers = (
{
layerId = "CBDECE4A-293B-4E5C-B714-A3FD26C7130D";
paths = (
{
closed = 1;
nodes = (
"46 217 OFFCURVE",
"46 450 OFFCURVE",
"46 313 CURVE SMOOTH"
);
},
{
closed = 1;
nodes = (
"344 94 OFFCURVE",
"334 107 OFFCURVE",
"325 135 CURVE SMOOTH",
"315 165 OFFCURVE",
"313 195 OFFCURVE",
"313 219 CURVE",
"310 238 OFFCURVE",
"310 262 OFFCURVE",
"310 291 CURVE SMOOTH",
"310 335 OFFCURVE",
"310 367 OFFCURVE",
"313 388 CURVE",
"313 412 OFFCURVE",
"317 439 OFFCURVE",
"325 470 CURVE",
"334 491 OFFCURVE",
"344 502 OFFCURVE",
"361 502 CURVE SMOOTH",
"370 502 OFFCURVE",
"378 498 OFFCURVE",
"384 489 CURVE SMOOTH",
"407 454 OFFCURVE",
"414 372 OFFCURVE",
"414 327 CURVE SMOOTH",
"414 276 LINE SMOOTH",
"414 218 OFFCURVE",
"408 138 OFFCURVE",
"384 106 CURVE SMOOTH",
"378 98 OFFCURVE",
"371 94 OFFCURVE",
"361 94 CURVE SMOOTH"
);
},
{
closed = 1;
nodes = (
"719 716 LINE",
"581 719 LINE",
"585 704 LINE",
"587 675 LINE",
"587 655 LINE SMOOTH",
"587 646 OFFCURVE",
"582 609 OFFCURVE",
"570 596 CURVE",
"562 589 LINE SMOOTH",
"560 587 OFFCURVE",
"556 585 OFFCURVE",
"551 583 CURVE SMOOTH",
"535 577 LINE",
"532 579 LINE",
"471 599 LINE",
"439 607 OFFCURVE",
"405 610 OFFCURVE",
"368 610 CURVE SMOOTH",
"244 610 OFFCURVE",
"160 587 OFFCURVE",
"105 534 CURVE SMOOTH",
"52 482 OFFCURVE",
"25 402 OFFCURVE",
"25 285 CURVE SMOOTH",
"25 203 OFFCURVE",
"41 138 OFFCURVE",
"75 92 CURVE SMOOTH",
"132 14 OFFCURVE",
"224 -3 OFFCURVE",
"359 -3 CURVE SMOOTH",
"503 -3 OFFCURVE",
"589 26 OFFCURVE",
"641 115 CURVE SMOOTH",
"669 163 OFFCURVE",
"681 233 OFFCURVE",
"681 320 CURVE SMOOTH",
"681 380 OFFCURVE",
"669 434 OFFCURVE",
"644 479 CURVE",
"626 500 LINE",
"625 501 LINE",
"633 505 OFFCURVE",
"644 512 OFFCURVE",
"655 521 CURVE",
"672 535 LINE",
"698 567 LINE",
"702 575 OFFCURVE",
"719 601 OFFCURVE",
"723 624 CURVE",
"728 655 LINE",
"728 671 LINE",
"723 702 LINE"
);
}
);
width = 703;
}
);
note = Ohorn;
unicode = 01A0;
},
{
glyphname = uni01EA;
lastChange = "2017-07-05 12:37:08 +0000";
layers = (
{
layerId = "CBDECE4A-293B-4E5C-B714-A3FD26C7130D";
paths = (
{
closed = 1;
nodes = (
"683 659 OFFCURVE",
"561 695 OFFCURVE",
"448 695 CURVE SMOOTH",
"303 695 OFFCURVE",
"204 667 OFFCURVE",
"140 606 CURVE SMOOTH",
"76 545 OFFCURVE",
"46 450 OFFCURVE",
"46 313 CURVE SMOOTH",
"46 217 OFFCURVE",
"65 142 OFFCURVE",
"104 88 CURVE SMOOTH",
"171 -3 OFFCURVE",
"259 -24 OFFCURVE",
"358 -24 CURVE",
"346 -33 LINE",
"290 -70 OFFCURVE",
"263 -103 OFFCURVE",
"263 -163 CURVE SMOOTH",
"263 -175 OFFCURVE",
"265 -186 OFFCURVE",
"268 -195 CURVE",
"279 -220 OFFCURVE",
"302 -240 OFFCURVE",
"339 -253 CURVE SMOOTH",
"378 -267 OFFCURVE",
"433 -276 OFFCURVE",
"506 -276 CURVE",
"516 -274 LINE",
"518 -273 OFFCURVE",
"521 -273 OFFCURVE",
"524 -273 CURVE SMOOTH",
"527 -273 OFFCURVE",
"531 -272 OFFCURVE",
"536 -271 CURVE",
"547 -270 OFFCURVE",
"563 -265 OFFCURVE",
"583 -258 CURVE",
"596 -251 OFFCURVE",
"608 -245 OFFCURVE",
"609 -240 CURVE SMOOTH",
"626 -158 LINE",
"626 -153 LINE SMOOTH",
"626 -148 OFFCURVE",
"624 -145 OFFCURVE",
"619 -143 CURVE",
"588 -154 OFFCURVE",
"559 -160 OFFCURVE",
"532 -160 CURVE SMOOTH",
"523 -160 OFFCURVE",
"517 -160 OFFCURVE",
"512 -161 CURVE",
"504 -164 OFFCURVE",
"494 -159 OFFCURVE",
"491 -158 CURVE",
"476 -154 OFFCURVE",
"468 -146 OFFCURVE",
"468 -126 CURVE SMOOTH",
"468 -118 OFFCURVE",
"472 -106 OFFCURVE",
"481 -90 CURVE SMOOTH",
"494 -67 OFFCURVE",
"508 -49 OFFCURVE",
"527 -33 CURVE",
"617 -8 LINE",
"698 14 OFFCURVE",
"739 66 OFFCURVE",
"768 115 CURVE",
"799 172 OFFCURVE",
"814 252 OFFCURVE",
"814 355 CURVE SMOOTH",
"814 443 OFFCURVE",
"793 514 OFFCURVE",
"751 568 CURVE SMOOTH"
);
},
{
closed = 1;
nodes = (
"391 194 OFFCURVE",
"389 228 OFFCURVE",
"389 256 CURVE",
"386 279 OFFCURVE",
"385 307 OFFCURVE",
"385 341 CURVE SMOOTH",
"385 393 OFFCURVE",
"386 430 OFFCURVE",
"389 455 CURVE",
"389 483 OFFCURVE",
"393 514 OFFCURVE",
"401 550 CURVE",
"411 575 OFFCURVE",
"423 588 OFFCURVE",
"442 588 CURVE SMOOTH",
"452 588 OFFCURVE",
"460 583 OFFCURVE",
"466 573 CURVE SMOOTH",
"492 530 OFFCURVE",
"501 436 OFFCURVE",
"501 382 CURVE SMOOTH",
"501 359 LINE",
"501 323 LINE SMOOTH",
"501 255 OFFCURVE",
"490 164 OFFCURVE",
"466 124 CURVE SMOOTH",
"460 114 OFFCURVE",
"453 110 OFFCURVE",
"442 110 CURVE SMOOTH",
"423 110 OFFCURVE",
"410 125 OFFCURVE",
"401 157 CURVE SMOOTH"
);
}
);
width = 859;
}
);
note = uni01EA;
unicode = 01EA;
},
{
glyphname = Oslash;
lastChange = "2017-07-31 17:19:17 +0000";
layers = (
{
layerId = "CBDECE4A-293B-4E5C-B714-A3FD26C7130D";
paths = (
{
closed = 1;
nodes = (
"119 -28 OFFCURVE",
"128 -22 OFFCURVE",
"138 -13 CURVE SMOOTH",
"150 -2 OFFCURVE",
"163 9 OFFCURVE",
"181 27 CURVE",
"206 14 OFFCURVE",
"239 5 OFFCURVE",
"280 -1 CURVE",
"308 -5 OFFCURVE",
"343 -6 OFFCURVE",
"389 -6 CURVE SMOOTH",
"528 -6 OFFCURVE",
"616 22 OFFCURVE",
"663 110 CURVE SMOOTH",
"688 157 OFFCURVE",
"702 223 OFFCURVE",
"702 311 CURVE SMOOTH",
"702 380 OFFCURVE",
"686 437 OFFCURVE",
"655 482 CURVE",
"670 495 LINE",
"675 500 OFFCURVE",
"679 503 OFFCURVE",
"681 506 CURVE",
"682 508 OFFCURVE",
"685 511 OFFCURVE",
"689 515 CURVE SMOOTH",
"694 520 OFFCURVE",
"701 526 OFFCURVE",
"712 541 CURVE",
"717 548 OFFCURVE",
"720 553 OFFCURVE",
"720 555 CURVE SMOOTH",
"720 562 OFFCURVE",
"717 564 OFFCURVE",
"708 568 CURVE",
"704 571 OFFCURVE",
"701 572 OFFCURVE",
"698 574 CURVE",
"694 575 OFFCURVE",
"689 577 OFFCURVE",
"685 580 CURVE",
"673 587 LINE",
"670 589 OFFCURVE",
"667 590 OFFCURVE",
"663 590 CURVE SMOOTH",
"660 590 OFFCURVE",
"657 589 OFFCURVE",
"655 588 CURVE",
"600 537 LINE",
"547 576 OFFCURVE",
"470 595 OFFCURVE",
"397 595 CURVE SMOOTH",
"275 595 OFFCURVE",
"192 572 OFFCURVE",
"138 520 CURVE SMOOTH",
"85 469 OFFCURVE",
"60 390 OFFCURVE",
"60 276 CURVE SMOOTH",
"60 188 OFFCURVE",
"79 122 OFFCURVE",
"117 76 CURVE",
"91 50 LINE SMOOTH",
"87 46 OFFCURVE",
"85 43 OFFCURVE",
"82 38 CURVE SMOOTH",
"79 34 OFFCURVE",
"75 31 OFFCURVE",
"71 29 CURVE",
"70 27 OFFCURVE",
"68 24 OFFCURVE",
"65 20 CURVE",
"62 15 OFFCURVE",
"61 12 OFFCURVE",
"60 10 CURVE SMOOTH",
"56 3 OFFCURVE",
"61 -3 OFFCURVE",
"74 -9 CURVE",
"79 -15 LINE",
"82 -15 OFFCURVE",
"85 -19 OFFCURVE",
"90 -23 CURVE",
"92 -24 OFFCURVE",
"96 -27 OFFCURVE",
"100 -27 CURVE",
"104 -29 OFFCURVE",
"108 -31 OFFCURVE",
"112 -31 CURVE"
);
},
{
closed = 1;
nodes = (
"328 379 OFFCURVE",
"330 440 OFFCURVE",
"346 483 CURVE SMOOTH",
"354 504 OFFCURVE",
"365 516 OFFCURVE",
"379 516 CURVE SMOOTH",
"397 516 OFFCURVE",
"410 491 OFFCURVE",
"416 468 CURVE SMOOTH",
"421 447 OFFCURVE",
"425 432 OFFCURVE",
"428 389 CURVE",
"328 289 LINE"
);
},
{
closed = 1;
nodes = (
"364 75 OFFCURVE",
"352 87 OFFCURVE",
"346 112 CURVE",
"338 136 OFFCURVE",
"339 147 OFFCURVE",
"337 176 CURVE",
"430 272 LINE",
"426 197 OFFCURVE",
"425 149 OFFCURVE",
"412 108 CURVE SMOOTH",
"405 85 OFFCURVE",
"393 75 OFFCURVE",
"379 75 CURVE SMOOTH"
);
}
);
width = 745;
}
);
note = Oslash;
unicode = 00D8;
},
{
glyphname = uni022C;
lastChange = "2017-06-20 16:19:20 +0000";
layers = (
{
layerId = "CBDECE4A-293B-4E5C-B714-A3FD26C7130D";
paths = (
{
closed = 1;
nodes = (
"637 967 OFFCURVE",
"640 990 OFFCURVE",
"640 1015 CURVE SMOOTH",
"640 1035 LINE",
"639 1042 OFFCURVE",
"639 1049 OFFCURVE",
"639 1058 CURVE SMOOTH",
"639 1067 LINE",
"638 1101 LINE",
"638 1117 OFFCURVE",
"614 1123 OFFCURVE",
"583 1123 CURVE SMOOTH",
"559 1123 LINE SMOOTH",
"546 1123 OFFCURVE",
"516 1124 OFFCURVE",
"469 1125 CURVE SMOOTH",
"422 1126 OFFCURVE",
"391 1127 OFFCURVE",
"376 1127 CURVE SMOOTH",
"354 1127 LINE",
"244 1127 LINE SMOOTH",
"237 1127 OFFCURVE",
"229 1121 OFFCURVE",
"228 1120 CURVE",
"222 1115 OFFCURVE",
"219 1111 OFFCURVE",
"219 1106 CURVE SMOOTH",
"219 1091 OFFCURVE",
"219 1081 OFFCURVE",
"220 1075 CURVE",
"220 1051 LINE",
"220 1025 LINE",
"220 993 LINE SMOOTH",
"220 988 OFFCURVE",
"224 983 OFFCURVE",
"228 980 CURVE",
"234 975 OFFCURVE",
"248 972 OFFCURVE",
"269 972 CURVE SMOOTH",
"298 972 LINE",
"398 972 LINE",
"408 972 LINE",
"429 972 LINE SMOOTH",
"439 972 OFFCURVE",
"447 972 OFFCURVE",
"454 971 CURVE",
"456 970 OFFCURVE",
"459 970 OFFCURVE",
"463 970 CURVE",
"479 971 LINE",
"499 971 LINE",
"502 970 OFFCURVE",
"504 970 OFFCURVE",
"506 970 CURVE",
"507 969 OFFCURVE",
"508 969 OFFCURVE",
"509 969 CURVE SMOOTH",
"534 969 LINE",
"556 968 LINE",
"567 968 OFFCURVE",
"576 968 OFFCURVE",
"583 967 CURVE",
"616 967 LINE SMOOTH"
);
},
{
closed = 1;
nodes = (
"543 735 OFFCURVE",
"570 745 OFFCURVE",
"594 756 CURVE",
"639 779 OFFCURVE",
"658 820 OFFCURVE",
"658 865 CURVE SMOOTH",
"658 885 OFFCURVE",
"653 904 OFFCURVE",
"643 921 CURVE",
"640 928 OFFCURVE",
"636 931 OFFCURVE",
"631 931 CURVE SMOOTH",
"504 931 LINE SMOOTH",
"495 931 OFFCURVE",
"491 929 OFFCURVE",
"491 925 CURVE",
"500 918 OFFCURVE",
"513 890 OFFCURVE",
"513 878 CURVE SMOOTH",
"513 874 LINE",
"510 865 OFFCURVE",
"506 860 OFFCURVE",
"491 860 CURVE SMOOTH",
"485 860 OFFCURVE",
"480 861 OFFCURVE",
"476 863 CURVE SMOOTH",
"470 866 OFFCURVE",
"463 874 OFFCURVE",
"454 886 CURVE SMOOTH",
"448 894 OFFCURVE",
"444 898 OFFCURVE",
"441 899 CURVE",
"429 910 OFFCURVE",
"420 914 OFFCURVE",
"401 921 CURVE",
"386 928 OFFCURVE",
"369 931 OFFCURVE",
"351 931 CURVE SMOOTH",
"262 931 OFFCURVE",
"223 893 OFFCURVE",
"206 846 CURVE SMOOTH",
"202 834 OFFCURVE",
"200 821 OFFCURVE",
"201 807 CURVE",
"201 793 OFFCURVE",
"201 784 OFFCURVE",
"201 780 CURVE SMOOTH",
"201 775 OFFCURVE",
"204 767 OFFCURVE",
"205 764 CURVE",
"205 763 OFFCURVE",
"206 756 OFFCURVE",
"209 753 CURVE",
"216 745 OFFCURVE",
"219 743 OFFCURVE",
"231 743 CURVE SMOOTH",
"273 743 LINE",
"306 743 LINE SMOOTH",
"309 743 OFFCURVE",
"310 744 OFFCURVE",
"311 745 CURVE",
"314 752 OFFCURVE",
"317 759 OFFCURVE",
"318 766 CURVE",
"318 773 OFFCURVE",
"319 778 OFFCURVE",
"321 781 CURVE SMOOTH",
"323 784 OFFCURVE",
"325 788 OFFCURVE",
"326 791 CURVE",
"329 797 OFFCURVE",
"333 801 OFFCURVE",
"338 801 CURVE SMOOTH",
"357 801 OFFCURVE",
"373 788 OFFCURVE",
"386 780 CURVE",
"392 775 OFFCURVE",
"397 772 OFFCURVE",
"401 769 CURVE SMOOTH",
"436 744 OFFCURVE",
"454 735 OFFCURVE",
"511 735 CURVE SMOOTH"
);
},
{
closed = 1;
nodes = (
"606 -24 OFFCURVE",
"707 10 OFFCURVE",
"768 115 CURVE SMOOTH",
"799 172 OFFCURVE",
"814 252 OFFCURVE",
"814 355 CURVE SMOOTH",
"814 443 OFFCURVE",
"793 514 OFFCURVE",
"751 568 CURVE SMOOTH",
"683 659 OFFCURVE",
"561 695 OFFCURVE",
"448 695 CURVE SMOOTH",
"303 695 OFFCURVE",
"204 667 OFFCURVE",
"140 606 CURVE SMOOTH",
"76 545 OFFCURVE",
"46 450 OFFCURVE",
"46 313 CURVE SMOOTH",
"46 217 OFFCURVE",
"65 142 OFFCURVE",
"104 88 CURVE SMOOTH",
"171 -3 OFFCURVE",
"279 -24 OFFCURVE",
"438 -24 CURVE SMOOTH"
);
},
{
closed = 1;
nodes = (
"417 77 OFFCURVE",
"404 93 OFFCURVE",
"394 127 CURVE SMOOTH",
"383 166 OFFCURVE",
"381 201 OFFCURVE",
"381 230 CURVE",
"378 254 OFFCURVE",
"377 284 OFFCURVE",
"377 320 CURVE SMOOTH",
"377 374 OFFCURVE",
"378 413 OFFCURVE",
"381 439 CURVE",
"381 468 OFFCURVE",
"385 502 OFFCURVE",
"394 539 CURVE",
"404 566 OFFCURVE",
"417 579 OFFCURVE",
"437 579 CURVE SMOOTH",
"447 579 OFFCURVE",
"456 573 OFFCURVE",
"463 563 CURVE SMOOTH",
"493 520 OFFCURVE",
"499 419 OFFCURVE",
"499 363 CURVE SMOOTH",
"499 339 LINE",
"499 301 LINE SMOOTH",
"499 229 OFFCURVE",
"493 130 OFFCURVE",
"463 91 CURVE SMOOTH",
"456 82 OFFCURVE",
"448 77 OFFCURVE",
"437 77 CURVE SMOOTH"
);
}
);
width = 859;
}
);
note = uni022C;
unicode = 022C;
},
{
glyphname = OE;
lastChange = "2017-06-20 16:18:55 +0000";
layers = (
{
layerId = "CBDECE4A-293B-4E5C-B714-A3FD26C7130D";
paths = (
{
closed = 1;
nodes = (
"524 -24 OFFCURVE",
"569 -15 OFFCURVE",
"616 3 CURVE",
"623 1 OFFCURVE",
"630 0 OFFCURVE",
"639 0 CURVE SMOOTH",
"698 0 LINE SMOOTH",
"733 0 OFFCURVE",
"835 1 OFFCURVE",
"905 1 CURVE SMOOTH",
"938 1 OFFCURVE",
"962 2 OFFCURVE",
"978 3 CURVE SMOOTH",
"1006 5 OFFCURVE",
"1029 5 OFFCURVE",
"1048 5 CURVE SMOOTH",
"1060 5 OFFCURVE",
"1068 14 OFFCURVE",
"1068 26 CURVE SMOOTH",
"1068 28 OFFCURVE",
"1068 30 OFFCURVE",
"1067 33 CURVE",
"1066 35 OFFCURVE",
"1066 38 OFFCURVE",
"1065 41 CURVE",
"1062 60 OFFCURVE",
"1047 120 OFFCURVE",
"1036 136 CURVE",
"1034 141 OFFCURVE",
"1032 143 OFFCURVE",
"1029 143 CURVE SMOOTH",
"987 143 OFFCURVE",
"955 142 OFFCURVE",
"933 140 CURVE",
"912 139 OFFCURVE",
"880 138 OFFCURVE",
"808 138 CURVE",
"807 143 OFFCURVE",
"807 149 OFFCURVE",
"807 157 CURVE SMOOTH",
"807 166 OFFCURVE",
"807 172 OFFCURVE",
"808 176 CURVE",
"809 192 OFFCURVE",
"810 204 OFFCURVE",
"810 213 CURVE SMOOTH",
"810 241 OFFCURVE",
"811 249 OFFCURVE",
"826 253 CURVE",
"831 254 OFFCURVE",
"842 254 OFFCURVE",
"861 254 CURVE",
"872 253 OFFCURVE",
"895 253 OFFCURVE",
"928 253 CURVE SMOOTH",
"967 253 OFFCURVE",
"993 255 OFFCURVE",
"1008 258 CURVE",
"1032 260 OFFCURVE",
"1044 267 OFFCURVE",
"1044 278 CURVE SMOOTH",
"1044 281 LINE",
"1040 370 LINE",
"1037 383 OFFCURVE",
"1035 389 OFFCURVE",
"1019 393 CURVE",
"1006 393 LINE",
"975 396 OFFCURVE",
"945 398 OFFCURVE",
"918 398 CURVE SMOOTH",
"829 398 LINE SMOOTH",
"817 398 OFFCURVE",
"813 401 OFFCURVE",
"813 418 CURVE",
"815 443 LINE",
"816 469 OFFCURVE",
"819 489 OFFCURVE",
"824 503 CURVE",
"825 504 OFFCURVE",
"826 507 OFFCURVE",
"828 510 CURVE",
"829 513 OFFCURVE",
"831 515 OFFCURVE",
"833 515 CURVE",
"848 516 OFFCURVE",
"865 517 OFFCURVE",
"884 520 CURVE",
"938 524 LINE",
"979 529 OFFCURVE",
"1013 531 OFFCURVE",
"1040 531 CURVE SMOOTH",
"1045 531 OFFCURVE",
"1049 531 OFFCURVE",
"1051 530 CURVE",
"1057 530 OFFCURVE",
"1061 533 OFFCURVE",
"1063 540 CURVE",
"1063 541 OFFCURVE",
"1063 543 OFFCURVE",
"1064 547 CURVE",
"1064 550 OFFCURVE",
"1064 554 OFFCURVE",
"1063 558 CURVE SMOOTH",
"1055 595 LINE",
"1050 627 OFFCURVE",
"1046 669 OFFCURVE",
"1025 669 CURVE",
"996 672 OFFCURVE",
"955 675 OFFCURVE",
"900 675 CURVE SMOOTH",
"856 675 LINE SMOOTH",
"816 675 OFFCURVE",
"736 674 OFFCURVE",
"676 673 CURVE",
"679 673 OFFCURVE",
"598 668 OFFCURVE",
"594 668 CURVE",
"545 686 OFFCURVE",
"511 695 OFFCURVE",
"453 695 CURVE SMOOTH",
"308 695 OFFCURVE",
"207 667 OFFCURVE",
"144 606 CURVE SMOOTH",
"80 545 OFFCURVE",
"50 450 OFFCURVE",
"50 313 CURVE SMOOTH",
"50 218 OFFCURVE",
"69 143 OFFCURVE",
"108 88 CURVE SMOOTH",
"176 -3 OFFCURVE",
"284 -24 OFFCURVE",
"443 -24 CURVE SMOOTH"
);
},
{
closed = 1;
nodes = (
"417 90 OFFCURVE",
"405 105 OFFCURVE",
"397 137 CURVE SMOOTH",
"386 181 OFFCURVE",
"382 252 OFFCURVE",
"382 321 CURVE SMOOTH",
"382 424 OFFCURVE",
"383 487 OFFCURVE",
"397 530 CURVE SMOOTH",
"405 555 OFFCURVE",
"417 568 OFFCURVE",
"432 568 CURVE SMOOTH",
"440 568 OFFCURVE",
"448 563 OFFCURVE",
"455 553 CURVE",
"477 510 OFFCURVE",
"480 459 OFFCURVE",
"484 362 CURVE",
"484 339 LINE",
"484 303 LINE SMOOTH",
"484 204 OFFCURVE",
"477 143 OFFCURVE",
"455 104 CURVE",
"447 94 OFFCURVE",
"441 90 OFFCURVE",
"432 90 CURVE SMOOTH"
);
}
);
width = 1210;
}
);
note = OE;
unicode = 0152;
},
{
glyphname = P;
lastChange = "2017-08-01 14:46:55 +0000";
layers = (
{
layerId = "CBDECE4A-293B-4E5C-B714-A3FD26C7130D";
paths = (
{
closed = 1;
nodes = (
"172 2 OFFCURVE",
"209 3 OFFCURVE",
"255 3 CURVE",
"266 4 OFFCURVE",
"287 4 OFFCURVE",
"316 4 CURVE SMOOTH",
"356 4 OFFCURVE",
"371 11 OFFCURVE",
"371 55 CURVE SMOOTH",
"371 69 OFFCURVE",
"371 80 OFFCURVE",
"372 89 CURVE",
"372 97 OFFCURVE",
"372 104 OFFCURVE",
"372 110 CURVE SMOOTH",
"372 127 OFFCURVE",
"372 144 OFFCURVE",
"371 159 CURVE",
"508 159 LINE SMOOTH",
"598 159 OFFCURVE",
"666 180 OFFCURVE",
"711 223 CURVE",
"762 268 OFFCURVE",
"788 342 OFFCURVE",
"788 443 CURVE SMOOTH",
"788 503 OFFCURVE",
"772 551 OFFCURVE",
"741 586 CURVE SMOOTH",
"684 650 OFFCURVE",
"596 673 OFFCURVE",
"512 673 CURVE SMOOTH",
"486 673 OFFCURVE",
"453 672 OFFCURVE",
"413 671 CURVE SMOOTH",
"376 670 LINE SMOOTH",
"349 669 OFFCURVE",
"310 669 OFFCURVE",
"260 669 CURVE SMOOTH",
"225 669 OFFCURVE",
"197 669 OFFCURVE",
"176 670 CURVE",
"61 671 LINE SMOOTH",
"49 671 OFFCURVE",
"35 657 OFFCURVE",
"35 645 CURVE SMOOTH",
"35 425 LINE SMOOTH",
"35 352 OFFCURVE",
"37 283 OFFCURVE",
"38 218 CURVE SMOOTH",
"39 173 OFFCURVE",
"40 121 OFFCURVE",
"40 63 CURVE SMOOTH",
"40 44 OFFCURVE",
"42 30 OFFCURVE",
"45 23 CURVE",
"48 8 OFFCURVE",
"56 1 OFFCURVE",
"67 1 CURVE SMOOTH",
"145 1 LINE"
);
},
{
closed = 1;
nodes = (
"384 270 LINE",
"382 271 OFFCURVE",
"381 271 OFFCURVE",
"380 272 CURVE SMOOTH",
"379 273 OFFCURVE",
"379 273 OFFCURVE",
"379 273 CURVE",
"379 334 OFFCURVE",
"382 383 OFFCURVE",
"384 420 CURVE SMOOTH",
"388 490 OFFCURVE",
"380 537 OFFCURVE",
"396 561 CURVE",
"400 569 OFFCURVE",
"424 563 OFFCURVE",
"432 563 CURVE",
"445 563 OFFCURVE",
"452 554 OFFCURVE",
"459 540 CURVE SMOOTH",
"466 526 OFFCURVE",
"474 486 OFFCURVE",
"474 465 CURVE SMOOTH",
"474 454 LINE SMOOTH",
"474 430 OFFCURVE",
"473 408 OFFCURVE",
"472 389 CURVE SMOOTH",
"468 318 OFFCURVE",
"456 269 OFFCURVE",
"426 269 CURVE SMOOTH",
"397 269 LINE"
);
}
);
width = 803;
}
);
note = P;
unicode = 0050;
},
{
glyphname = Thorn;
lastChange = "2017-06-15 13:29:11 +0000";
layers = (
{
layerId = "CBDECE4A-293B-4E5C-B714-A3FD26C7130D";
paths = (
{
closed = 1;
nodes = (
"165 -19 OFFCURVE",
"231 -19 OFFCURVE",
"278 -16 CURVE",
"338 -16 LINE SMOOTH",
"379 -16 OFFCURVE",
"394 -9 OFFCURVE",
"394 36 CURVE SMOOTH",
"394 65 OFFCURVE",
"394 72 OFFCURVE",
"394 139 CURVE",
"530 139 LINE SMOOTH",
"711 139 OFFCURVE",
"811 217 OFFCURVE",
"811 398 CURVE SMOOTH",
"811 450 OFFCURVE",
"795 491 OFFCURVE",
"763 521 CURVE SMOOTH",
"709 571 OFFCURVE",
"625 593 OFFCURVE",
"534 593 CURVE SMOOTH",
"395 593 LINE",
"395 604 LINE",
"394 607 OFFCURVE",
"394 611 OFFCURVE",
"394 616 CURVE SMOOTH",
"394 668 LINE SMOOTH",
"394 715 OFFCURVE",
"378 720 OFFCURVE",
"338 720 CURVE SMOOTH",
"278 720 LINE",
"266 721 OFFCURVE",
"248 721 OFFCURVE",
"225 721 CURVE",
"201 722 OFFCURVE",
"156 723 OFFCURVE",
"89 723 CURVE SMOOTH",
"78 723 OFFCURVE",
"71 715 OFFCURVE",
"68 703 CURVE",
"65 694 OFFCURVE",
"63 681 OFFCURVE",
"63 663 CURVE SMOOTH",
"63 618 LINE SMOOTH",
"63 605 OFFCURVE",
"63 596 OFFCURVE",
"62 589 CURVE",
"61 554 LINE",
"60 512 LINE SMOOTH",
"59 465 OFFCURVE",
"58 429 OFFCURVE",
"58 404 CURVE SMOOTH",
"58 353 LINE",
"59 261 LINE SMOOTH",
"60 185 OFFCURVE",
"62 131 OFFCURVE",
"63 98 CURVE SMOOTH",
"63 43 LINE SMOOTH",
"63 24 OFFCURVE",
"65 10 OFFCURVE",
"68 3 CURVE",
"71 -10 OFFCURVE",
"78 -19 OFFCURVE",
"89 -19 CURVE SMOOTH"
);
},
{
closed = 1;
nodes = (
"433 234 OFFCURVE",
"424 234 OFFCURVE",
"420 235 CURVE",
"413 235 OFFCURVE",
"409 235 OFFCURVE",
"408 236 CURVE",
"406 236 OFFCURVE",
"404 236 OFFCURVE",
"403 237 CURVE SMOOTH",
"402 238 OFFCURVE",
"401 238 OFFCURVE",
"401 238 CURVE",
"402 279 OFFCURVE",
"403 308 OFFCURVE",
"403 325 CURVE SMOOTH",
"404 368 LINE SMOOTH",
"404 389 OFFCURVE",
"407 459 OFFCURVE",
"415 488 CURVE",
"416 489 OFFCURVE",
"417 491 OFFCURVE",
"418 494 CURVE SMOOTH",
"419 497 OFFCURVE",
"421 499 OFFCURVE",
"423 499 CURVE SMOOTH",
"435 499 OFFCURVE",
"445 497 OFFCURVE",
"453 493 CURVE",
"482 477 OFFCURVE",
"493 443 OFFCURVE",
"493 428 CURVE SMOOTH",
"493 419 LINE SMOOTH",
"493 371 OFFCURVE",
"490 311 OFFCURVE",
"479 274 CURVE SMOOTH",
"472 250 OFFCURVE",
"461 234 OFFCURVE",
"446 234 CURVE SMOOTH"
);
}
);
width = 828;
}
);
note = Thorn;
unicode = 00DE;
},
{
glyphname = Q;
lastChange = "2017-07-31 14:18:53 +0000";
layers = (
{
layerId = "CBDECE4A-293B-4E5C-B714-A3FD26C7130D";
paths = (
{
closed = 1;
nodes = (
"463 -203 LINE SMOOTH",
"466 -203 OFFCURVE",
"467 -201 OFFCURVE",
"467 -199 CURVE",
"471 -199 OFFCURVE",
"475 -198 OFFCURVE",
"480 -197 CURVE SMOOTH",
"497 -194 OFFCURVE",
"513 -189 OFFCURVE",
"529 -183 CURVE",
"532 -181 OFFCURVE",
"535 -180 OFFCURVE",
"538 -179 CURVE",
"540 -179 OFFCURVE",
"541 -179 OFFCURVE",
"542 -179 CURVE",
"549 -177 OFFCURVE",
"556 -175 OFFCURVE",
"562 -172 CURVE",
"580 -167 LINE",
"583 -165 OFFCURVE",
"586 -163 OFFCURVE",
"590 -160 CURVE",
"594 -159 OFFCURVE",
"598 -156 OFFCURVE",
"603 -153 CURVE",
"632 -139 LINE",
"655 -122 OFFCURVE",
"665 -114 OFFCURVE",
"665 -102 CURVE SMOOTH",
"665 -84 OFFCURVE",
"643 -53 OFFCURVE",
"599 4 CURVE",
"719 45 OFFCURVE",
"783 147 OFFCURVE",
"783 380 CURVE SMOOTH",
"783 526 OFFCURVE",
"701 639 OFFCURVE",
"577 685 CURVE SMOOTH",
"528 703 OFFCURVE",
"474 709 OFFCURVE",
"417 709 CURVE SMOOTH",
"272 709 OFFCURVE",
"172 682 OFFCURVE",
"109 623 CURVE SMOOTH",
"45 563 OFFCURVE",
"15 441 OFFCURVE",
"15 339 CURVE SMOOTH",
"15 226 OFFCURVE",
"29 160 OFFCURVE",
"58 113 CURVE",
"106 27 OFFCURVE",
"200 -10 OFFCURVE",
"319 -16 CURVE",
"326 -27 OFFCURVE",
"331 -37 OFFCURVE",
"334 -43 CURVE",
"413 -169 LINE",
"417 -172 LINE",
"418 -173 OFFCURVE",
"419 -174 OFFCURVE",
"422 -174 CURVE",
"425 -179 LINE",
"438 -193 OFFCURVE",
"446 -199 OFFCURVE",
"450 -200 CURVE",
"454 -202 OFFCURVE",
"456 -203 OFFCURVE",
"457 -203 CURVE SMOOTH",
"459 -203 LINE"
);
},
{
closed = 1;
nodes = (
"391 100 OFFCURVE",
"374 114 OFFCURVE",
"362 146 CURVE SMOOTH",
"350 177 OFFCURVE",
"349 209 OFFCURVE",
"346 241 CURVE",
"343 263 OFFCURVE",
"342 291 OFFCURVE",
"342 324 CURVE SMOOTH",
"342 374 OFFCURVE",
"343 410 OFFCURVE",
"346 435 CURVE",
"349 467 OFFCURVE",
"352 499 OFFCURVE",
"362 527 CURVE",
"374 552 OFFCURVE",
"392 564 OFFCURVE",
"412 564 CURVE SMOOTH",
"423 564 OFFCURVE",
"433 559 OFFCURVE",
"443 549 CURVE",
"478 502 OFFCURVE",
"477 459 OFFCURVE",
"484 364 CURVE",
"484 342 LINE",
"484 307 LINE SMOOTH",
"484 211 OFFCURVE",
"475 155 OFFCURVE",
"443 112 CURVE",
"433 104 OFFCURVE",
"423 100 OFFCURVE",
"412 100 CURVE SMOOTH"
);
}
);
width = 798;
}
);
note = Q;
unicode = 0051;
},
{
glyphname = R;
lastChange = "2017-07-31 17:46:03 +0000";
layers = (
{
layerId = "CBDECE4A-293B-4E5C-B714-A3FD26C7130D";
paths = (
{
closed = 1;
nodes = (
"557 -35 LINE SMOOTH",
"559 -35 OFFCURVE",
"559 -33 OFFCURVE",
"560 -31 CURVE",
"564 -31 LINE SMOOTH",
"567 -31 OFFCURVE",
"572 -30 OFFCURVE",
"575 -27 CURVE",
"582 -26 OFFCURVE",
"587 -25 OFFCURVE",
"590 -23 CURVE",
"605 -19 OFFCURVE",
"614 -16 OFFCURVE",
"617 -14 CURVE SMOOTH",
"619 -13 OFFCURVE",
"621 -13 OFFCURVE",
"621 -12 CURVE SMOOTH",
"621 -11 OFFCURVE",
"622 -11 OFFCURVE",
"623 -11 CURVE",
"636 -7 OFFCURVE",
"648 -4 OFFCURVE",
"659 4 CURVE SMOOTH",
"688 25 LINE",
"692 29 OFFCURVE",
"699 33 OFFCURVE",
"708 37 CURVE",
"717 41 OFFCURVE",
"724 46 OFFCURVE",
"731 51 CURVE SMOOTH",
"750 64 OFFCURVE",
"758 72 OFFCURVE",
"758 83 CURVE SMOOTH",
"758 87 OFFCURVE",
"756 92 OFFCURVE",
"752 100 CURVE",
"747 111 OFFCURVE",
"733 127 OFFCURVE",
"718 150 CURVE SMOOTH",
"691 190 LINE",
"688 193 OFFCURVE",
"687 196 OFFCURVE",
"684 199 CURVE SMOOTH",
"682 201 OFFCURVE",
"680 203 OFFCURVE",
"678 205 CURVE",
"667 219 LINE SMOOTH",
"662 226 OFFCURVE",
"657 224 OFFCURVE",
"655 230 CURVE SMOOTH",
"652 239 OFFCURVE",
"645 248 OFFCURVE",
"641 250 CURVE",
"659 258 OFFCURVE",
"675 269 OFFCURVE",
"689 283 CURVE SMOOTH",
"718 312 OFFCURVE",
"737 351 OFFCURVE",
"737 402 CURVE SMOOTH",
"737 446 OFFCURVE",
"721 487 OFFCURVE",
"687 515 CURVE",
"651 548 OFFCURVE",
"596 566 OFFCURVE",
"524 569 CURVE",
"507 569 OFFCURVE",
"451 570 OFFCURVE",
"406 571 CURVE SMOOTH",
"374 572 LINE SMOOTH",
"344 573 OFFCURVE",
"323 573 OFFCURVE",
"308 573 CURVE SMOOTH",
"243 573 OFFCURVE",
"179 576 OFFCURVE",
"116 576 CURVE SMOOTH",
"104 576 OFFCURVE",
"96 566 OFFCURVE",
"91 546 CURVE",
"87 532 OFFCURVE",
"85 508 OFFCURVE",
"85 477 CURVE SMOOTH",
"85 456 OFFCURVE",
"86 438 OFFCURVE",
"88 424 CURVE",
"89 401 OFFCURVE",
"90 384 OFFCURVE",
"90 373 CURVE",
"89 363 LINE",
"88 348 LINE",
"88 340 OFFCURVE",
"88 335 OFFCURVE",
"87 332 CURVE",
"87 328 OFFCURVE",
"87 326 OFFCURVE",
"87 325 CURVE",
"86 324 OFFCURVE",
"86 323 OFFCURVE",
"86 322 CURVE SMOOTH",
"86 302 OFFCURVE",
"85 281 OFFCURVE",
"88 258 CURVE SMOOTH",
"90 240 LINE SMOOTH",
"91 229 OFFCURVE",
"93 213 OFFCURVE",
"93 193 CURVE",
"95 162 LINE SMOOTH",
"97 126 OFFCURVE",
"100 101 OFFCURVE",
"101 86 CURVE",
"100 94 OFFCURVE",
"100 64 OFFCURVE",
"104 29 CURVE SMOOTH",
"105 20 OFFCURVE",
"106 14 OFFCURVE",
"106 11 CURVE SMOOTH",
"106 8 OFFCURVE",
"106 6 OFFCURVE",
"107 4 CURVE",
"107 3 OFFCURVE",
"107 2 OFFCURVE",
"107 1 CURVE",
"109 -6 LINE",
"139 -16 LINE",
"147 -16 LINE",
"162 -16 LINE",
"180 -16 LINE",
"184 -17 OFFCURVE",
"188 -18 OFFCURVE",
"194 -18 CURVE SMOOTH",
"234 -18 OFFCURVE",
"329 -12 OFFCURVE",
"369 -8 CURVE",
"369 -8 OFFCURVE",
"369 -8 OFFCURVE",
"370 -8 CURVE",
"371 -9 OFFCURVE",
"372 -9 OFFCURVE",
"373 -10 CURVE",
"378 -10 LINE SMOOTH",
"381 -10 OFFCURVE",
"384 -7 OFFCURVE",
"385 1 CURVE",
"388 16 OFFCURVE",
"390 36 OFFCURVE",
"390 60 CURVE SMOOTH",
"390 86 OFFCURVE",
"390 123 OFFCURVE",
"392 138 CURVE SMOOTH",
"393 144 OFFCURVE",
"395 148 OFFCURVE",
"398 148 CURVE SMOOTH",
"400 148 OFFCURVE",
"402 146 OFFCURVE",
"405 143 CURVE",
"407 138 OFFCURVE",
"410 134 OFFCURVE",
"415 130 CURVE",
"421 122 OFFCURVE",
"426 114 OFFCURVE",
"429 107 CURVE",
"514 -7 LINE",
"514 -7 OFFCURVE",
"515 -8 OFFCURVE",
"518 -11 CURVE",
"519 -11 LINE",
"520 -11 OFFCURVE",
"521 -12 OFFCURVE",
"522 -13 CURVE",
"523 -13 OFFCURVE",
"523 -15 OFFCURVE",
"525 -17 CURVE",
"531 -23 OFFCURVE",
"538 -29 OFFCURVE",
"546 -34 CURVE",
"548 -35 OFFCURVE",
"549 -35 OFFCURVE",
"552 -35 CURVE SMOOTH",
"554 -35 LINE"
);
},
{
closed = 1;
nodes = (
"382 270 LINE",
"381 270 OFFCURVE",
"380 271 OFFCURVE",
"380 272 CURVE SMOOTH",
"380 293 OFFCURVE",
"380 320 OFFCURVE",
"381 353 CURVE SMOOTH",
"382 378 LINE SMOOTH",
"383 393 OFFCURVE",
"383 406 OFFCURVE",
"385 417 CURVE",
"386 444 OFFCURVE",
"389 463 OFFCURVE",
"394 476 CURVE",
"395 482 OFFCURVE",
"398 486 OFFCURVE",
"400 486 CURVE SMOOTH",
"410 486 OFFCURVE",
"419 483 OFFCURVE",
"425 478 CURVE",
"452 462 OFFCURVE",
"451 425 OFFCURVE",
"451 399 CURVE SMOOTH",
"451 390 LINE SMOOTH",
"451 374 OFFCURVE",
"450 360 OFFCURVE",
"449 348 CURVE SMOOTH",
"446 308 OFFCURVE",
"435 269 OFFCURVE",
"400 269 CURVE SMOOTH",
"388 269 LINE"
);
}
);
width = 854;
}
);
note = R;
unicode = 0052;
},
{
glyphname = S;
lastChange = "2017-07-31 17:49:21 +0000";
layers = (
{
layerId = "CBDECE4A-293B-4E5C-B714-A3FD26C7130D";
paths = (
{
closed = 1;
nodes = (
"372 -17 OFFCURVE",
"413 -11 OFFCURVE",
"448 2 CURVE",
"486 15 OFFCURVE",
"520 35 OFFCURVE",
"547 63 CURVE",
"573 94 OFFCURVE",
"588 131 OFFCURVE",
"592 173 CURVE",
"595 215 OFFCURVE",
"585 263 OFFCURVE",
"553 294 CURVE SMOOTH",
"522 324 OFFCURVE",
"489 344 OFFCURVE",
"450 357 CURVE",
"448 358 OFFCURVE",
"443 360 OFFCURVE",
"434 364 CURVE",
"426 366 OFFCURVE",
"418 372 OFFCURVE",
"411 375 CURVE",
"393 385 OFFCURVE",
"385 398 OFFCURVE",
"385 413 CURVE SMOOTH",
"385 435 OFFCURVE",
"471 427 OFFCURVE",
"486 427 CURVE SMOOTH",
"489 427 LINE",
"498 427 LINE",
"572 418 LINE",
"585 427 OFFCURVE",
"589 444 OFFCURVE",
"589 473 CURVE SMOOTH",
"589 488 OFFCURVE",
"588 503 OFFCURVE",
"586 519 CURVE",
"585 526 OFFCURVE",
"584 535 OFFCURVE",
"584 545 CURVE",
"582 564 LINE",
"581 564 LINE",
"580 564 LINE SMOOTH",
"579 564 OFFCURVE",
"577 565 OFFCURVE",
"574 570 CURVE",
"573 571 OFFCURVE",
"572 572 OFFCURVE",
"571 573 CURVE",
"570 573 OFFCURVE",
"569 574 OFFCURVE",
"568 574 CURVE SMOOTH",
"560 574 OFFCURVE",
"547 575 OFFCURVE",
"528 579 CURVE SMOOTH",
"505 584 LINE",
"495 585 OFFCURVE",
"488 587 OFFCURVE",
"483 588 CURVE",
"436 595 OFFCURVE",
"406 598 OFFCURVE",
"379 598 CURVE SMOOTH",
"332 598 OFFCURVE",
"291 593 OFFCURVE",
"254 582 CURVE SMOOTH",
"166 556 OFFCURVE",
"105 503 OFFCURVE",
"105 402 CURVE SMOOTH",
"105 317 OFFCURVE",
"182 240 OFFCURVE",
"262 230 CURVE SMOOTH",
"316 223 OFFCURVE",
"332 185 OFFCURVE",
"288 167 CURVE SMOOTH",
"276 162 OFFCURVE",
"264 161 OFFCURVE",
"251 161 CURVE",
"237 162 LINE",
"212 162 LINE SMOOTH",
"189 162 OFFCURVE",
"156 174 OFFCURVE",
"115 200 CURVE",
"109 197 OFFCURVE",
"105 191 OFFCURVE",
"104 185 CURVE",
"104 183 LINE",
"114 107 OFFCURVE",
"119 76 OFFCURVE",
"129 35 CURVE",
"179 2 OFFCURVE",
"247 -17 OFFCURVE",
"324 -17 CURVE SMOOTH"
);
}
);
width = 669;
}
);
note = S;
unicode = 0053;
},
{
glyphname = Scedilla;
lastChange = "2017-07-18 18:43:25 +0000";
layers = (
{
layerId = "CBDECE4A-293B-4E5C-B714-A3FD26C7130D";
paths = (
{
closed = 1;
nodes = (
"585 371 OFFCURVE",
"542 395 OFFCURVE",
"493 409 CURVE",
"490 410 OFFCURVE",
"484 413 OFFCURVE",
"474 417 CURVE",
"464 420 OFFCURVE",
"454 425 OFFCURVE",
"444 430 CURVE",
"423 444 OFFCURVE",
"413 459 OFFCURVE",
"413 475 CURVE SMOOTH",
"413 476 OFFCURVE",
"417 478 OFFCURVE",
"425 479 CURVE",
"458 486 LINE",
"487 491 OFFCURVE",
"513 493 OFFCURVE",
"536 493 CURVE SMOOTH",
"550 493 LINE",
"560 493 LINE",
"653 481 LINE",
"670 493 OFFCURVE",
"674 513 OFFCURVE",
"674 546 CURVE SMOOTH",
"674 565 OFFCURVE",
"673 583 OFFCURVE",
"671 600 CURVE",
"669 611 OFFCURVE",
"668 622 OFFCURVE",
"668 632 CURVE",
"666 653 LINE",
"665 653 LINE",
"664 653 LINE SMOOTH",
"661 653 OFFCURVE",
"659 655 OFFCURVE",
"656 660 CURVE",
"655 661 OFFCURVE",
"653 663 OFFCURVE",
"652 665 CURVE",
"650 667 OFFCURVE",
"649 668 OFFCURVE",
"648 668 CURVE SMOOTH",
"637 668 OFFCURVE",
"621 670 OFFCURVE",
"598 674 CURVE SMOOTH",
"568 680 LINE",
"557 681 OFFCURVE",
"549 683 OFFCURVE",
"543 684 CURVE",
"484 691 OFFCURVE",
"438 695 OFFCURVE",
"405 695 CURVE SMOOTH",
"348 695 OFFCURVE",
"296 689 OFFCURVE",
"249 678 CURVE SMOOTH",
"140 650 OFFCURVE",
"64 583 OFFCURVE",
"64 463 CURVE SMOOTH",
"64 414 OFFCURVE",
"80 350 OFFCURVE",
"148 301 CURVE",
"181 279 OFFCURVE",
"217 258 OFFCURVE",
"258 239 CURVE SMOOTH",
"311 213 LINE",
"308 204 OFFCURVE",
"302 197 OFFCURVE",
"293 194 CURVE SMOOTH",
"277 189 OFFCURVE",
"261 187 OFFCURVE",
"246 187 CURVE",
"230 188 LINE",
"206 188 LINE SMOOTH",
"150 188 OFFCURVE",
"107 203 OFFCURVE",
"56 234 CURVE",
"49 230 OFFCURVE",
"44 224 OFFCURVE",
"43 216 CURVE",
"43 213 LINE",
"55 124 OFFCURVE",
"60 86 OFFCURVE",
"76 38 CURVE",
"107 19 OFFCURVE",
"146 3 OFFCURVE",
"193 -8 CURVE SMOOTH",
"226 -15 OFFCURVE",
"255 -19 OFFCURVE",
"280 -21 CURVE",
"271 -88 LINE",
"269 -128 LINE",
"282 -122 OFFCURVE",
"296 -119 OFFCURVE",
"311 -119 CURVE SMOOTH",
"350 -119 OFFCURVE",
"374 -138 OFFCURVE",
"374 -173 CURVE SMOOTH",
"374 -206 OFFCURVE",
"354 -239 OFFCURVE",
"309 -239 CURVE SMOOTH",
"284 -239 OFFCURVE",
"261 -234 OFFCURVE",
"240 -225 CURVE",
"239 -226 OFFCURVE",
"238 -229 OFFCURVE",
"236 -234 CURVE SMOOTH",
"234 -239 OFFCURVE",
"232 -246 OFFCURVE",
"229 -253 CURVE",
"219 -308 LINE",
"225 -315 OFFCURVE",
"234 -321 OFFCURVE",
"245 -325 CURVE SMOOTH",
"268 -333 OFFCURVE",
"289 -338 OFFCURVE",
"309 -338 CURVE SMOOTH",
"326 -338 LINE SMOOTH",
"495 -338 OFFCURVE",
"549 -271 OFFCURVE",
"549 -184 CURVE SMOOTH",
"549 -125 OFFCURVE",
"497 -75 OFFCURVE",
"384 -58 CURVE",
"389 -22 LINE",
"462 -15 OFFCURVE",
"548 6 OFFCURVE",
"613 71 CURVE",
"646 108 OFFCURVE",
"665 151 OFFCURVE",
"670 201 CURVE",
"673 212 OFFCURVE",
"674 223 OFFCURVE",
"674 233 CURVE SMOOTH",
"674 266 OFFCURVE",
"654 304 OFFCURVE",
"621 336 CURVE SMOOTH"
);
}
);
width = 721;
}
);
note = Scedilla;
unicode = 015E;
},
{
glyphname = uni1E9E;
lastChange = "2017-06-11 23:28:21 +0000";
layers = (
{
layerId = "CBDECE4A-293B-4E5C-B714-A3FD26C7130D";
paths = (
{
closed = 1;
nodes = (
"449 -13 LINE SMOOTH",
"547 -13 OFFCURVE",
"628 -4 OFFCURVE",
"693 13 CURVE SMOOTH",
"804 41 OFFCURVE",
"846 95 OFFCURVE",
"846 150 CURVE SMOOTH",
"846 161 OFFCURVE",
"845 167 OFFCURVE",
"844 171 CURVE",
"837 238 OFFCURVE",
"825 281 OFFCURVE",
"798 313 CURVE SMOOTH",
"771 346 OFFCURVE",
"730 366 OFFCURVE",
"666 378 CURVE",
"663 383 LINE",
"667 387 OFFCURVE",
"672 390 OFFCURVE",
"678 391 CURVE",
"680 392 OFFCURVE",
"683 393 OFFCURVE",
"686 394 CURVE SMOOTH",
"689 395 OFFCURVE",
"693 397 OFFCURVE",
"698 398 CURVE",
"738 423 OFFCURVE",
"756 458 OFFCURVE",
"756 506 CURVE SMOOTH",
"756 553 OFFCURVE",
"739 592 OFFCURVE",
"704 621 CURVE SMOOTH",
"647 668 OFFCURVE",
"581 676 OFFCURVE",
"496 688 CURVE SMOOTH",
"458 694 LINE",
"435 694 LINE SMOOTH",
"429 694 OFFCURVE",
"425 694 OFFCURVE",
"424 695 CURVE",
"418 695 LINE SMOOTH",
"415 695 OFFCURVE",
"413 695 OFFCURVE",
"411 696 CURVE",
"400 696 LINE",
"378 696 LINE SMOOTH",
"302 696 OFFCURVE",
"259 694 OFFCURVE",
"218 685 CURVE SMOOTH",
"166 673 OFFCURVE",
"127 648 OFFCURVE",
"100 604 CURVE SMOOTH",
"69 557 OFFCURVE",
"54 483 OFFCURVE",
"54 383 CURVE SMOOTH",
"54 364 OFFCURVE",
"55 335 OFFCURVE",
"58 296 CURVE SMOOTH",
"59 283 OFFCURVE",
"63 240 OFFCURVE",
"63 208 CURVE SMOOTH",
"63 190 LINE",
"63 158 LINE",
"60 142 OFFCURVE",
"60 113 OFFCURVE",
"60 80 CURVE SMOOTH",
"60 46 LINE",
"59 39 OFFCURVE",
"59 32 OFFCURVE",
"59 25 CURVE SMOOTH",
"59 20 OFFCURVE",
"63 16 OFFCURVE",
"70 13 CURVE",
"79 10 OFFCURVE",
"91 8 OFFCURVE",
"108 8 CURVE",
"126 6 OFFCURVE",
"150 5 OFFCURVE",
"180 5 CURVE SMOOTH",
"290 5 LINE",
"311 5 LINE",
"328 6 LINE",
"331 7 OFFCURVE",
"337 8 OFFCURVE",
"345 9 CURVE SMOOTH",
"360 11 OFFCURVE",
"370 9 OFFCURVE",
"383 25 CURVE",
"390 46 LINE",
"390 72 OFFCURVE",
"391 96 OFFCURVE",
"393 118 CURVE",
"394 190 LINE",
"394 241 LINE",
"393 255 LINE",
"393 278 LINE",
"391 295 OFFCURVE",
"390 308 OFFCURVE",
"390 316 CURVE",
"393 375 LINE",
"393 383 LINE",
"393 398 LINE",
"393 418 LINE",
"392 421 OFFCURVE",
"391 427 OFFCURVE",
"391 436 CURVE SMOOTH",
"391 451 LINE",
"391 458 LINE SMOOTH",
"391 475 OFFCURVE",
"391 496 OFFCURVE",
"398 508 CURVE",
"403 521 OFFCURVE",
"415 528 OFFCURVE",
"434 528 CURVE SMOOTH",
"459 528 OFFCURVE",
"479 526 OFFCURVE",
"494 523 CURVE",
"522 520 OFFCURVE",
"536 512 OFFCURVE",
"536 500 CURVE SMOOTH",
"536 491 OFFCURVE",
"535 483 OFFCURVE",
"533 478 CURVE",
"526 467 OFFCURVE",
"518 460 OFFCURVE",
"508 458 CURVE",
"495 453 LINE",
"494 453 OFFCURVE",
"492 452 OFFCURVE",
"490 451 CURVE",
"479 446 LINE",
"476 443 OFFCURVE",
"473 441 OFFCURVE",
"468 439 CURVE",
"465 438 OFFCURVE",
"461 436 OFFCURVE",
"456 433 CURVE",
"455 313 LINE",
"496 310 OFFCURVE",
"526 303 OFFCURVE",
"563 280 CURVE",
"574 278 OFFCURVE",
"579 273 OFFCURVE",
"579 266 CURVE SMOOTH",
"579 251 OFFCURVE",
"570 238 OFFCURVE",
"554 234 CURVE",
"536 231 OFFCURVE",
"518 229 OFFCURVE",
"500 228 CURVE",
"480 225 LINE",
"446 219 LINE",
"446 -13 LINE"
);
}
);
width = 885;
}
);
note = uni1E9E;
unicode = 1E9E;
},
{
glyphname = uni018F;
lastChange = "2017-06-11 23:28:21 +0000";
layers = (
{
layerId = "CBDECE4A-293B-4E5C-B714-A3FD26C7130D";
paths = (
{
closed = 1;
nodes = (
"573 -14 LINE SMOOTH",
"618 -9 OFFCURVE",
"660 10 OFFCURVE",
"697 42 CURVE SMOOTH",
"771 105 OFFCURVE",
"814 205 OFFCURVE",
"814 305 CURVE",
"813 388 LINE",
"813 437 OFFCURVE",
"801 483 OFFCURVE",
"778 525 CURVE SMOOTH",
"730 609 OFFCURVE",
"644 665 OFFCURVE",
"545 676 CURVE SMOOTH",
"454 686 LINE",
"321 688 LINE SMOOTH",
"260 688 OFFCURVE",
"150 674 OFFCURVE",
"95 661 CURVE",
"78 638 LINE",
"78 493 LINE",
"94 475 LINE",
"120 480 LINE SMOOTH",
"169 491 OFFCURVE",
"208 497 OFFCURVE",
"236 498 CURVE SMOOTH",
"308 503 LINE",
"329 503 LINE",
"343 500 OFFCURVE",
"352 499 OFFCURVE",
"357 498 CURVE",
"360 497 OFFCURVE",
"367 496 OFFCURVE",
"380 494 CURVE",
"392 491 OFFCURVE",
"403 488 OFFCURVE",
"413 483 CURVE",
"448 470 OFFCURVE",
"463 453 OFFCURVE",
"468 426 CURVE",
"473 386 LINE",
"474 355 LINE",
"433 353 LINE",
"311 351 LINE",
"65 353 LINE",
"46 333 LINE",
"46 235 LINE SMOOTH",
"46 188 OFFCURVE",
"59 145 OFFCURVE",
"85 107 CURVE SMOOTH",
"136 30 OFFCURVE",
"236 -18 OFFCURVE",
"368 -21 CURVE SMOOTH",
"494 -24 LINE"
);
},
{
closed = 1;
nodes = (
"415 73 OFFCURVE",
"403 90 OFFCURVE",
"396 125 CURVE SMOOTH",
"389 162 OFFCURVE",
"385 198 OFFCURVE",
"384 234 CURVE",
"478 241 LINE",
"478 225 OFFCURVE",
"476 208 OFFCURVE",
"473 189 CURVE SMOOTH",
"467 154 LINE SMOOTH",
"465 141 OFFCURVE",
"463 128 OFFCURVE",
"461 117 CURVE SMOOTH",
"456 93 OFFCURVE",
"446 73 OFFCURVE",
"430 73 CURVE SMOOTH"
);
}
);
width = 859;
}
);
note = uni018F;
unicode = 018F;
},
{
glyphname = T;
lastChange = "2017-07-31 17:54:00 +0000";
layers = (
{
layerId = "CBDECE4A-293B-4E5C-B714-A3FD26C7130D";
paths = (
{
closed = 1;
nodes = (
"235 -14 OFFCURVE",
"256 -14 OFFCURVE",
"267 -13 CURVE",
"359 -12 LINE",
"368 -11 OFFCURVE",
"384 -10 OFFCURVE",
"407 -10 CURVE",
"428 -9 LINE",
"431 -8 OFFCURVE",
"436 -7 OFFCURVE",
"444 -4 CURVE",
"452 1 OFFCURVE",
"456 13 OFFCURVE",
"456 33 CURVE SMOOTH",
"456 116 LINE",
"457 127 OFFCURVE",
"459 163 OFFCURVE",
"460 187 CURVE SMOOTH",
"461 213 LINE SMOOTH",
"463 270 OFFCURVE",
"465 307 OFFCURVE",
"465 324 CURVE",
"466 328 OFFCURVE",
"466 335 OFFCURVE",
"466 344 CURVE SMOOTH",
"466 373 LINE",
"466 391 LINE SMOOTH",
"466 391 OFFCURVE",
"466 391 OFFCURVE",
"467 391 CURVE SMOOTH",
"467 391 OFFCURVE",
"467 391 OFFCURVE",
"467 391 CURVE",
"468 391 OFFCURVE",
"471 391 OFFCURVE",
"476 391 CURVE SMOOTH",
"511 391 LINE",
"521 391 OFFCURVE",
"527 391 OFFCURVE",
"559 391 CURVE",
"587 391 LINE SMOOTH",
"598 391 OFFCURVE",
"608 391 OFFCURVE",
"608 408 CURVE SMOOTH",
"608 552 LINE SMOOTH",
"608 557 OFFCURVE",
"608 561 OFFCURVE",
"608 564 CURVE SMOOTH",
"608 569 OFFCURVE",
"599 573 OFFCURVE",
"588 574 CURVE",
"583 575 OFFCURVE",
"579 575 OFFCURVE",
"576 575 CURVE",
"569 576 OFFCURVE",
"555 576 OFFCURVE",
"532 576 CURVE SMOOTH",
"221 576 LINE",
"189 577 LINE",
"181 578 OFFCURVE",
"171 578 OFFCURVE",
"156 578 CURVE SMOOTH",
"64 578 LINE SMOOTH",
"53 578 OFFCURVE",
"44 577 OFFCURVE",
"38 575 CURVE SMOOTH",
"29 572 OFFCURVE",
"21 568 OFFCURVE",
"21 561 CURVE SMOOTH",
"21 553 LINE",
"21 540 LINE",
"20 536 OFFCURVE",
"20 532 OFFCURVE",
"20 526 CURVE SMOOTH",
"20 514 LINE SMOOTH",
"20 481 OFFCURVE",
"22 456 OFFCURVE",
"24 439 CURVE SMOOTH",
"28 408 OFFCURVE",
"37 391 OFFCURVE",
"52 391 CURVE SMOOTH",
"174 391 LINE",
"177 391 LINE",
"177 345 OFFCURVE",
"177 313 OFFCURVE",
"176 293 CURVE SMOOTH",
"173 230 OFFCURVE",
"173 156 OFFCURVE",
"173 107 CURVE SMOOTH",
"173 57 OFFCURVE",
"178 22 OFFCURVE",
"186 3 CURVE",
"191 -8 OFFCURVE",
"197 -14 OFFCURVE",
"205 -14 CURVE SMOOTH"
);
}
);
width = 676;
}
);
note = T;
unicode = 0054;
},
{
glyphname = Tbar;
lastChange = "2017-06-11 23:28:21 +0000";
layers = (
{
layerId = "CBDECE4A-293B-4E5C-B714-A3FD26C7130D";
paths = (
{
closed = 1;
nodes = (
"256 -1 OFFCURVE",
"280 -1 OFFCURVE",
"293 0 CURVE",
"398 1 LINE",
"409 2 OFFCURVE",
"427 3 OFFCURVE",
"453 3 CURVE",
"478 4 LINE",
"481 5 OFFCURVE",
"487 7 OFFCURVE",
"496 10 CURVE",
"505 16 OFFCURVE",
"510 30 OFFCURVE",
"510 53 CURVE SMOOTH",
"510 148 LINE",
"513 189 LINE",
"523 188 OFFCURVE",
"545 188 OFFCURVE",
"579 188 CURVE SMOOTH",
"603 188 OFFCURVE",
"608 203 OFFCURVE",
"608 230 CURVE SMOOTH",
"608 248 LINE",
"608 259 LINE",
"608 268 LINE",
"607 269 OFFCURVE",
"606 272 OFFCURVE",
"606 275 CURVE",
"605 305 LINE",
"605 322 OFFCURVE",
"579 324 OFFCURVE",
"539 324 CURVE SMOOTH",
"519 324 LINE",
"521 389 LINE",
"521 423 LINE",
"521 438 LINE SMOOTH",
"521 439 OFFCURVE",
"521 441 OFFCURVE",
"522 442 CURVE SMOOTH",
"523 443 OFFCURVE",
"523 443 OFFCURVE",
"523 444 CURVE",
"524 447 OFFCURVE",
"527 448 OFFCURVE",
"533 448 CURVE SMOOTH",
"563 448 LINE",
"571 447 OFFCURVE",
"583 446 OFFCURVE",
"598 446 CURVE SMOOTH",
"663 446 LINE SMOOTH",
"676 446 OFFCURVE",
"688 448 OFFCURVE",
"688 463 CURVE SMOOTH",
"688 628 LINE SMOOTH",
"688 634 OFFCURVE",
"688 639 OFFCURVE",
"687 642 CURVE SMOOTH",
"685 648 OFFCURVE",
"677 652 OFFCURVE",
"665 653 CURVE",
"659 654 OFFCURVE",
"654 654 OFFCURVE",
"651 655 CURVE",
"643 656 OFFCURVE",
"626 656 OFFCURVE",
"600 656 CURVE SMOOTH",
"240 656 LINE",
"203 657 LINE",
"194 658 OFFCURVE",
"182 658 OFFCURVE",
"165 658 CURVE SMOOTH",
"89 658 LINE SMOOTH",
"76 658 OFFCURVE",
"66 657 OFFCURVE",
"59 655 CURVE SMOOTH",
"48 652 OFFCURVE",
"39 646 OFFCURVE",
"39 638 CURVE SMOOTH",
"39 629 LINE",
"39 614 LINE",
"38 610 OFFCURVE",
"38 605 OFFCURVE",
"38 598 CURVE SMOOTH",
"38 584 LINE SMOOTH",
"38 547 OFFCURVE",
"40 518 OFFCURVE",
"43 498 CURVE SMOOTH",
"48 463 OFFCURVE",
"58 443 OFFCURVE",
"75 443 CURVE SMOOTH",
"186 443 LINE",
"189 439 LINE",
"189 390 OFFCURVE",
"189 354 OFFCURVE",
"188 330 CURVE",
"188 328 LINE",
"123 328 LINE SMOOTH",
"120 328 OFFCURVE",
"113 326 OFFCURVE",
"103 323 CURVE",
"102 322 OFFCURVE",
"93 314 OFFCURVE",
"93 310 CURVE SMOOTH",
"93 297 OFFCURVE",
"93 288 OFFCURVE",
"94 283 CURVE",
"94 261 LINE",
"94 238 LINE",
"94 211 LINE SMOOTH",
"94 206 OFFCURVE",
"97 201 OFFCURVE",
"103 198 CURVE SMOOTH",
"113 193 OFFCURVE",
"130 191 OFFCURVE",
"154 191 CURVE SMOOTH",
"185 191 LINE",
"185 138 LINE SMOOTH",
"185 80 OFFCURVE",
"190 40 OFFCURVE",
"200 18 CURVE",
"205 5 OFFCURVE",
"212 -1 OFFCURVE",
"221 -1 CURVE SMOOTH"
);
}
);
width = 723;
}
);
note = Tbar;
unicode = 0166;
},
{
glyphname = uni0162;
lastChange = "2017-07-18 18:43:53 +0000";
layers = (
{
layerId = "CBDECE4A-293B-4E5C-B714-A3FD26C7130D";
paths = (
{
closed = 1;
nodes = (
"675 651 OFFCURVE",
"671 652 OFFCURVE",
"665 653 CURVE SMOOTH",
"659 654 OFFCURVE",
"654 654 OFFCURVE",
"651 655 CURVE",
"643 656 OFFCURVE",
"626 656 OFFCURVE",
"600 656 CURVE SMOOTH",
"240 656 LINE",
"203 657 LINE",
"194 658 OFFCURVE",
"182 658 OFFCURVE",
"165 658 CURVE SMOOTH",
"89 658 LINE SMOOTH",
"76 658 OFFCURVE",
"66 657 OFFCURVE",
"59 655 CURVE SMOOTH",
"48 652 OFFCURVE",
"39 646 OFFCURVE",
"39 638 CURVE SMOOTH",
"39 629 LINE",
"39 614 LINE",
"38 610 OFFCURVE",
"38 605 OFFCURVE",
"38 598 CURVE SMOOTH",
"38 584 LINE SMOOTH",
"38 547 OFFCURVE",
"40 518 OFFCURVE",
"43 498 CURVE SMOOTH",
"48 463 OFFCURVE",
"58 443 OFFCURVE",
"75 443 CURVE SMOOTH",
"186 443 LINE",
"189 439 LINE",
"189 390 OFFCURVE",
"189 354 OFFCURVE",
"188 331 CURVE SMOOTH",
"186 258 OFFCURVE",
"185 194 OFFCURVE",
"185 138 CURVE SMOOTH",
"185 80 OFFCURVE",
"190 40 OFFCURVE",
"200 18 CURVE",
"205 5 OFFCURVE",
"212 -1 OFFCURVE",
"221 -1 CURVE SMOOTH",
"256 -1 OFFCURVE",
"250 -1 OFFCURVE",
"263 0 CURVE",
"274 0 LINE",
"261 -78 LINE",
"259 -118 LINE",
"272 -112 OFFCURVE",
"286 -109 OFFCURVE",
"301 -109 CURVE SMOOTH",
"340 -109 OFFCURVE",
"364 -128 OFFCURVE",
"364 -163 CURVE SMOOTH",
"364 -196 OFFCURVE",
"344 -229 OFFCURVE",
"299 -229 CURVE SMOOTH",
"274 -229 OFFCURVE",
"251 -224 OFFCURVE",
"230 -215 CURVE",
"229 -216 OFFCURVE",
"228 -219 OFFCURVE",
"226 -224 CURVE SMOOTH",
"224 -229 OFFCURVE",
"222 -236 OFFCURVE",
"219 -243 CURVE",
"209 -298 LINE",
"215 -305 OFFCURVE",
"224 -311 OFFCURVE",
"235 -315 CURVE SMOOTH",
"258 -323 OFFCURVE",
"279 -328 OFFCURVE",
"299 -328 CURVE SMOOTH",
"316 -328 LINE SMOOTH",
"485 -328 OFFCURVE",
"539 -261 OFFCURVE",
"539 -174 CURVE SMOOTH",
"539 -115 OFFCURVE",
"487 -65 OFFCURVE",
"374 -48 CURVE",
"384 2 LINE",
"392 3 OFFCURVE",
"435 3 OFFCURVE",
"453 3 CURVE",
"478 4 LINE",
"481 5 OFFCURVE",
"487 7 OFFCURVE",
"496 10 CURVE",
"505 16 OFFCURVE",
"510 30 OFFCURVE",
"510 53 CURVE SMOOTH",
"510 148 LINE",
"511 161 OFFCURVE",
"513 181 OFFCURVE",
"514 209 CURVE SMOOTH",
"516 239 LINE SMOOTH",
"519 304 OFFCURVE",
"520 347 OFFCURVE",
"520 366 CURVE",
"521 371 OFFCURVE",
"521 379 OFFCURVE",
"521 389 CURVE SMOOTH",
"521 423 LINE",
"521 438 LINE SMOOTH",
"521 439 OFFCURVE",
"521 441 OFFCURVE",
"522 442 CURVE SMOOTH",
"523 443 OFFCURVE",
"523 443 OFFCURVE",
"523 444 CURVE",
"524 447 OFFCURVE",
"527 448 OFFCURVE",
"533 448 CURVE SMOOTH",
"563 448 LINE",
"571 447 OFFCURVE",
"583 446 OFFCURVE",
"598 446 CURVE SMOOTH",
"631 446 LINE",
"663 446 LINE SMOOTH",
"676 446 OFFCURVE",
"688 448 OFFCURVE",
"688 463 CURVE SMOOTH",
"688 628 LINE SMOOTH",
"688 640 OFFCURVE",
"687 645 OFFCURVE",
"678 649 CURVE"
);
}
);
width = 723;
}
);
note = uni0162;
unicode = 0162;
},
{
glyphname = U;
lastChange = "2017-07-31 18:07:50 +0000";
layers = (
{
layerId = "CBDECE4A-293B-4E5C-B714-A3FD26C7130D";
paths = (
{
closed = 1;
nodes = (
"316 -14 OFFCURVE",
"328 -14 OFFCURVE",
"343 -14 CURVE SMOOTH",
"371 -14 OFFCURVE",
"417 -6 OFFCURVE",
"453 14 CURVE",
"455 17 OFFCURVE",
"459 20 OFFCURVE",
"464 24 CURVE",
"466 26 OFFCURVE",
"468 28 OFFCURVE",
"471 30 CURVE",
"473 31 OFFCURVE",
"475 33 OFFCURVE",
"476 34 CURVE",
"487 41 OFFCURVE",
"496 45 OFFCURVE",
"501 45 CURVE SMOOTH",
"503 45 OFFCURVE",
"505 43 OFFCURVE",
"506 40 CURVE",
"508 37 OFFCURVE",
"509 33 OFFCURVE",
"510 28 CURVE",
"515 2 OFFCURVE",
"520 -7 OFFCURVE",
"525 -10 CURVE",
"538 -13 OFFCURVE",
"552 -14 OFFCURVE",
"569 -14 CURVE SMOOTH",
"613 -14 LINE SMOOTH",
"670 -14 OFFCURVE",
"712 -12 OFFCURVE",
"739 -7 CURVE",
"740 -7 OFFCURVE",
"742 -6 OFFCURVE",
"743 -5 CURVE",
"746 -3 LINE",
"751 -3 OFFCURVE",
"762 -6 OFFCURVE",
"763 -7 CURVE",
"764 -6 OFFCURVE",
"765 -6 OFFCURVE",
"766 -5 CURVE SMOOTH",
"767 -4 OFFCURVE",
"768 -3 OFFCURVE",
"769 -2 CURVE SMOOTH",
"773 2 OFFCURVE",
"784 14 OFFCURVE",
"784 34 CURVE",
"793 191 OFFCURVE",
"794 325 OFFCURVE",
"794 558 CURVE SMOOTH",
"794 561 OFFCURVE",
"793 563 OFFCURVE",
"791 563 CURVE SMOOTH",
"790 563 OFFCURVE",
"789 562 OFFCURVE",
"788 561 CURVE",
"783 560 LINE",
"783 562 OFFCURVE",
"783 563 OFFCURVE",
"784 563 CURVE",
"784 568 LINE",
"784 568 OFFCURVE",
"784 568 OFFCURVE",
"784 569 CURVE SMOOTH",
"784 570 OFFCURVE",
"784 570 OFFCURVE",
"783 570 CURVE",
"783 571 OFFCURVE",
"781 573 OFFCURVE",
"778 573 CURVE SMOOTH",
"673 576 LINE",
"654 576 LINE",
"638 576 LINE",
"613 576 LINE SMOOTH",
"569 576 OFFCURVE",
"523 571 OFFCURVE",
"510 566 CURVE",
"510 568 LINE SMOOTH",
"510 571 OFFCURVE",
"507 573 OFFCURVE",
"504 573 CURVE SMOOTH",
"493 573 OFFCURVE",
"489 569 OFFCURVE",
"489 553 CURVE SMOOTH",
"489 543 LINE",
"489 528 LINE SMOOTH",
"489 521 OFFCURVE",
"489 516 OFFCURVE",
"490 513 CURVE",
"490 505 OFFCURVE",
"491 494 OFFCURVE",
"493 480 CURVE",
"493 151 LINE SMOOTH",
"493 148 OFFCURVE",
"490 146 OFFCURVE",
"483 143 CURVE",
"459 131 LINE",
"433 121 OFFCURVE",
"418 116 OFFCURVE",
"414 116 CURVE SMOOTH",
"411 116 OFFCURVE",
"408 119 OFFCURVE",
"405 124 CURVE",
"402 141 OFFCURVE",
"400 154 OFFCURVE",
"401 163 CURVE",
"401 178 LINE",
"401 193 LINE SMOOTH",
"401 206 OFFCURVE",
"402 217 OFFCURVE",
"403 225 CURVE",
"403 268 LINE",
"404 316 LINE SMOOTH",
"405 360 OFFCURVE",
"407 392 OFFCURVE",
"408 411 CURVE",
"408 421 LINE SMOOTH",
"408 441 OFFCURVE",
"407 456 OFFCURVE",
"406 465 CURVE",
"405 484 OFFCURVE",
"404 498 OFFCURVE",
"404 509 CURVE SMOOTH",
"404 541 OFFCURVE",
"398 559 OFFCURVE",
"385 568 CURVE SMOOTH",
"375 575 OFFCURVE",
"353 578 OFFCURVE",
"318 578 CURVE",
"310 575 LINE",
"309 575 OFFCURVE",
"309 576 OFFCURVE",
"308 577 CURVE SMOOTH",
"307 578 OFFCURVE",
"306 578 OFFCURVE",
"306 578 CURVE SMOOTH",
"184 580 LINE",
"181 579 OFFCURVE",
"176 578 OFFCURVE",
"168 578 CURVE SMOOTH",
"154 578 LINE SMOOTH",
"133 578 OFFCURVE",
"123 573 OFFCURVE",
"123 563 CURVE SMOOTH",
"123 558 OFFCURVE",
"124 552 OFFCURVE",
"125 544 CURVE",
"126 541 OFFCURVE",
"126 535 OFFCURVE",
"126 526 CURVE SMOOTH",
"126 504 OFFCURVE",
"126 485 OFFCURVE",
"125 468 CURVE SMOOTH",
"123 431 LINE",
"123 416 OFFCURVE",
"122 397 OFFCURVE",
"120 373 CURVE",
"120 370 OFFCURVE",
"120 367 OFFCURVE",
"120 366 CURVE",
"119 365 OFFCURVE",
"119 364 OFFCURVE",
"119 363 CURVE",
"116 356 LINE",
"116 346 LINE",
"116 328 LINE",
"116 308 LINE",
"115 305 OFFCURVE",
"115 300 OFFCURVE",
"115 294 CURVE SMOOTH",
"115 250 LINE",
"112 166 OFFCURVE",
"120 81 OFFCURVE",
"164 29 CURVE SMOOTH",
"175 16 OFFCURVE",
"186 7 OFFCURVE",
"199 1 CURVE SMOOTH",
"224 -11 OFFCURVE",
"256 -18 OFFCURVE",
"309 -15 CURVE"
);
}
);
width = 847;
}
);
note = U;
unicode = 0055;
},
{
glyphname = Uhorn;
lastChange = "2017-07-31 18:08:50 +0000";
layers = (
{
layerId = "CBDECE4A-293B-4E5C-B714-A3FD26C7130D";
paths = (
{
closed = 1;
nodes = (
"342 -35 OFFCURVE",
"412 -16 OFFCURVE",
"475 15 CURVE",
"481 -10 OFFCURVE",
"496 -20 OFFCURVE",
"527 -20 CURVE",
"567 -18 LINE",
"577 -18 OFFCURVE",
"591 -17 OFFCURVE",
"608 -16 CURVE SMOOTH",
"672 -13 LINE",
"716 -13 LINE SMOOTH",
"738 -13 OFFCURVE",
"749 -1 OFFCURVE",
"749 22 CURVE SMOOTH",
"749 80 OFFCURVE",
"751 166 OFFCURVE",
"754 280 CURVE SMOOTH",
"756 350 OFFCURVE",
"758 471 OFFCURVE",
"759 505 CURVE",
"806 531 OFFCURVE",
"840 558 OFFCURVE",
"843 594 CURVE",
"845 633 LINE",
"842 669 LINE",
"837 686 LINE",
"697 689 LINE",
"701 673 LINE",
"703 645 LINE",
"702 623 LINE",
"694 601 LINE SMOOTH",
"688 585 OFFCURVE",
"668 569 OFFCURVE",
"652 569 CURVE SMOOTH",
"639 569 LINE",
"624 571 LINE",
"620 571 LINE",
"612 569 LINE",
"609 568 OFFCURVE",
"603 568 OFFCURVE",
"594 568 CURVE",
"562 565 OFFCURVE",
"525 564 OFFCURVE",
"491 564 CURVE SMOOTH",
"460 564 OFFCURVE",
"456 558 OFFCURVE",
"456 537 CURVE SMOOTH",
"456 529 LINE SMOOTH",
"456 523 OFFCURVE",
"457 517 OFFCURVE",
"458 514 CURVE",
"458 501 OFFCURVE",
"458 488 OFFCURVE",
"460 475 CURVE",
"460 125 LINE",
"456 122 OFFCURVE",
"447 118 OFFCURVE",
"436 112 CURVE",
"418 104 OFFCURVE",
"400 101 OFFCURVE",
"384 101 CURVE SMOOTH",
"377 101 OFFCURVE",
"372 105 OFFCURVE",
"371 114 CURVE SMOOTH",
"370 124 OFFCURVE",
"368 140 OFFCURVE",
"368 161 CURVE SMOOTH",
"368 195 OFFCURVE",
"368 238 OFFCURVE",
"370 289 CURVE SMOOTH",
"371 317 OFFCURVE",
"371 337 OFFCURVE",
"371 349 CURVE SMOOTH",
"371 357 OFFCURVE",
"371 363 OFFCURVE",
"372 368 CURVE",
"373 402 OFFCURVE",
"375 445 OFFCURVE",
"375 497 CURVE SMOOTH",
"375 519 OFFCURVE",
"372 534 OFFCURVE",
"368 543 CURVE",
"357 558 OFFCURVE",
"330 564 OFFCURVE",
"282 568 CURVE SMOOTH",
"248 571 OFFCURVE",
"212 571 OFFCURVE",
"175 571 CURVE SMOOTH",
"122 571 LINE SMOOTH",
"102 571 OFFCURVE",
"93 567 OFFCURVE",
"93 558 CURVE SMOOTH",
"93 553 OFFCURVE",
"94 546 OFFCURVE",
"95 538 CURVE",
"95 535 OFFCURVE",
"96 529 OFFCURVE",
"96 520 CURVE SMOOTH",
"96 486 OFFCURVE",
"96 434 OFFCURVE",
"94 410 CURVE SMOOTH",
"93 395 OFFCURVE",
"92 383 OFFCURVE",
"92 375 CURVE",
"88 323 OFFCURVE",
"85 276 OFFCURVE",
"85 234 CURVE SMOOTH",
"85 174 OFFCURVE",
"88 130 OFFCURVE",
"94 101 CURVE SMOOTH",
"113 11 OFFCURVE",
"157 -35 OFFCURVE",
"268 -35 CURVE SMOOTH"
);
}
);
width = 885;
}
);
note = Uhorn;
unicode = 01AF;
},
{
glyphname = Uogonek;
lastChange = "2017-06-11 23:28:21 +0000";
layers = (
{
layerId = "CBDECE4A-293B-4E5C-B714-A3FD26C7130D";
paths = (
{
closed = 1;
nodes = (
"816 -154 OFFCURVE",
"787 -160 OFFCURVE",
"760 -160 CURVE SMOOTH",
"751 -160 OFFCURVE",
"745 -160 OFFCURVE",
"740 -161 CURVE",
"732 -164 OFFCURVE",
"722 -159 OFFCURVE",
"719 -158 CURVE",
"704 -154 OFFCURVE",
"696 -146 OFFCURVE",
"696 -126 CURVE SMOOTH",
"696 -118 OFFCURVE",
"700 -106 OFFCURVE",
"709 -90 CURVE SMOOTH",
"722 -67 OFFCURVE",
"736 -49 OFFCURVE",
"755 -33 CURVE",
"791 4 LINE",
"809 7 OFFCURVE",
"818 20 OFFCURVE",
"818 43 CURVE SMOOTH",
"818 110 OFFCURVE",
"820 208 OFFCURVE",
"824 339 CURVE SMOOTH",
"828 438 OFFCURVE",
"830 537 OFFCURVE",
"830 636 CURVE SMOOTH",
"830 644 OFFCURVE",
"828 649 OFFCURVE",
"816 653 CURVE",
"788 661 LINE",
"766 666 OFFCURVE",
"748 668 OFFCURVE",
"733 669 CURVE SMOOTH",
"703 670 LINE",
"698 671 OFFCURVE",
"691 671 OFFCURVE",
"683 671 CURVE",
"678 672 OFFCURVE",
"673 673 OFFCURVE",
"669 673 CURVE",
"663 671 OFFCURVE",
"653 670 OFFCURVE",
"640 670 CURVE",
"603 667 OFFCURVE",
"560 665 OFFCURVE",
"521 665 CURVE SMOOTH",
"486 665 OFFCURVE",
"481 658 OFFCURVE",
"481 634 CURVE SMOOTH",
"481 625 LINE SMOOTH",
"481 618 OFFCURVE",
"482 612 OFFCURVE",
"483 608 CURVE",
"483 593 OFFCURVE",
"484 578 OFFCURVE",
"486 563 CURVE",
"486 161 LINE",
"481 158 OFFCURVE",
"471 153 OFFCURVE",
"458 146 CURVE",
"437 137 OFFCURVE",
"417 133 OFFCURVE",
"399 133 CURVE SMOOTH",
"390 133 OFFCURVE",
"385 138 OFFCURVE",
"383 149 CURVE SMOOTH",
"381 160 OFFCURVE",
"380 178 OFFCURVE",
"380 203 CURVE SMOOTH",
"380 242 OFFCURVE",
"381 291 OFFCURVE",
"382 350 CURVE SMOOTH",
"383 382 OFFCURVE",
"384 405 OFFCURVE",
"384 418 CURVE SMOOTH",
"384 428 OFFCURVE",
"384 435 OFFCURVE",
"385 440 CURVE",
"386 479 OFFCURVE",
"388 529 OFFCURVE",
"388 589 CURVE SMOOTH",
"388 614 OFFCURVE",
"385 631 OFFCURVE",
"380 641 CURVE",
"368 658 OFFCURVE",
"336 665 OFFCURVE",
"281 670 CURVE SMOOTH",
"242 674 OFFCURVE",
"201 675 OFFCURVE",
"158 674 CURVE SMOOTH",
"98 674 LINE SMOOTH",
"75 674 OFFCURVE",
"64 669 OFFCURVE",
"64 658 CURVE SMOOTH",
"64 653 OFFCURVE",
"65 645 OFFCURVE",
"66 636 CURVE",
"67 632 OFFCURVE",
"68 625 OFFCURVE",
"68 615 CURVE SMOOTH",
"68 576 OFFCURVE",
"66 516 OFFCURVE",
"65 488 CURVE SMOOTH",
"64 471 OFFCURVE",
"63 457 OFFCURVE",
"63 448 CURVE",
"58 389 OFFCURVE",
"55 335 OFFCURVE",
"55 286 CURVE SMOOTH",
"55 218 OFFCURVE",
"58 167 OFFCURVE",
"65 133 CURVE SMOOTH",
"85 30 OFFCURVE",
"138 -23 OFFCURVE",
"265 -23 CURVE SMOOTH",
"350 -23 OFFCURVE",
"431 -1 OFFCURVE",
"503 35 CURVE",
"510 6 OFFCURVE",
"527 -5 OFFCURVE",
"563 -5 CURVE",
"588 -4 OFFCURVE",
"607 -3 OFFCURVE",
"620 -3 CURVE",
"609 -10 LINE SMOOTH",
"606 -12 OFFCURVE",
"600 -15 OFFCURVE",
"593 -19 CURVE",
"585 -24 OFFCURVE",
"579 -28 OFFCURVE",
"574 -33 CURVE",
"518 -70 OFFCURVE",
"491 -103 OFFCURVE",
"491 -163 CURVE SMOOTH",
"491 -175 OFFCURVE",
"493 -186 OFFCURVE",
"496 -195 CURVE",
"507 -220 OFFCURVE",
"530 -240 OFFCURVE",
"567 -253 CURVE SMOOTH",
"606 -268 OFFCURVE",
"661 -276 OFFCURVE",
"734 -276 CURVE",
"744 -274 LINE",
"746 -273 OFFCURVE",
"749 -273 OFFCURVE",
"752 -273 CURVE SMOOTH",
"755 -273 OFFCURVE",
"759 -272 OFFCURVE",
"764 -271 CURVE",
"775 -270 OFFCURVE",
"791 -265 OFFCURVE",
"811 -258 CURVE",
"824 -251 OFFCURVE",
"836 -245 OFFCURVE",
"837 -240 CURVE SMOOTH",
"854 -158 LINE",
"854 -153 LINE SMOOTH",
"854 -148 OFFCURVE",
"852 -145 OFFCURVE",
"847 -143 CURVE"
);
}
);
width = 885;
}
);
note = Uogonek;
unicode = 0172;
},
{
glyphname = V;
lastChange = "2017-07-18 20:10:48 +0000";
layers = (
{
layerId = "CBDECE4A-293B-4E5C-B714-A3FD26C7130D";
paths = (
{
closed = 1;
nodes = (
"315 -16 OFFCURVE",
"439 -14 OFFCURVE",
"503 -10 CURVE",
"509 -10 OFFCURVE",
"518 -11 OFFCURVE",
"529 -12 CURVE",
"538 -15 OFFCURVE",
"547 -16 OFFCURVE",
"556 -16 CURVE SMOOTH",
"561 -16 OFFCURVE",
"565 -15 OFFCURVE",
"568 -12 CURVE SMOOTH",
"572 -8 OFFCURVE",
"576 -9 OFFCURVE",
"582 -9 CURVE",
"586 -10 LINE",
"589 -10 LINE",
"596 -5 OFFCURVE",
"599 -2 OFFCURVE",
"599 0 CURVE",
"651 186 LINE SMOOTH",
"671 256 OFFCURVE",
"723 458 OFFCURVE",
"751 543 CURVE",
"752 544 OFFCURVE",
"752 547 OFFCURVE",
"753 551 CURVE",
"753 554 OFFCURVE",
"756 559 OFFCURVE",
"758 565 CURVE",
"762 589 OFFCURVE",
"763 598 OFFCURVE",
"763 605 CURVE",
"774 629 OFFCURVE",
"748 652 OFFCURVE",
"729 654 CURVE",
"698 657 LINE",
"693 656 OFFCURVE",
"682 664 OFFCURVE",
"676 664 CURVE",
"600 672 LINE",
"557 674 LINE",
"526 682 OFFCURVE",
"519 620 OFFCURVE",
"489 499 CURVE SMOOTH",
"483 473 OFFCURVE",
"475 466 OFFCURVE",
"472 453 CURVE SMOOTH",
"469 438 LINE",
"466 422 LINE SMOOTH",
"465 416 OFFCURVE",
"464 409 OFFCURVE",
"462 402 CURVE SMOOTH",
"452 366 LINE",
"440 319 LINE SMOOTH",
"439 314 OFFCURVE",
"420 280 OFFCURVE",
"420 277 CURVE",
"410 294 LINE",
"404 309 LINE",
"384 370 LINE",
"371 399 LINE",
"369 406 OFFCURVE",
"367 414 OFFCURVE",
"365 420 CURVE SMOOTH",
"363 426 OFFCURVE",
"359 441 OFFCURVE",
"352 446 CURVE",
"351 450 OFFCURVE",
"351 453 OFFCURVE",
"351 456 CURVE",
"350 459 OFFCURVE",
"350 460 OFFCURVE",
"350 460 CURVE",
"343 488 OFFCURVE",
"317 565 OFFCURVE",
"312 579 CURVE SMOOTH",
"295 624 LINE SMOOTH",
"288 644 OFFCURVE",
"276 686 OFFCURVE",
"232 672 CURVE",
"169 660 LINE",
"149 659 LINE",
"143 656 LINE SMOOTH",
"139 654 OFFCURVE",
"138 655 OFFCURVE",
"134 654 CURVE",
"133 654 OFFCURVE",
"133 654 OFFCURVE",
"132 653 CURVE SMOOTH",
"131 652 OFFCURVE",
"129 653 OFFCURVE",
"129 653 CURVE",
"127 653 OFFCURVE",
"127 646 OFFCURVE",
"125 647 CURVE",
"123 648 OFFCURVE",
"118 647 OFFCURVE",
"117 647 CURVE SMOOTH",
"36 629 LINE",
"13 619 LINE",
"-25 604 OFFCURVE",
"-5 573 OFFCURVE",
"-5 558 CURVE SMOOTH",
"-5 546 OFFCURVE",
"-4 544 OFFCURVE",
"-1 532 CURVE SMOOTH",
"2 519 LINE",
"2 515 OFFCURVE",
"2 512 OFFCURVE",
"3 510 CURVE",
"57 400 OFFCURVE",
"89 277 OFFCURVE",
"111 211 CURVE SMOOTH",
"182 0 LINE",
"182 -3 OFFCURVE",
"185 -6 OFFCURVE",
"192 -10 CURVE",
"198 -10 LINE",
"198 -9 OFFCURVE",
"199 -9 OFFCURVE",
"200 -9 CURVE SMOOTH",
"208 -9 OFFCURVE",
"218 -11 OFFCURVE",
"227 -12 CURVE SMOOTH",
"238 -13 OFFCURVE",
"246 -16 OFFCURVE",
"255 -16 CURVE SMOOTH"
);
}
);
width = 756;
}
);
note = V;
rightKerningGroup = V;
unicode = 0056;
},
{
glyphname = W;
lastChange = "2017-07-31 18:24:01 +0000";
layers = (
{
layerId = "CBDECE4A-293B-4E5C-B714-A3FD26C7130D";
paths = (
{
closed = 1;
nodes = (
"406 -8 OFFCURVE",
"418 -8 OFFCURVE",
"426 -8 CURVE",
"467 -8 LINE SMOOTH",
"484 -8 OFFCURVE",
"493 -4 OFFCURVE",
"496 6 CURVE",
"570 284 LINE",
"646 6 LINE",
"646 1 OFFCURVE",
"649 -3 OFFCURVE",
"655 -4 CURVE",
"663 -4 LINE",
"674 -4 OFFCURVE",
"681 -4 OFFCURVE",
"688 -4 CURVE",
"713 -4 LINE",
"756 -4 LINE",
"882 -5 LINE",
"893 -4 LINE",
"895 -4 OFFCURVE",
"898 -4 OFFCURVE",
"904 -4 CURVE",
"912 -4 LINE",
"912 1 LINE",
"913 3 OFFCURVE",
"915 5 OFFCURVE",
"920 6 CURVE",
"985 249 LINE",
"1005 316 OFFCURVE",
"1006 333 OFFCURVE",
"1025 419 CURVE",
"1025 446 OFFCURVE",
"1062 538 OFFCURVE",
"1041 548 CURVE",
"1021 554 LINE",
"1017 553 OFFCURVE",
"997 560 OFFCURVE",
"973 563 CURVE SMOOTH",
"944 567 LINE",
"939 567 OFFCURVE",
"933 570 OFFCURVE",
"926 573 CURVE SMOOTH",
"921 575 LINE",
"920 576 OFFCURVE",
"917 574 OFFCURVE",
"915 576 CURVE SMOOTH",
"913 578 OFFCURVE",
"913 576 OFFCURVE",
"909 577 CURVE",
"909 577 OFFCURVE",
"888 582 OFFCURVE",
"886 582 CURVE SMOOTH",
"884 582 LINE",
"879 581 OFFCURVE",
"866 583 OFFCURVE",
"862 583 CURVE SMOOTH",
"858 583 OFFCURVE",
"855 583 OFFCURVE",
"850 582 CURVE SMOOTH",
"845 581 OFFCURVE",
"842 582 OFFCURVE",
"838 582 CURVE",
"834 576 OFFCURVE",
"831 567 OFFCURVE",
"830 559 CURVE",
"825 542 OFFCURVE",
"822 530 OFFCURVE",
"805 441 CURVE SMOOTH",
"802 425 LINE",
"801 417 OFFCURVE",
"798 406 OFFCURVE",
"794 389 CURVE",
"794 388 OFFCURVE",
"794 387 OFFCURVE",
"794 386 CURVE",
"793 384 OFFCURVE",
"793 382 OFFCURVE",
"792 379 CURVE",
"790 358 LINE",
"786 348 OFFCURVE",
"786 340 OFFCURVE",
"785 331 CURVE",
"781 305 LINE",
"777 284 LINE",
"777 275 LINE",
"777 268 LINE",
"776 267 OFFCURVE",
"775 265 OFFCURVE",
"774 264 CURVE",
"773 268 LINE",
"772 270 OFFCURVE",
"772 273 OFFCURVE",
"772 275 CURVE SMOOTH",
"772 276 OFFCURVE",
"772 277 OFFCURVE",
"772 278 CURVE",
"771 279 OFFCURVE",
"771 282 OFFCURVE",
"769 284 CURVE",
"768 292 OFFCURVE",
"767 299 OFFCURVE",
"767 305 CURVE",
"766 310 OFFCURVE",
"764 320 OFFCURVE",
"763 331 CURVE",
"759 358 LINE",
"759 360 OFFCURVE",
"754 367 OFFCURVE",
"752 379 CURVE SMOOTH",
"750 389 LINE",
"750 389 OFFCURVE",
"717 539 OFFCURVE",
"717 539 CURVE",
"715 542 OFFCURVE",
"710 543 OFFCURVE",
"701 543 CURVE SMOOTH",
"690 543 LINE",
"684 543 LINE SMOOTH",
"680 543 OFFCURVE",
"677 542 OFFCURVE",
"676 541 CURVE",
"675 541 OFFCURVE",
"674 541 OFFCURVE",
"673 540 CURVE SMOOTH",
"672 539 OFFCURVE",
"671 539 OFFCURVE",
"670 539 CURVE",
"670 540 OFFCURVE",
"667 541 OFFCURVE",
"661 541 CURVE SMOOTH",
"656 541 OFFCURVE",
"650 541 OFFCURVE",
"644 542 CURVE",
"540 546 LINE",
"524 546 LINE SMOOTH",
"519 546 OFFCURVE",
"511 544 OFFCURVE",
"498 543 CURVE",
"496 542 OFFCURVE",
"494 542 OFFCURVE",
"490 541 CURVE",
"488 540 OFFCURVE",
"487 539 OFFCURVE",
"486 539 CURVE",
"477 535 OFFCURVE",
"475 529 OFFCURVE",
"474 523 CURVE",
"467 501 OFFCURVE",
"444 440 OFFCURVE",
"435 399 CURVE",
"434 390 LINE",
"434 387 OFFCURVE",
"434 380 OFFCURVE",
"430 374 CURVE",
"422 353 LINE",
"421 349 OFFCURVE",
"421 347 OFFCURVE",
"420 344 CURVE",
"419 340 OFFCURVE",
"418 335 OFFCURVE",
"418 332 CURVE SMOOTH",
"418 325 OFFCURVE",
"415 320 OFFCURVE",
"415 317 CURVE",
"414 314 OFFCURVE",
"413 310 OFFCURVE",
"413 309 CURVE",
"413 306 LINE",
"413 301 LINE",
"411 297 LINE",
"411 301 LINE",
"410 302 OFFCURVE",
"409 304 OFFCURVE",
"409 306 CURVE",
"409 309 LINE",
"407 317 LINE",
"407 319 OFFCURVE",
"407 322 OFFCURVE",
"406 325 CURVE",
"405 330 OFFCURVE",
"400 334 OFFCURVE",
"399 344 CURVE",
"399 347 OFFCURVE",
"398 350 OFFCURVE",
"397 353 CURVE",
"396 362 OFFCURVE",
"394 370 OFFCURVE",
"394 374 CURVE",
"391 390 LINE",
"391 393 OFFCURVE",
"391 395 OFFCURVE",
"390 397 CURVE",
"390 397 OFFCURVE",
"390 398 OFFCURVE",
"390 399 CURVE",
"368 538 OFFCURVE",
"369 511 OFFCURVE",
"368 520 CURVE",
"359 562 OFFCURVE",
"354 591 OFFCURVE",
"336 582 CURVE",
"317 578 OFFCURVE",
"301 575 OFFCURVE",
"294 574 CURVE SMOOTH",
"287 573 LINE",
"284 573 LINE SMOOTH",
"282 573 OFFCURVE",
"273 570 OFFCURVE",
"268 569 CURVE",
"267 569 OFFCURVE",
"267 569 OFFCURVE",
"266 568 CURVE SMOOTH",
"265 567 OFFCURVE",
"264 567 OFFCURVE",
"263 567 CURVE",
"263 569 LINE",
"263 569 OFFCURVE",
"263 569 OFFCURVE",
"262 569 CURVE SMOOTH",
"261 569 OFFCURVE",
"261 569 OFFCURVE",
"260 567 CURVE",
"255 567 LINE",
"234 562 LINE",
"226 562 LINE",
"202 559 LINE SMOOTH",
"201 559 OFFCURVE",
"152 553 OFFCURVE",
"114 549 CURVE",
"84 539 OFFCURVE",
"112 526 OFFCURVE",
"120 424 CURVE SMOOTH",
"122 398 OFFCURVE",
"129 377 OFFCURVE",
"135 373 CURVE",
"147 310 OFFCURVE",
"143 344 OFFCURVE",
"161 268 CURVE SMOOTH",
"222 6 LINE",
"222 1 OFFCURVE",
"224 -3 OFFCURVE",
"230 -4 CURVE",
"239 -4 LINE",
"243 -4 OFFCURVE",
"249 -4 OFFCURVE",
"254 -6 CURVE",
"258 -8 OFFCURVE",
"263 -8 OFFCURVE",
"267 -8 CURVE",
"386 -8 LINE"
);
}
);
width = 1117;
}
);
note = W;
unicode = 0057;
},
{
glyphname = X;
lastChange = "2017-07-05 12:35:29 +0000";
layers = (
{
layerId = "CBDECE4A-293B-4E5C-B714-A3FD26C7130D";
paths = (
{
closed = 1;
nodes = (
"100 50 OFFCURVE",
"194 -31 OFFCURVE",
"182 -32 CURVE",
"183 -30 OFFCURVE",
"185 -30 OFFCURVE",
"187 -30 CURVE",
"188 -30 OFFCURVE",
"188 -30 OFFCURVE",
"189 -30 CURVE",
"189 -35 LINE",
"203 -45 LINE",
"217 -39 LINE",
"233 -20 LINE",
"253 -1 LINE",
"365 110 LINE",
"398 144 LINE",
"401 144 OFFCURVE",
"402 141 OFFCURVE",
"404 137 CURVE",
"407 131 OFFCURVE",
"411 128 OFFCURVE",
"414 125 CURVE",
"436 97 OFFCURVE",
"443 90 OFFCURVE",
"494 25 CURVE",
"499 23 OFFCURVE",
"500 21 OFFCURVE",
"501 22 CURVE",
"502 22 OFFCURVE",
"502 22 OFFCURVE",
"503 22 CURVE SMOOTH",
"506 22 LINE SMOOTH",
"508 22 OFFCURVE",
"508 22 OFFCURVE",
"508 22 CURVE SMOOTH",
"505 14 LINE",
"555 -30 LINE",
"574 -28 OFFCURVE",
"605 -13 OFFCURVE",
"632 9 CURVE",
"631 9 OFFCURVE",
"689 53 OFFCURVE",
"742 85 CURVE SMOOTH",
"747 88 LINE",
"758 104 LINE SMOOTH",
"763 111 OFFCURVE",
"776 132 OFFCURVE",
"732 174 CURVE",
"699 203 OFFCURVE",
"656 276 OFFCURVE",
"641 294 CURVE",
"605 335 LINE",
"610 341 OFFCURVE",
"682 416 OFFCURVE",
"699 437 CURVE",
"706 445 OFFCURVE",
"765 509 OFFCURVE",
"756 504 CURVE",
"769 523 OFFCURVE",
"779 526 OFFCURVE",
"780 545 CURVE",
"775 571 OFFCURVE",
"675 667 OFFCURVE",
"642 683 CURVE",
"628 686 OFFCURVE",
"611 722 OFFCURVE",
"583 712 CURVE",
"580 712 OFFCURVE",
"577 710 OFFCURVE",
"571 703 CURVE",
"558 692 OFFCURVE",
"465 601 OFFCURVE",
"445 579 CURVE SMOOTH",
"399 528 LINE",
"390 517 LINE",
"383 506 OFFCURVE",
"372 537 OFFCURVE",
"369 536 CURVE",
"368 537 LINE",
"364 539 LINE",
"361 542 OFFCURVE",
"353 547 OFFCURVE",
"353 552 CURVE SMOOTH",
"353 553 OFFCURVE",
"352 553 OFFCURVE",
"351 555 CURVE",
"349 554 OFFCURVE",
"348 557 OFFCURVE",
"347 562 CURVE",
"304 612 OFFCURVE",
"242 665 OFFCURVE",
"222 692 CURVE",
"217 697 OFFCURVE",
"202 704 OFFCURVE",
"200 704 CURVE SMOOTH",
"166 702 LINE",
"127 674 OFFCURVE",
"128 671 OFFCURVE",
"82 642 CURVE SMOOTH",
"71 635 OFFCURVE",
"24 588 OFFCURVE",
"27 588 CURVE SMOOTH",
"36 588 OFFCURVE",
"31 593 OFFCURVE",
"20 585 CURVE",
"16 583 OFFCURVE",
"9 573 OFFCURVE",
"5 573 CURVE",
"3 553 OFFCURVE",
"-6 549 OFFCURVE",
"8 530 CURVE",
"34 497 LINE",
"32 502 OFFCURVE",
"62 458 OFFCURVE",
"68 455 CURVE",
"83 428 OFFCURVE",
"140 383 OFFCURVE",
"176 329 CURVE",
"171 325 OFFCURVE",
"117 269 OFFCURVE",
"97 247 CURVE SMOOTH",
"72 220 LINE",
"43 180 LINE",
"25 159 OFFCURVE",
"16 149 OFFCURVE",
"12 148 CURVE SMOOTH",
"5 146 OFFCURVE",
"10 142 OFFCURVE",
"9 142 CURVE",
"8 134 LINE",
"9 132 OFFCURVE",
"11 126 OFFCURVE",
"16 122 CURVE SMOOTH",
"75 72 LINE SMOOTH"
);
}
);
width = 780;
}
);
note = X;
unicode = 0058;
},
{
glyphname = Y;
lastChange = "2017-07-31 18:25:19 +0000";
layers = (
{
layerId = "CBDECE4A-293B-4E5C-B714-A3FD26C7130D";
paths = (
{
closed = 1;
nodes = (
"462 -119 OFFCURVE",
"468 -118 OFFCURVE",
"474 -101 CURVE",
"485 -82 OFFCURVE",
"550 56 OFFCURVE",
"550 56 CURVE",
"640 242 LINE",
"736 429 LINE",
"745 443 OFFCURVE",
"755 467 OFFCURVE",
"755 483 CURVE",
"733 509 OFFCURVE",
"685 524 OFFCURVE",
"625 558 CURVE SMOOTH",
"595 575 OFFCURVE",
"574 583 OFFCURVE",
"555 583 CURVE SMOOTH",
"538 583 OFFCURVE",
"463 425 OFFCURVE",
"454 407 CURVE",
"438 376 OFFCURVE",
"423 339 OFFCURVE",
"420 339 CURVE SMOOTH",
"416 339 OFFCURVE",
"383 385 OFFCURVE",
"377 393 CURVE SMOOTH",
"365 408 OFFCURVE",
"327 476 OFFCURVE",
"290 526 CURVE SMOOTH",
"287 530 OFFCURVE",
"285 534 OFFCURVE",
"283 537 CURVE",
"279 544 LINE",
"273 554 LINE",
"271 556 OFFCURVE",
"267 559 OFFCURVE",
"262 566 CURVE",
"246 583 OFFCURVE",
"248 583 OFFCURVE",
"228 572 CURVE SMOOTH",
"200 557 LINE SMOOTH",
"197 555 OFFCURVE",
"183 548 OFFCURVE",
"179 547 CURVE SMOOTH",
"171 545 OFFCURVE",
"156 532 OFFCURVE",
"153 532 CURVE SMOOTH",
"150 532 OFFCURVE",
"146 531 OFFCURVE",
"143 529 CURVE",
"130 523 LINE",
"102 502 OFFCURVE",
"89 486 OFFCURVE",
"85 485 CURVE",
"81 483 OFFCURVE",
"76 481 OFFCURVE",
"69 477 CURVE SMOOTH",
"55 469 OFFCURVE",
"40 456 OFFCURVE",
"40 444 CURVE SMOOTH",
"40 433 OFFCURVE",
"46 426 OFFCURVE",
"63 394 CURVE",
"81 360 OFFCURVE",
"129 310 OFFCURVE",
"154 261 CURVE",
"175 227 OFFCURVE",
"197 198 OFFCURVE",
"216 173 CURVE",
"216 172 OFFCURVE",
"217 171 OFFCURVE",
"218 170 CURVE",
"219 170 LINE",
"221 170 LINE",
"221 171 OFFCURVE",
"223 171 OFFCURVE",
"225 171 CURVE",
"225 162 OFFCURVE",
"230 154 OFFCURVE",
"240 145 CURVE SMOOTH",
"251 135 OFFCURVE",
"278 95 OFFCURVE",
"287 88 CURVE",
"262 40 OFFCURVE",
"267 54 OFFCURVE",
"265 47 CURVE",
"260 41 OFFCURVE",
"258 27 OFFCURVE",
"256 22 CURVE SMOOTH",
"251 10 OFFCURVE",
"243 -2 OFFCURVE",
"243 -14 CURVE SMOOTH",
"243 -18 OFFCURVE",
"246 -21 OFFCURVE",
"250 -25 CURVE",
"272 -38 LINE",
"276 -39 OFFCURVE",
"294 -46 OFFCURVE",
"302 -50 CURVE SMOOTH",
"350 -72 LINE",
"354 -73 OFFCURVE",
"358 -81 OFFCURVE",
"364 -81 CURVE",
"368 -84 OFFCURVE",
"416 -108 OFFCURVE",
"433 -111 CURVE",
"445 -113 LINE",
"445 -114 OFFCURVE",
"446 -115 OFFCURVE",
"448 -115 CURVE",
"451 -114 LINE",
"451 -113 OFFCURVE",
"452 -113 OFFCURVE",
"453 -113 CURVE SMOOTH",
"454 -113 OFFCURVE",
"454 -113 OFFCURVE",
"454 -113 CURVE",
"454 -119 LINE"
);
}
);
width = 781;
}
);
note = Y;
unicode = 0059;
},
{
glyphname = Z;
lastChange = "2017-07-31 16:20:06 +0000";
layers = (
{
layerId = "CBDECE4A-293B-4E5C-B714-A3FD26C7130D";
paths = (
{
closed = 1;
nodes = (
"556 0 OFFCURVE",
"568 1 OFFCURVE",
"576 3 CURVE",
"595 6 OFFCURVE",
"601 8 OFFCURVE",
"601 19 CURVE SMOOTH",
"601 159 LINE SMOOTH",
"601 168 OFFCURVE",
"590 176 OFFCURVE",
"579 176 CURVE SMOOTH",
"423 176 LINE",
"490 245 OFFCURVE",
"539 305 OFFCURVE",
"574 353 CURVE SMOOTH",
"585 368 OFFCURVE",
"593 383 OFFCURVE",
"599 398 CURVE",
"603 410 OFFCURVE",
"605 419 OFFCURVE",
"605 425 CURVE SMOOTH",
"605 564 LINE SMOOTH",
"605 565 OFFCURVE",
"604 567 OFFCURVE",
"603 571 CURVE",
"588 578 LINE",
"573 581 OFFCURVE",
"548 583 OFFCURVE",
"513 583 CURVE SMOOTH",
"388 583 LINE",
"348 581 OFFCURVE",
"307 580 OFFCURVE",
"265 580 CURVE SMOOTH",
"250 580 OFFCURVE",
"230 579 OFFCURVE",
"203 578 CURVE",
"181 576 OFFCURVE",
"160 575 OFFCURVE",
"139 575 CURVE",
"129 576 LINE",
"126 577 OFFCURVE",
"123 578 OFFCURVE",
"118 578 CURVE SMOOTH",
"111 578 OFFCURVE",
"106 576 OFFCURVE",
"101 571 CURVE",
"98 566 LINE",
"98 564 OFFCURVE",
"97 561 OFFCURVE",
"96 558 CURVE",
"96 541 OFFCURVE",
"95 526 OFFCURVE",
"94 518 CURVE",
"94 505 LINE SMOOTH",
"94 477 OFFCURVE",
"95 455 OFFCURVE",
"98 440 CURVE SMOOTH",
"103 413 OFFCURVE",
"112 399 OFFCURVE",
"128 399 CURVE SMOOTH",
"291 398 LINE SMOOTH",
"294 398 OFFCURVE",
"295 396 OFFCURVE",
"295 393 CURVE SMOOTH",
"295 385 OFFCURVE",
"285 371 OFFCURVE",
"277 362 CURVE",
"273 357 OFFCURVE",
"269 353 OFFCURVE",
"266 349 CURVE",
"203 278 LINE",
"203 278 OFFCURVE",
"185 260 OFFCURVE",
"150 225 CURVE SMOOTH",
"109 183 LINE",
"109 24 LINE SMOOTH",
"109 15 OFFCURVE",
"120 3 OFFCURVE",
"131 3 CURVE SMOOTH",
"201 2 LINE",
"214 1 OFFCURVE",
"234 1 OFFCURVE",
"259 1 CURVE",
"286 0 OFFCURVE",
"329 0 OFFCURVE",
"388 0 CURVE SMOOTH",
"540 0 LINE SMOOTH"
);
}
);
width = 703;
}
);
note = Z;
unicode = 005A;
},
{
glyphname = a;
lastChange = "2017-07-11 16:43:14 +0000";
layers = (
{
guideLines = (
{
position = "{195, 0}";
},
{
position = "{53, 492}";
}
);
layerId = "CBDECE4A-293B-4E5C-B714-A3FD26C7130D";
paths = (
{
closed = 1;
nodes = (
"268 -17 OFFCURVE",
"308 2 OFFCURVE",
"345 74 CURVE",
"346 74 OFFCURVE",
"346 74 OFFCURVE",
"348 72 CURVE",
"348 71 OFFCURVE",
"348 68 OFFCURVE",
"348 67 CURVE",
"348 65 OFFCURVE",
"349 61 OFFCURVE",
"349 60 CURVE",
"347 58 OFFCURVE",
"347 53 OFFCURVE",
"347 46 CURVE SMOOTH",
"347 34 LINE SMOOTH",
"347 18 OFFCURVE",
"352 8 OFFCURVE",
"361 4 CURVE",
"371 0 OFFCURVE",
"381 -4 OFFCURVE",
"396 -3 CURVE SMOOTH",
"414 -2 OFFCURVE",
"425 -2 OFFCURVE",
"434 -4 CURVE",
"466 -3 LINE",
"499 -2 LINE",
"596 1 LINE SMOOTH",
"616 2 OFFCURVE",
"618 21 OFFCURVE",
"616 55 CURVE SMOOTH",
"615 76 OFFCURVE",
"616 94 OFFCURVE",
"622 121 CURVE",
"621 143 LINE",
"621 154 OFFCURVE",
"619 185 OFFCURVE",
"618 222 CURVE SMOOTH",
"614 362 LINE",
"611 458 OFFCURVE",
"586 527 OFFCURVE",
"492 565 CURVE SMOOTH",
"437 587 OFFCURVE",
"292 596 OFFCURVE",
"218 592 CURVE SMOOTH",
"198 591 OFFCURVE",
"193 589 OFFCURVE",
"156 583 CURVE",
"154 583 OFFCURVE",
"148 582 OFFCURVE",
"144 581 CURVE",
"122 577 LINE SMOOTH",
"108 574 OFFCURVE",
"98 572 OFFCURVE",
"93 572 CURVE SMOOTH",
"91 572 OFFCURVE",
"91 572 OFFCURVE",
"90 570 CURVE SMOOTH",
"85 564 LINE",
"83 562 OFFCURVE",
"82 562 OFFCURVE",
"79 562 CURVE",
"78 547 LINE",
"79 540 OFFCURVE",
"79 535 OFFCURVE",
"77 529 CURVE",
"80 448 OFFCURVE",
"79 445 OFFCURVE",
"79 433 CURVE SMOOTH",
"79 417 OFFCURVE",
"82 398 OFFCURVE",
"93 394 CURVE",
"152 401 LINE",
"160 401 LINE SMOOTH",
"172 401 OFFCURVE",
"167 405 OFFCURVE",
"180 402 CURVE",
"181 402 LINE SMOOTH",
"314 402 OFFCURVE",
"354 402 OFFCURVE",
"360 337 CURVE",
"349 336 OFFCURVE",
"334 336 OFFCURVE",
"315 337 CURVE SMOOTH",
"301 338 OFFCURVE",
"276 337 OFFCURVE",
"243 336 CURVE SMOOTH",
"164 334 OFFCURVE",
"116 329 OFFCURVE",
"73 278 CURVE SMOOTH",
"33 231 OFFCURVE",
"27 207 OFFCURVE",
"29 158 CURVE SMOOTH",
"34 34 OFFCURVE",
"94 -24 OFFCURVE",
"221 -19 CURVE SMOOTH"
);
},
{
closed = 1;
nodes = (
"289 132 OFFCURVE",
"283 138 OFFCURVE",
"276 162 CURVE",
"272 200 LINE SMOOTH",
"269 232 OFFCURVE",
"285 262 OFFCURVE",
"316 264 CURVE SMOOTH",
"332 265 OFFCURVE",
"358 242 OFFCURVE",
"356 199 CURVE SMOOTH",
"355 180 LINE",
"347 149 OFFCURVE",
"323 132 OFFCURVE",
"297 132 CURVE SMOOTH"
);
}
);
width = 650;
}
);
note = a;
unicode = 0061;
},
{
glyphname = aogonek;
lastChange = "2017-07-18 19:23:11 +0000";
layers = (
{
layerId = "CBDECE4A-293B-4E5C-B714-A3FD26C7130D";
paths = (
{
closed = 1;
nodes = (
"612 -154 OFFCURVE",
"583 -160 OFFCURVE",
"556 -160 CURVE SMOOTH",
"547 -160 OFFCURVE",
"541 -160 OFFCURVE",
"536 -161 CURVE",
"528 -164 OFFCURVE",
"518 -159 OFFCURVE",
"515 -158 CURVE",
"500 -154 OFFCURVE",
"492 -146 OFFCURVE",
"492 -126 CURVE SMOOTH",
"492 -118 OFFCURVE",
"496 -106 OFFCURVE",
"505 -90 CURVE SMOOTH",
"518 -67 OFFCURVE",
"532 -49 OFFCURVE",
"551 -33 CURVE",
"582 -1 LINE",
"594 -1 LINE",
"605 -1 LINE",
"411 3 LINE",
"417 3 OFFCURVE",
"421 3 OFFCURVE",
"424 2 CURVE",
"405 -10 LINE SMOOTH",
"402 -12 OFFCURVE",
"396 -15 OFFCURVE",
"389 -19 CURVE",
"381 -24 OFFCURVE",
"375 -28 OFFCURVE",
"370 -33 CURVE",
"314 -70 OFFCURVE",
"287 -103 OFFCURVE",
"287 -163 CURVE SMOOTH",
"287 -175 OFFCURVE",
"289 -186 OFFCURVE",
"292 -195 CURVE",
"303 -220 OFFCURVE",
"326 -240 OFFCURVE",
"363 -253 CURVE SMOOTH",
"402 -268 OFFCURVE",
"457 -276 OFFCURVE",
"530 -276 CURVE",
"540 -274 LINE",
"542 -273 OFFCURVE",
"545 -273 OFFCURVE",
"548 -273 CURVE SMOOTH",
"551 -273 OFFCURVE",
"555 -272 OFFCURVE",
"560 -271 CURVE",
"571 -270 OFFCURVE",
"587 -265 OFFCURVE",
"607 -258 CURVE",
"620 -251 OFFCURVE",
"632 -245 OFFCURVE",
"633 -240 CURVE SMOOTH",
"650 -158 LINE",
"650 -153 LINE SMOOTH",
"650 -148 OFFCURVE",
"648 -145 OFFCURVE",
"643 -143 CURVE"
);
},
{
closed = 1;
nodes = (
"264 -27 OFFCURVE",
"304 -8 OFFCURVE",
"341 64 CURVE",
"342 64 OFFCURVE",
"342 64 OFFCURVE",
"344 62 CURVE",
"344 61 OFFCURVE",
"344 58 OFFCURVE",
"344 57 CURVE",
"344 55 OFFCURVE",
"345 51 OFFCURVE",
"345 50 CURVE",
"343 48 OFFCURVE",
"343 43 OFFCURVE",
"343 36 CURVE SMOOTH",
"343 24 LINE SMOOTH",
"343 8 OFFCURVE",
"348 -2 OFFCURVE",
"357 -6 CURVE",
"367 -10 OFFCURVE",
"377 -14 OFFCURVE",
"392 -13 CURVE SMOOTH",
"410 -12 OFFCURVE",
"421 -12 OFFCURVE",
"430 -14 CURVE",
"462 -13 LINE",
"495 -12 LINE",
"592 -9 LINE SMOOTH",
"612 -8 OFFCURVE",
"614 11 OFFCURVE",
"612 45 CURVE SMOOTH",
"611 66 OFFCURVE",
"612 84 OFFCURVE",
"618 111 CURVE",
"617 133 LINE",
"617 144 OFFCURVE",
"615 175 OFFCURVE",
"614 212 CURVE SMOOTH",
"610 352 LINE",
"607 448 OFFCURVE",
"582 517 OFFCURVE",
"488 555 CURVE SMOOTH",
"433 577 OFFCURVE",
"288 586 OFFCURVE",
"214 582 CURVE SMOOTH",
"194 581 OFFCURVE",
"189 579 OFFCURVE",
"152 573 CURVE",
"150 573 OFFCURVE",
"144 572 OFFCURVE",
"140 571 CURVE",
"118 567 LINE SMOOTH",
"104 564 OFFCURVE",
"94 562 OFFCURVE",
"89 562 CURVE SMOOTH",
"87 562 OFFCURVE",
"87 562 OFFCURVE",
"86 560 CURVE SMOOTH",
"81 554 LINE",
"79 552 OFFCURVE",
"78 552 OFFCURVE",
"75 552 CURVE",
"74 537 LINE",
"75 530 OFFCURVE",
"75 525 OFFCURVE",
"73 519 CURVE",
"76 438 OFFCURVE",
"75 435 OFFCURVE",
"75 423 CURVE SMOOTH",
"75 407 OFFCURVE",
"78 388 OFFCURVE",
"89 384 CURVE",
"148 391 LINE",
"156 391 LINE SMOOTH",
"168 391 OFFCURVE",
"163 395 OFFCURVE",
"176 392 CURVE",
"177 392 LINE SMOOTH",
"310 392 OFFCURVE",
"350 392 OFFCURVE",
"356 327 CURVE",
"345 326 OFFCURVE",
"330 326 OFFCURVE",
"311 327 CURVE SMOOTH",
"297 328 OFFCURVE",
"272 327 OFFCURVE",
"239 326 CURVE SMOOTH",
"160 324 OFFCURVE",
"112 319 OFFCURVE",
"69 268 CURVE SMOOTH",
"29 221 OFFCURVE",
"23 197 OFFCURVE",
"25 148 CURVE SMOOTH",
"30 24 OFFCURVE",
"90 -34 OFFCURVE",
"217 -29 CURVE SMOOTH"
);
},
{
closed = 1;
nodes = (
"285 122 OFFCURVE",
"279 128 OFFCURVE",
"272 152 CURVE",
"268 190 LINE SMOOTH",
"265 222 OFFCURVE",
"281 252 OFFCURVE",
"312 254 CURVE SMOOTH",
"328 255 OFFCURVE",
"354 232 OFFCURVE",
"352 189 CURVE SMOOTH",
"351 170 LINE",
"343 139 OFFCURVE",
"319 122 OFFCURVE",
"293 122 CURVE SMOOTH"
);
}
);
width = 674;
}
);
note = aogonek;
unicode = 0105;
},
{
glyphname = aring;
lastChange = "2017-07-18 19:22:25 +0000";
layers = (
{
components = (
{
name = uni030A;
transform = "{1, 0, 0, 1, 754, 0}";
}
);
layerId = "CBDECE4A-293B-4E5C-B714-A3FD26C7130D";
paths = (
{
closed = 1;
nodes = (
"268 -17 OFFCURVE",
"308 2 OFFCURVE",
"345 74 CURVE",
"346 74 OFFCURVE",
"346 74 OFFCURVE",
"348 72 CURVE",
"348 71 OFFCURVE",
"348 68 OFFCURVE",
"348 67 CURVE",
"348 65 OFFCURVE",
"349 61 OFFCURVE",
"349 60 CURVE",
"347 58 OFFCURVE",
"347 53 OFFCURVE",
"347 46 CURVE SMOOTH",
"347 34 LINE SMOOTH",
"347 18 OFFCURVE",
"352 8 OFFCURVE",
"361 4 CURVE",
"371 0 OFFCURVE",
"381 -4 OFFCURVE",
"396 -3 CURVE SMOOTH",
"414 -2 OFFCURVE",
"425 -2 OFFCURVE",
"434 -4 CURVE",
"466 -3 LINE",
"499 -2 LINE",
"596 1 LINE SMOOTH",
"616 2 OFFCURVE",
"618 21 OFFCURVE",
"616 55 CURVE SMOOTH",
"615 76 OFFCURVE",
"616 94 OFFCURVE",
"622 121 CURVE",
"621 143 LINE",
"621 154 OFFCURVE",
"619 185 OFFCURVE",
"618 222 CURVE SMOOTH",
"614 362 LINE",
"611 458 OFFCURVE",
"586 527 OFFCURVE",
"492 565 CURVE SMOOTH",
"437 587 OFFCURVE",
"292 596 OFFCURVE",
"218 592 CURVE SMOOTH",
"198 591 OFFCURVE",
"193 589 OFFCURVE",
"156 583 CURVE",
"154 583 OFFCURVE",
"148 582 OFFCURVE",
"144 581 CURVE",
"122 577 LINE SMOOTH",
"108 574 OFFCURVE",
"98 572 OFFCURVE",
"93 572 CURVE SMOOTH",
"91 572 OFFCURVE",
"91 572 OFFCURVE",
"90 570 CURVE SMOOTH",
"85 564 LINE",
"83 562 OFFCURVE",
"82 562 OFFCURVE",
"79 562 CURVE",
"78 547 LINE",
"79 540 OFFCURVE",
"79 535 OFFCURVE",
"77 529 CURVE",
"80 448 OFFCURVE",
"79 445 OFFCURVE",
"79 433 CURVE SMOOTH",
"79 417 OFFCURVE",
"82 398 OFFCURVE",
"93 394 CURVE",
"152 401 LINE",
"160 401 LINE SMOOTH",
"172 401 OFFCURVE",
"167 405 OFFCURVE",
"180 402 CURVE",
"181 402 LINE SMOOTH",
"314 402 OFFCURVE",
"354 402 OFFCURVE",
"360 337 CURVE",
"349 336 OFFCURVE",
"334 336 OFFCURVE",
"315 337 CURVE SMOOTH",
"301 338 OFFCURVE",
"276 337 OFFCURVE",
"243 336 CURVE SMOOTH",
"164 334 OFFCURVE",
"116 329 OFFCURVE",
"73 278 CURVE SMOOTH",
"33 231 OFFCURVE",
"27 207 OFFCURVE",
"29 158 CURVE SMOOTH",
"34 34 OFFCURVE",
"94 -24 OFFCURVE",
"221 -19 CURVE SMOOTH"
);
},
{
closed = 1;
nodes = (
"289 132 OFFCURVE",
"283 138 OFFCURVE",
"276 162 CURVE",
"272 200 LINE SMOOTH",
"269 232 OFFCURVE",
"285 262 OFFCURVE",
"316 264 CURVE SMOOTH",
"332 265 OFFCURVE",
"358 242 OFFCURVE",
"356 199 CURVE SMOOTH",
"355 180 LINE",
"347 149 OFFCURVE",
"323 132 OFFCURVE",
"297 132 CURVE SMOOTH"
);
}
);
width = 647;
}
);
note = aring;
unicode = 00E5;
},
{
glyphname = aringacute;
lastChange = "2017-07-18 19:21:27 +0000";
layers = (
{
layerId = "CBDECE4A-293B-4E5C-B714-A3FD26C7130D";
paths = (
{
closed = 1;
nodes = (
"584 832 OFFCURVE",
"586 832 OFFCURVE",
"587 833 CURVE",
"589 834 OFFCURVE",
"592 834 OFFCURVE",
"596 834 CURVE",
"599 833 OFFCURVE",
"602 833 OFFCURVE",
"604 833 CURVE SMOOTH",
"622 833 LINE",
"624 834 LINE",
"629 833 LINE",
"640 833 LINE",
"652 833 LINE SMOOTH",
"656 833 OFFCURVE",
"659 836 OFFCURVE",
"661 843 CURVE",
"670 860 OFFCURVE",
"677 876 OFFCURVE",
"681 891 CURVE",
"682 896 OFFCURVE",
"684 900 OFFCURVE",
"686 904 CURVE SMOOTH",
"688 908 OFFCURVE",
"689 912 OFFCURVE",
"690 915 CURVE",
"696 926 OFFCURVE",
"702 939 OFFCURVE",
"707 954 CURVE SMOOTH",
"708 957 OFFCURVE",
"710 963 OFFCURVE",
"713 971 CURVE",
"715 979 OFFCURVE",
"719 986 OFFCURVE",
"724 993 CURVE",
"725 994 OFFCURVE",
"726 996 OFFCURVE",
"727 999 CURVE SMOOTH",
"728 1002 OFFCURVE",
"729 1005 OFFCURVE",
"731 1008 CURVE",
"739 1023 LINE SMOOTH",
"744 1032 OFFCURVE",
"746 1038 OFFCURVE",
"747 1040 CURVE",
"749 1046 OFFCURVE",
"751 1052 OFFCURVE",
"754 1057 CURVE SMOOTH",
"757 1062 OFFCURVE",
"759 1065 OFFCURVE",
"760 1068 CURVE",
"767 1076 OFFCURVE",
"756 1081 OFFCURVE",
"739 1084 CURVE",
"737 1084 LINE",
"736 1083 OFFCURVE",
"735 1083 OFFCURVE",
"734 1083 CURVE",
"730 1085 LINE",
"704 1086 LINE",
"703 1086 OFFCURVE",
"703 1086 OFFCURVE",
"702 1087 CURVE SMOOTH",
"701 1088 OFFCURVE",
"700 1088 OFFCURVE",
"699 1088 CURVE SMOOTH",
"696 1088 LINE",
"689 1088 LINE",
"684 1088 LINE",
"679 1089 LINE",
"645 1088 LINE",
"605 1088 LINE",
"579 1083 LINE",
"574 1078 LINE",
"571 1063 OFFCURVE",
"567 1042 OFFCURVE",
"563 1014 CURVE",
"562 999 OFFCURVE",
"560 989 OFFCURVE",
"559 983 CURVE",
"559 949 LINE SMOOTH",
"559 944 OFFCURVE",
"559 938 OFFCURVE",
"558 933 CURVE SMOOTH",
"557 928 OFFCURVE",
"557 922 OFFCURVE",
"557 916 CURVE SMOOTH",
"556 873 LINE SMOOTH",
"556 853 OFFCURVE",
"553 833 OFFCURVE",
"570 833 CURVE",
"581 832 LINE"
);
},
{
closed = 1;
nodes = (
"329 643 OFFCURVE",
"337 643 OFFCURVE",
"348 643 CURVE SMOOTH",
"370 643 OFFCURVE",
"395 643 OFFCURVE",
"419 650 CURVE SMOOTH",
"453 660 OFFCURVE",
"479 676 OFFCURVE",
"497 701 CURVE",
"501 703 LINE",
"525 738 OFFCURVE",
"539 783 OFFCURVE",
"539 824 CURVE SMOOTH",
"539 897 OFFCURVE",
"518 942 OFFCURVE",
"449 991 CURVE",
"417 1008 OFFCURVE",
"395 1011 OFFCURVE",
"322 1011 CURVE SMOOTH",
"321 1011 LINE SMOOTH",
"320 1011 OFFCURVE",
"319 1011 OFFCURVE",
"319 1010 CURVE",
"314 1011 OFFCURVE",
"306 1011 OFFCURVE",
"297 1011 CURVE SMOOTH",
"250 1011 OFFCURVE",
"211 988 OFFCURVE",
"184 949 CURVE",
"156 913 OFFCURVE",
"141 866 OFFCURVE",
"141 819 CURVE SMOOTH",
"141 759 OFFCURVE",
"166 696 OFFCURVE",
"210 669 CURVE",
"248 650 OFFCURVE",
"286 641 OFFCURVE",
"324 643 CURVE"
);
},
{
closed = 1;
nodes = (
"303 756 OFFCURVE",
"272 774 OFFCURVE",
"272 798 CURVE SMOOTH",
"272 801 OFFCURVE",
"270 804 OFFCURVE",
"269 804 CURVE",
"269 810 LINE",
"269 815 LINE SMOOTH",
"269 848 OFFCURVE",
"275 873 OFFCURVE",
"291 889 CURVE SMOOTH",
"302 900 OFFCURVE",
"315 906 OFFCURVE",
"330 906 CURVE SMOOTH",
"346 906 OFFCURVE",
"359 905 OFFCURVE",
"369 903 CURVE",
"404 891 OFFCURVE",
"419 865 OFFCURVE",
"419 848 CURVE SMOOTH",
"419 844 LINE SMOOTH",
"419 836 OFFCURVE",
"413 800 OFFCURVE",
"389 776 CURVE",
"373 763 OFFCURVE",
"353 756 OFFCURVE",
"330 756 CURVE SMOOTH"
);
},
{
closed = 1;
nodes = (
"264 -17 OFFCURVE",
"304 2 OFFCURVE",
"341 74 CURVE",
"342 74 OFFCURVE",
"342 74 OFFCURVE",
"344 72 CURVE",
"344 71 OFFCURVE",
"344 68 OFFCURVE",
"344 67 CURVE",
"344 65 OFFCURVE",
"345 61 OFFCURVE",
"345 60 CURVE",
"343 58 OFFCURVE",
"343 53 OFFCURVE",
"343 46 CURVE SMOOTH",
"343 34 LINE SMOOTH",
"343 18 OFFCURVE",
"348 8 OFFCURVE",
"357 4 CURVE",
"367 0 OFFCURVE",
"377 -4 OFFCURVE",
"392 -3 CURVE SMOOTH",
"410 -2 OFFCURVE",
"421 -2 OFFCURVE",
"430 -4 CURVE",
"462 -3 LINE",
"495 -2 LINE",
"592 1 LINE SMOOTH",
"612 2 OFFCURVE",
"614 21 OFFCURVE",
"612 55 CURVE SMOOTH",
"611 76 OFFCURVE",
"612 94 OFFCURVE",
"618 121 CURVE",
"617 143 LINE",
"617 154 OFFCURVE",
"615 185 OFFCURVE",
"614 222 CURVE SMOOTH",
"610 362 LINE",
"607 458 OFFCURVE",
"582 527 OFFCURVE",
"488 565 CURVE SMOOTH",
"433 587 OFFCURVE",
"288 596 OFFCURVE",
"214 592 CURVE SMOOTH",
"194 591 OFFCURVE",
"189 589 OFFCURVE",
"152 583 CURVE",
"150 583 OFFCURVE",
"144 582 OFFCURVE",
"140 581 CURVE",
"118 577 LINE SMOOTH",
"104 574 OFFCURVE",
"94 572 OFFCURVE",
"89 572 CURVE SMOOTH",
"87 572 OFFCURVE",
"87 572 OFFCURVE",
"86 570 CURVE SMOOTH",
"81 564 LINE",
"79 562 OFFCURVE",
"78 562 OFFCURVE",
"75 562 CURVE",
"74 547 LINE",
"75 540 OFFCURVE",
"75 535 OFFCURVE",
"73 529 CURVE",
"76 448 OFFCURVE",
"75 445 OFFCURVE",
"75 433 CURVE SMOOTH",
"75 417 OFFCURVE",
"78 398 OFFCURVE",
"89 394 CURVE",
"148 401 LINE",
"156 401 LINE SMOOTH",
"168 401 OFFCURVE",
"163 405 OFFCURVE",
"176 402 CURVE",
"177 402 LINE SMOOTH",
"310 402 OFFCURVE",
"350 402 OFFCURVE",
"356 337 CURVE",
"345 336 OFFCURVE",
"330 336 OFFCURVE",
"311 337 CURVE SMOOTH",
"297 338 OFFCURVE",
"272 337 OFFCURVE",
"239 336 CURVE SMOOTH",
"160 334 OFFCURVE",
"112 329 OFFCURVE",
"69 278 CURVE SMOOTH",
"29 231 OFFCURVE",
"23 207 OFFCURVE",
"25 158 CURVE SMOOTH",
"30 34 OFFCURVE",
"90 -24 OFFCURVE",
"217 -19 CURVE SMOOTH"
);
},
{
closed = 1;
nodes = (
"285 132 OFFCURVE",
"279 138 OFFCURVE",
"272 162 CURVE",
"268 200 LINE SMOOTH",
"265 232 OFFCURVE",
"281 262 OFFCURVE",
"312 264 CURVE SMOOTH",
"328 265 OFFCURVE",
"354 242 OFFCURVE",
"352 199 CURVE SMOOTH",
"351 180 LINE",
"343 149 OFFCURVE",
"319 132 OFFCURVE",
"293 132 CURVE SMOOTH"
);
}
);
width = 704;
}
);
note = aringacute;
unicode = 01FB;
},
{
glyphname = ae;
lastChange = "2017-06-11 23:28:21 +0000";
layers = (
{
layerId = "CBDECE4A-293B-4E5C-B714-A3FD26C7130D";
paths = (
{
closed = 1;
nodes = (
"114 0 LINE",
"145 0 LINE SMOOTH",
"154 0 OFFCURVE",
"159 0 OFFCURVE",
"160 1 CURVE",
"221 1 LINE SMOOTH",
"222 1 OFFCURVE",
"223 1 OFFCURVE",
"225 2 CURVE",
"227 2 OFFCURVE",
"230 2 OFFCURVE",
"233 3 CURVE",
"260 3 LINE",
"300 5 LINE",
"305 3 LINE",
"306 2 OFFCURVE",
"308 1 OFFCURVE",
"313 1 CURVE SMOOTH",
"314 1 LINE SMOOTH",
"315 1 OFFCURVE",
"317 2 OFFCURVE",
"320 3 CURVE",
"328 5 LINE",
"338 18 OFFCURVE",
"355 50 OFFCURVE",
"378 103 CURVE",
"403 103 LINE",
"430 103 LINE SMOOTH",
"448 103 OFFCURVE",
"464 104 OFFCURVE",
"479 106 CURVE",
"477 82 OFFCURVE",
"476 61 OFFCURVE",
"476 43 CURVE SMOOTH",
"476 25 OFFCURVE",
"477 12 OFFCURVE",
"479 5 CURVE",
"487 5 OFFCURVE",
"500 4 OFFCURVE",
"519 3 CURVE",
"527 3 OFFCURVE",
"533 2 OFFCURVE",
"536 1 CURVE",
"543 1 LINE",
"546 1 LINE SMOOTH",
"547 1 OFFCURVE",
"548 2 OFFCURVE",
"549 3 CURVE SMOOTH",
"551 5 LINE",
"554 5 LINE",
"554 4 OFFCURVE",
"555 4 OFFCURVE",
"556 4 CURVE SMOOTH",
"558 4 LINE",
"558 1 LINE",
"613 1 LINE",
"614 0 OFFCURVE",
"616 0 OFFCURVE",
"621 0 CURVE SMOOTH",
"638 0 LINE",
"659 0 LINE",
"681 0 LINE",
"686 -1 OFFCURVE",
"692 -1 OFFCURVE",
"700 -1 CURVE SMOOTH",
"711 -1 LINE SMOOTH",
"761 -1 OFFCURVE",
"807 0 OFFCURVE",
"850 1 CURVE SMOOTH",
"886 3 LINE",
"895 3 OFFCURVE",
"907 4 OFFCURVE",
"923 5 CURVE SMOOTH",
"936 6 OFFCURVE",
"961 8 OFFCURVE",
"981 8 CURVE SMOOTH",
"984 8 LINE",
"991 8 LINE",
"998 15 LINE",
"999 23 LINE",
"999 26 LINE",
"999 46 LINE",
"998 57 OFFCURVE",
"994 70 OFFCURVE",
"993 75 CURVE",
"990 85 OFFCURVE",
"988 94 OFFCURVE",
"988 103 CURVE",
"987 106 OFFCURVE",
"986 108 OFFCURVE",
"986 111 CURVE SMOOTH",
"986 113 OFFCURVE",
"986 115 OFFCURVE",
"985 116 CURVE",
"982 126 OFFCURVE",
"980 131 OFFCURVE",
"978 131 CURVE SMOOTH",
"949 131 OFFCURVE",
"918 130 OFFCURVE",
"886 128 CURVE SMOOTH",
"855 126 OFFCURVE",
"825 125 OFFCURVE",
"794 125 CURVE",
"794 131 LINE",
"794 140 LINE",
"794 150 LINE",
"793 159 LINE",
"793 162 OFFCURVE",
"794 166 OFFCURVE",
"795 171 CURVE",
"796 193 LINE",
"795 200 LINE",
"795 204 LINE SMOOTH",
"795 211 OFFCURVE",
"796 217 OFFCURVE",
"799 220 CURVE",
"803 228 OFFCURVE",
"812 229 OFFCURVE",
"829 229 CURVE SMOOTH",
"858 229 LINE",
"903 229 LINE SMOOTH",
"932 229 OFFCURVE",
"952 230 OFFCURVE",
"963 233 CURVE",
"978 236 OFFCURVE",
"986 242 OFFCURVE",
"986 251 CURVE SMOOTH",
"986 254 LINE",
"984 320 LINE SMOOTH",
"983 339 OFFCURVE",
"971 349 OFFCURVE",
"960 348 CURVE",
"823 348 LINE SMOOTH",
"803 348 OFFCURVE",
"799 350 OFFCURVE",
"799 363 CURVE",
"800 383 LINE",
"805 412 OFFCURVE",
"808 430 OFFCURVE",
"809 436 CURVE",
"811 443 OFFCURVE",
"813 446 OFFCURVE",
"816 446 CURVE SMOOTH",
"838 446 LINE",
"845 445 OFFCURVE",
"855 445 OFFCURVE",
"869 445 CURVE SMOOTH",
"882 445 OFFCURVE",
"892 445 OFFCURVE",
"898 446 CURVE",
"919 446 OFFCURVE",
"934 450 OFFCURVE",
"941 451 CURVE",
"949 453 OFFCURVE",
"956 454 OFFCURVE",
"963 454 CURVE SMOOTH",
"967 454 OFFCURVE",
"970 454 OFFCURVE",
"973 453 CURVE",
"974 451 OFFCURVE",
"977 450 OFFCURVE",
"981 450 CURVE SMOOTH",
"986 450 OFFCURVE",
"990 451 OFFCURVE",
"994 453 CURVE",
"999 454 OFFCURVE",
"1003 455 OFFCURVE",
"1005 454 CURVE",
"1007 454 OFFCURVE",
"1008 454 OFFCURVE",
"1009 453 CURVE SMOOTH",
"1010 452 OFFCURVE",
"1011 452 OFFCURVE",
"1012 451 CURVE SMOOTH",
"1013 450 OFFCURVE",
"1013 450 OFFCURVE",
"1013 450 CURVE",
"1020 450 OFFCURVE",
"1023 459 OFFCURVE",
"1023 478 CURVE",
"1021 483 OFFCURVE",
"1019 494 OFFCURVE",
"1016 511 CURVE SMOOTH",
"1009 548 OFFCURVE",
"1008 558 OFFCURVE",
"1001 570 CURVE SMOOTH",
"998 575 OFFCURVE",
"993 578 OFFCURVE",
"988 578 CURVE SMOOTH",
"958 578 LINE",
"958 581 OFFCURVE",
"957 581 OFFCURVE",
"953 581 CURVE SMOOTH",
"923 581 OFFCURVE",
"891 580 OFFCURVE",
"858 578 CURVE SMOOTH",
"823 575 OFFCURVE",
"791 573 OFFCURVE",
"764 573 CURVE SMOOTH",
"738 573 OFFCURVE",
"713 574 OFFCURVE",
"689 576 CURVE SMOOTH",
"669 577 OFFCURVE",
"637 578 OFFCURVE",
"594 578 CURVE SMOOTH",
"573 578 OFFCURVE",
"558 577 OFFCURVE",
"549 575 CURVE",
"522 574 LINE",
"513 573 OFFCURVE",
"502 573 OFFCURVE",
"489 573 CURVE",
"473 571 OFFCURVE",
"451 570 OFFCURVE",
"424 570 CURVE SMOOTH",
"410 570 OFFCURVE",
"398 571 OFFCURVE",
"388 573 CURVE",
"379 574 OFFCURVE",
"368 574 OFFCURVE",
"353 574 CURVE SMOOTH",
"342 574 OFFCURVE",
"334 574 OFFCURVE",
"331 573 CURVE SMOOTH",
"325 571 OFFCURVE",
"318 570 OFFCURVE",
"311 570 CURVE SMOOTH",
"303 570 LINE",
"299 567 OFFCURVE",
"293 563 OFFCURVE",
"293 560 CURVE",
"168 294 LINE SMOOTH",
"149 256 OFFCURVE",
"124 199 OFFCURVE",
"92 123 CURVE SMOOTH",
"73 79 LINE",
"64 60 LINE",
"62 55 OFFCURVE",
"60 51 OFFCURVE",
"59 46 CURVE",
"55 37 OFFCURVE",
"50 21 OFFCURVE",
"50 13 CURVE SMOOTH",
"50 4 OFFCURVE",
"54 -1 OFFCURVE",
"61 -1 CURVE",
"81 0 LINE"
);
},
{
closed = 1;
nodes = (
"494 213 OFFCURVE",
"490 214 OFFCURVE",
"483 215 CURVE",
"475 217 OFFCURVE",
"470 218 OFFCURVE",
"469 218 CURVE SMOOTH",
"468 218 LINE SMOOTH",
"467 218 OFFCURVE",
"465 218 OFFCURVE",
"464 217 CURVE SMOOTH",
"463 216 OFFCURVE",
"461 215 OFFCURVE",
"460 214 CURVE",
"418 214 LINE",
"421 225 OFFCURVE",
"430 246 OFFCURVE",
"434 255 CURVE SMOOTH",
"459 314 LINE SMOOTH",
"461 319 OFFCURVE",
"463 325 OFFCURVE",
"466 331 CURVE",
"468 336 OFFCURVE",
"470 342 OFFCURVE",
"473 349 CURVE SMOOTH",
"489 386 OFFCURVE",
"499 410 OFFCURVE",
"503 419 CURVE",
"504 423 OFFCURVE",
"506 426 OFFCURVE",
"507 428 CURVE",
"508 429 OFFCURVE",
"508 430 OFFCURVE",
"508 431 CURVE",
"514 444 LINE",
"514 431 LINE SMOOTH",
"514 430 OFFCURVE",
"514 429 OFFCURVE",
"514 428 CURVE",
"513 426 OFFCURVE",
"513 423 OFFCURVE",
"513 419 CURVE SMOOTH",
"513 416 OFFCURVE",
"513 412 OFFCURVE",
"512 407 CURVE SMOOTH",
"511 402 OFFCURVE",
"511 396 OFFCURVE",
"510 390 CURVE",
"509 374 OFFCURVE",
"508 360 OFFCURVE",
"508 348 CURVE",
"504 327 OFFCURVE",
"502 296 OFFCURVE",
"499 253 CURVE",
"499 244 OFFCURVE",
"497 224 OFFCURVE",
"496 213 CURVE"
);
}
);
width = 1078;
}
);
note = ae;
unicode = 00E6;
},
{
glyphname = b;
lastChange = "2017-07-18 20:03:23 +0000";
layers = (
{
layerId = "CBDECE4A-293B-4E5C-B714-A3FD26C7130D";
paths = (
{
closed = 1;
nodes = (
"366 162 OFFCURVE",
"358 172 OFFCURVE",
"352 193 CURVE",
"347 213 OFFCURVE",
"344 238 OFFCURVE",
"344 266 CURVE",
"341 282 OFFCURVE",
"340 300 OFFCURVE",
"340 322 CURVE",
"341 331 LINE",
"341 337 OFFCURVE",
"344 344 OFFCURVE",
"344 348 CURVE",
"347 385 OFFCURVE",
"365 426 OFFCURVE",
"403 426 CURVE SMOOTH",
"419 426 OFFCURVE",
"426 394 OFFCURVE",
"435 344 CURVE SMOOTH",
"439 321 OFFCURVE",
"440 282 OFFCURVE",
"440 271 CURVE",
"438 250 OFFCURVE",
"436 232 OFFCURVE",
"432 213 CURVE",
"420 183 OFFCURVE",
"405 162 OFFCURVE",
"376 162 CURVE SMOOTH"
);
},
{
closed = 1;
nodes = (
"26 484 LINE",
"27 462 LINE",
"27 244 LINE SMOOTH",
"27 199 OFFCURVE",
"27 167 OFFCURVE",
"29 152 CURVE",
"29 122 LINE",
"32 98 OFFCURVE",
"33 75 OFFCURVE",
"33 49 CURVE SMOOTH",
"33 11 OFFCURVE",
"37 -12 OFFCURVE",
"61 -12 CURVE SMOOTH",
"128 -11 LINE",
"229 -11 LINE",
"237 -9 OFFCURVE",
"254 -9 OFFCURVE",
"277 -9 CURVE SMOOTH",
"296 -9 OFFCURVE",
"309 -7 OFFCURVE",
"320 0 CURVE",
"323 1 OFFCURVE",
"338 10 OFFCURVE",
"334 24 CURVE",
"333 29 OFFCURVE",
"333 34 OFFCURVE",
"333 36 CURVE",
"334 37 OFFCURVE",
"334 39 OFFCURVE",
"334 40 CURVE",
"335 43 OFFCURVE",
"335 43 OFFCURVE",
"336 43 CURVE",
"383 0 OFFCURVE",
"440 -9 OFFCURVE",
"497 -9 CURVE SMOOTH",
"631 -9 OFFCURVE",
"719 63 OFFCURVE",
"719 261 CURVE SMOOTH",
"719 320 OFFCURVE",
"702 429 OFFCURVE",
"670 469 CURVE",
"612 540 OFFCURVE",
"552 563 OFFCURVE",
"454 563 CURVE SMOOTH",
"368 563 OFFCURVE",
"316 521 OFFCURVE",
"310 521 CURVE",
"310 636 LINE",
"309 636 LINE",
"310 693 LINE",
"310 745 LINE SMOOTH",
"310 759 OFFCURVE",
"284 763 OFFCURVE",
"255 763 CURVE SMOOTH",
"245 763 OFFCURVE",
"234 763 OFFCURVE",
"223 762 CURVE SMOOTH",
"212 761 OFFCURVE",
"204 760 OFFCURVE",
"198 760 CURVE",
"186 759 OFFCURVE",
"147 757 OFFCURVE",
"122 757 CURVE",
"117 761 LINE",
"59 757 LINE",
"18 760 OFFCURVE",
"25 738 OFFCURVE",
"25 728 CURVE SMOOTH",
"25 600 OFFCURVE",
"26 588 OFFCURVE",
"26 487 CURVE SMOOTH"
);
}
);
width = 739;
}
);
note = b;
unicode = 0062;
},
{
glyphname = c;
lastChange = "2017-07-17 17:07:36 +0000";
layers = (
{
layerId = "CBDECE4A-293B-4E5C-B714-A3FD26C7130D";
paths = (
{
closed = 1;
nodes = (
"500 177 OFFCURVE",
"480 166 OFFCURVE",
"459 162 CURVE SMOOTH",
"426 155 LINE",
"360 155 OFFCURVE",
"311 217 OFFCURVE",
"311 297 CURVE SMOOTH",
"311 385 OFFCURVE",
"398 425 OFFCURVE",
"434 425 CURVE",
"434 425 OFFCURVE",
"435 425 OFFCURVE",
"435 426 CURVE",
"456 428 OFFCURVE",
"446 425 OFFCURVE",
"464 425 CURVE SMOOTH",
"475 425 LINE",
"543 416 LINE",
"559 425 OFFCURVE",
"561 442 OFFCURVE",
"561 470 CURVE SMOOTH",
"561 485 OFFCURVE",
"561 509 OFFCURVE",
"559 524 CURVE",
"558 532 OFFCURVE",
"557 542 OFFCURVE",
"557 550 CURVE",
"555 568 LINE",
"553 568 LINE SMOOTH",
"551 568 OFFCURVE",
"549 568 OFFCURVE",
"547 572 CURVE",
"546 575 OFFCURVE",
"543 577 OFFCURVE",
"543 577 CURVE",
"541 579 OFFCURVE",
"540 580 OFFCURVE",
"539 580 CURVE SMOOTH",
"531 580 OFFCURVE",
"518 582 OFFCURVE",
"507 585 CURVE SMOOTH",
"483 591 LINE",
"473 591 OFFCURVE",
"467 592 OFFCURVE",
"462 592 CURVE",
"413 599 OFFCURVE",
"406 602 OFFCURVE",
"380 602 CURVE SMOOTH",
"284 602 OFFCURVE",
"176 574 OFFCURVE",
"116 524 CURVE SMOOTH",
"53 471 OFFCURVE",
"20 385 OFFCURVE",
"20 288 CURVE",
"31 192 OFFCURVE",
"53 104 OFFCURVE",
"116 53 CURVE SMOOTH",
"177 4 OFFCURVE",
"251 -23 OFFCURVE",
"345 -23 CURVE SMOOTH",
"424 -23 OFFCURVE",
"516 -19 OFFCURVE",
"574 43 CURVE",
"573 83 OFFCURVE",
"570 127 OFFCURVE",
"553 175 CURVE",
"553 177 LINE",
"552 182 OFFCURVE",
"548 188 OFFCURVE",
"542 192 CURVE"
);
}
);
width = 589;
}
);
leftKerningGroup = c;
note = c;
unicode = 0063;
},
{
glyphname = ccedilla;
lastChange = "2017-07-18 19:28:24 +0000";
layers = (
{
layerId = "CBDECE4A-293B-4E5C-B714-A3FD26C7130D";
paths = (
{
closed = 1;
nodes = (
"268 -15 LINE",
"258 -78 LINE",
"256 -118 LINE",
"269 -112 OFFCURVE",
"283 -109 OFFCURVE",
"298 -109 CURVE SMOOTH",
"337 -109 OFFCURVE",
"361 -128 OFFCURVE",
"361 -163 CURVE SMOOTH",
"361 -196 OFFCURVE",
"341 -229 OFFCURVE",
"296 -229 CURVE SMOOTH",
"271 -229 OFFCURVE",
"248 -224 OFFCURVE",
"227 -215 CURVE",
"226 -216 OFFCURVE",
"225 -219 OFFCURVE",
"223 -224 CURVE SMOOTH",
"221 -229 OFFCURVE",
"219 -236 OFFCURVE",
"216 -243 CURVE",
"206 -298 LINE",
"212 -305 OFFCURVE",
"221 -311 OFFCURVE",
"232 -315 CURVE SMOOTH",
"255 -323 OFFCURVE",
"276 -328 OFFCURVE",
"296 -328 CURVE SMOOTH",
"313 -328 LINE SMOOTH",
"482 -328 OFFCURVE",
"536 -261 OFFCURVE",
"536 -174 CURVE SMOOTH",
"536 -115 OFFCURVE",
"484 -65 OFFCURVE",
"371 -48 CURVE",
"376 -24 LINE",
"383 -24 LINE"
);
},
{
closed = 1;
nodes = (
"500 177 OFFCURVE",
"480 166 OFFCURVE",
"459 162 CURVE SMOOTH",
"426 155 LINE",
"360 155 OFFCURVE",
"311 217 OFFCURVE",
"311 297 CURVE SMOOTH",
"311 385 OFFCURVE",
"398 425 OFFCURVE",
"434 425 CURVE",
"434 425 OFFCURVE",
"435 425 OFFCURVE",
"435 426 CURVE",
"456 428 OFFCURVE",
"446 425 OFFCURVE",
"464 425 CURVE SMOOTH",
"475 425 LINE",
"543 416 LINE",
"559 425 OFFCURVE",
"561 442 OFFCURVE",
"561 470 CURVE SMOOTH",
"561 485 OFFCURVE",
"561 509 OFFCURVE",
"559 524 CURVE",
"558 532 OFFCURVE",
"557 542 OFFCURVE",
"557 550 CURVE",
"555 568 LINE",
"553 568 LINE SMOOTH",
"551 568 OFFCURVE",
"549 568 OFFCURVE",
"547 572 CURVE",
"546 575 OFFCURVE",
"543 577 OFFCURVE",
"543 577 CURVE",
"541 579 OFFCURVE",
"540 580 OFFCURVE",
"539 580 CURVE SMOOTH",
"531 580 OFFCURVE",
"518 582 OFFCURVE",
"507 585 CURVE SMOOTH",
"483 591 LINE",
"473 591 OFFCURVE",
"467 592 OFFCURVE",
"462 592 CURVE",
"413 599 OFFCURVE",
"406 602 OFFCURVE",
"380 602 CURVE SMOOTH",
"284 602 OFFCURVE",
"176 574 OFFCURVE",
"116 524 CURVE SMOOTH",
"53 471 OFFCURVE",
"20 385 OFFCURVE",
"20 288 CURVE",
"31 192 OFFCURVE",
"53 104 OFFCURVE",
"116 53 CURVE SMOOTH",
"177 4 OFFCURVE",
"251 -23 OFFCURVE",
"345 -23 CURVE SMOOTH",
"424 -23 OFFCURVE",
"516 -19 OFFCURVE",
"574 43 CURVE",
"573 83 OFFCURVE",
"570 127 OFFCURVE",
"553 175 CURVE",
"553 177 LINE",
"552 182 OFFCURVE",
"548 188 OFFCURVE",
"542 192 CURVE"
);
}
);
width = 594;
}
);
leftKerningGroup = c;
note = ccedilla;
unicode = 00E7;
},
{
glyphname = d;
lastChange = "2017-07-18 20:03:19 +0000";
layers = (
{
layerId = "CBDECE4A-293B-4E5C-B714-A3FD26C7130D";
paths = (
{
closed = 1;
nodes = (
"345 172 OFFCURVE",
"337 183 OFFCURVE",
"331 207 CURVE",
"326 229 OFFCURVE",
"323 257 OFFCURVE",
"323 289 CURVE",
"320 307 OFFCURVE",
"319 327 OFFCURVE",
"319 352 CURVE",
"320 362 LINE",
"320 369 OFFCURVE",
"323 377 OFFCURVE",
"323 381 CURVE",
"326 423 OFFCURVE",
"345 469 OFFCURVE",
"382 469 CURVE SMOOTH",
"398 469 OFFCURVE",
"405 433 OFFCURVE",
"414 377 CURVE SMOOTH",
"418 351 OFFCURVE",
"419 307 OFFCURVE",
"419 294 CURVE",
"417 271 OFFCURVE",
"415 251 OFFCURVE",
"411 229 CURVE",
"399 195 OFFCURVE",
"384 172 OFFCURVE",
"355 172 CURVE SMOOTH"
);
},
{
closed = 1;
nodes = (
"713 591 OFFCURVE",
"714 613 OFFCURVE",
"714 741 CURVE SMOOTH",
"714 751 OFFCURVE",
"721 773 OFFCURVE",
"680 770 CURVE",
"622 774 LINE",
"617 770 LINE",
"592 770 OFFCURVE",
"553 772 OFFCURVE",
"541 773 CURVE",
"535 773 OFFCURVE",
"527 774 OFFCURVE",
"516 775 CURVE SMOOTH",
"505 776 OFFCURVE",
"494 776 OFFCURVE",
"484 776 CURVE SMOOTH",
"455 776 OFFCURVE",
"429 772 OFFCURVE",
"429 758 CURVE SMOOTH",
"429 706 LINE",
"430 639 LINE",
"429 639 LINE",
"429 578 LINE",
"414 578 OFFCURVE",
"396 578 OFFCURVE",
"378 579 CURVE SMOOTH",
"359 580 OFFCURVE",
"326 580 OFFCURVE",
"285 580 CURVE SMOOTH",
"187 580 OFFCURVE",
"127 554 OFFCURVE",
"69 480 CURVE",
"37 437 OFFCURVE",
"20 351 OFFCURVE",
"20 287 CURVE SMOOTH",
"20 89 OFFCURVE",
"108 -9 OFFCURVE",
"242 -9 CURVE SMOOTH",
"299 -9 OFFCURVE",
"356 3 OFFCURVE",
"403 86 CURVE",
"404 86 OFFCURVE",
"404 99 OFFCURVE",
"405 96 CURVE",
"405 95 OFFCURVE",
"405 80 OFFCURVE",
"406 79 CURVE",
"406 77 OFFCURVE",
"406 72 OFFCURVE",
"405 67 CURVE",
"404 63 OFFCURVE",
"404 58 OFFCURVE",
"404 54 CURVE SMOOTH",
"404 44 LINE SMOOTH",
"404 24 OFFCURVE",
"409 8 OFFCURVE",
"419 3 CURVE",
"430 -4 OFFCURVE",
"443 -6 OFFCURVE",
"462 -6 CURVE SMOOTH",
"485 -6 OFFCURVE",
"502 -6 OFFCURVE",
"510 -8 CURVE",
"611 -8 LINE",
"678 -9 LINE SMOOTH",
"702 -9 OFFCURVE",
"706 14 OFFCURVE",
"706 52 CURVE SMOOTH",
"706 78 OFFCURVE",
"707 101 OFFCURVE",
"710 125 CURVE",
"710 155 LINE",
"712 170 OFFCURVE",
"712 202 OFFCURVE",
"712 247 CURVE SMOOTH",
"712 465 LINE",
"713 487 LINE",
"713 490 LINE SMOOTH"
);
}
);
width = 739;
}
);
note = d;
unicode = 0064;
},
{
glyphname = eth;
lastChange = "2017-06-11 23:28:21 +0000";
layers = (
{
layerId = "CBDECE4A-293B-4E5C-B714-A3FD26C7130D";
paths = (
{
closed = 1;
nodes = (
"472 0 OFFCURVE",
"564 22 OFFCURVE",
"623 73 CURVE SMOOTH",
"680 122 OFFCURVE",
"705 200 OFFCURVE",
"705 319 CURVE SMOOTH",
"705 385 OFFCURVE",
"692 439 OFFCURVE",
"665 480 CURVE SMOOTH",
"618 551 OFFCURVE",
"543 578 OFFCURVE",
"468 578 CURVE SMOOTH",
"413 578 OFFCURVE",
"374 577 OFFCURVE",
"351 576 CURVE SMOOTH",
"327 575 OFFCURVE",
"294 575 OFFCURVE",
"251 575 CURVE SMOOTH",
"222 575 OFFCURVE",
"198 575 OFFCURVE",
"179 576 CURVE",
"161 576 OFFCURVE",
"147 576 OFFCURVE",
"138 577 CURVE",
"80 578 LINE SMOOTH",
"71 578 OFFCURVE",
"58 564 OFFCURVE",
"58 555 CURVE SMOOTH",
"58 396 LINE",
"28 396 LINE SMOOTH",
"16 396 OFFCURVE",
"0 385 OFFCURVE",
"0 373 CURVE SMOOTH",
"0 343 OFFCURVE",
"0 321 OFFCURVE",
"1 308 CURVE",
"1 243 LINE SMOOTH",
"1 235 OFFCURVE",
"4 229 OFFCURVE",
"10 226 CURVE",
"19 219 OFFCURVE",
"36 216 OFFCURVE",
"59 216 CURVE",
"60 209 OFFCURVE",
"60 200 OFFCURVE",
"60 188 CURVE",
"61 175 OFFCURVE",
"61 156 OFFCURVE",
"61 133 CURVE",
"62 110 OFFCURVE",
"63 84 OFFCURVE",
"63 54 CURVE SMOOTH",
"63 21 OFFCURVE",
"66 1 OFFCURVE",
"85 1 CURVE SMOOTH",
"147 1 OFFCURVE",
"191 1 OFFCURVE",
"216 0 CURVE",
"329 0 LINE SMOOTH"
);
},
{
closed = 1;
nodes = (
"344 220 OFFCURVE",
"358 224 OFFCURVE",
"364 233 CURVE",
"370 239 OFFCURVE",
"373 251 OFFCURVE",
"373 268 CURVE SMOOTH",
"373 293 LINE",
"373 314 LINE",
"374 335 OFFCURVE",
"375 355 OFFCURVE",
"375 373 CURVE SMOOTH",
"375 377 OFFCURVE",
"373 381 OFFCURVE",
"369 385 CURVE",
"360 390 OFFCURVE",
"348 394 OFFCURVE",
"333 395 CURVE",
"330 395 LINE",
"331 404 OFFCURVE",
"331 418 OFFCURVE",
"331 436 CURVE",
"332 447 OFFCURVE",
"333 462 OFFCURVE",
"333 481 CURVE",
"334 482 OFFCURVE",
"338 484 OFFCURVE",
"345 485 CURVE",
"355 488 OFFCURVE",
"368 490 OFFCURVE",
"383 490 CURVE SMOOTH",
"394 490 OFFCURVE",
"403 486 OFFCURVE",
"410 479 CURVE SMOOTH",
"438 452 OFFCURVE",
"446 398 OFFCURVE",
"449 351 CURVE",
"449 335 LINE SMOOTH",
"449 291 OFFCURVE",
"443 249 OFFCURVE",
"430 208 CURVE",
"418 164 OFFCURVE",
"400 131 OFFCURVE",
"383 120 CURVE",
"376 117 OFFCURVE",
"370 116 OFFCURVE",
"365 115 CURVE",
"356 114 OFFCURVE",
"339 113 OFFCURVE",
"315 113 CURVE",
"323 220 LINE"
);
}
);
width = 751;
}
);
note = eth;
unicode = 00F0;
},
{
glyphname = dcroat;
lastChange = "2017-06-11 23:28:21 +0000";
layers = (
{
layerId = "CBDECE4A-293B-4E5C-B714-A3FD26C7130D";
paths = (
{
closed = 1;
nodes = (
"472 0 OFFCURVE",
"564 22 OFFCURVE",
"623 73 CURVE SMOOTH",
"680 122 OFFCURVE",
"705 200 OFFCURVE",
"705 319 CURVE SMOOTH",
"705 385 OFFCURVE",
"692 439 OFFCURVE",
"665 480 CURVE SMOOTH",
"618 551 OFFCURVE",
"543 578 OFFCURVE",
"468 578 CURVE SMOOTH",
"413 578 OFFCURVE",
"374 577 OFFCURVE",
"351 576 CURVE SMOOTH",
"327 575 OFFCURVE",
"294 575 OFFCURVE",
"251 575 CURVE SMOOTH",
"222 575 OFFCURVE",
"198 575 OFFCURVE",
"179 576 CURVE",
"161 576 OFFCURVE",
"147 576 OFFCURVE",
"138 577 CURVE",
"80 578 LINE SMOOTH",
"71 578 OFFCURVE",
"58 564 OFFCURVE",
"58 555 CURVE SMOOTH",
"58 396 LINE",
"28 396 LINE SMOOTH",
"16 396 OFFCURVE",
"0 385 OFFCURVE",
"0 373 CURVE SMOOTH",
"0 343 OFFCURVE",
"0 321 OFFCURVE",
"1 308 CURVE",
"1 243 LINE SMOOTH",
"1 235 OFFCURVE",
"4 229 OFFCURVE",
"10 226 CURVE",
"19 219 OFFCURVE",
"36 216 OFFCURVE",
"59 216 CURVE",
"60 209 OFFCURVE",
"60 200 OFFCURVE",
"60 188 CURVE",
"61 175 OFFCURVE",
"61 156 OFFCURVE",
"61 133 CURVE",
"62 110 OFFCURVE",
"63 84 OFFCURVE",
"63 54 CURVE SMOOTH",
"63 21 OFFCURVE",
"66 1 OFFCURVE",
"85 1 CURVE SMOOTH",
"147 1 OFFCURVE",
"191 1 OFFCURVE",
"216 0 CURVE",
"329 0 LINE SMOOTH"
);
},
{
closed = 1;
nodes = (
"344 220 OFFCURVE",
"358 224 OFFCURVE",
"364 233 CURVE",
"370 239 OFFCURVE",
"373 251 OFFCURVE",
"373 268 CURVE SMOOTH",
"373 293 LINE",
"373 314 LINE",
"374 335 OFFCURVE",
"375 355 OFFCURVE",
"375 373 CURVE SMOOTH",
"375 377 OFFCURVE",
"373 381 OFFCURVE",
"369 385 CURVE",
"360 390 OFFCURVE",
"348 394 OFFCURVE",
"333 395 CURVE",
"330 395 LINE",
"331 404 OFFCURVE",
"331 418 OFFCURVE",
"331 436 CURVE",
"332 447 OFFCURVE",
"333 462 OFFCURVE",
"333 481 CURVE",
"334 482 OFFCURVE",
"338 484 OFFCURVE",
"345 485 CURVE",
"355 488 OFFCURVE",
"368 490 OFFCURVE",
"383 490 CURVE SMOOTH",
"394 490 OFFCURVE",
"403 486 OFFCURVE",
"410 479 CURVE SMOOTH",
"438 452 OFFCURVE",
"446 398 OFFCURVE",
"449 351 CURVE",
"449 335 LINE SMOOTH",
"449 291 OFFCURVE",
"443 249 OFFCURVE",
"430 208 CURVE",
"418 164 OFFCURVE",
"400 131 OFFCURVE",
"383 120 CURVE",
"376 117 OFFCURVE",
"370 116 OFFCURVE",
"365 115 CURVE",
"356 114 OFFCURVE",
"339 113 OFFCURVE",
"315 113 CURVE",
"323 220 LINE"
);
}
);
width = 751;
}
);
note = dcroat;
unicode = 0111;
},
